SplineFontDB: 3.2
FontName: Logisoso
FullName: Logisoso
FamilyName: Logisoso
Weight: Medium
Copyright: Created by Mathieu Gabiot with FontForge 2.0 (http://fontforge.sf.net) - Brussels - 2009
Version: 1.0
ItalicAngle: 0
UnderlinePosition: -350
UnderlineWidth: 50
Ascent: 800
Descent: 200
InvalidEm: 0
sfntRevision: 0x00010000
LayerCount: 2
Layer: 0 1 "Arri+AOgA-re" 1
Layer: 1 1 "Avant" 0
XUID: [1021 51 -2141088231 24371]
StyleMap: 0x0040
FSType: 4
OS2Version: 1
OS2_WeightWidthSlopeOnly: 0
OS2_UseTypoMetrics: 0
CreationTime: 1232040855
ModificationTime: 1778515161
PfmFamily: 17
TTFWeight: 500
TTFWidth: 3
LineGap: 90
VLineGap: 0
Panose: 2 11 6 6 2 1 2 5 2 3
OS2TypoAscent: 800
OS2TypoAOffset: 0
OS2TypoDescent: -200
OS2TypoDOffset: 0
OS2TypoLinegap: 90
OS2WinAscent: 848
OS2WinAOffset: 0
OS2WinDescent: 179
OS2WinDOffset: 0
HheadAscent: 848
HheadAOffset: 0
HheadDescent: -179
HheadDOffset: 0
OS2SubXSize: 650
OS2SubYSize: 700
OS2SubXOff: 0
OS2SubYOff: 140
OS2SupXSize: 650
OS2SupYSize: 700
OS2SupXOff: 0
OS2SupYOff: 480
OS2StrikeYSize: 49
OS2StrikeYPos: 258
OS2Vendor: 'PfEd'
OS2CodePages: 00000001.00000000
OS2UnicodeRanges: 00000003.00000000.00000000.00000000
Lookup: 258 0 0 "'kern' Cr+AOkA-nage horizontal dans Latin lookup 0" { "sous-table 'kern' Cr+AOkA-nage horizontal dans Latin lookup 0"  } ['kern' ('DFLT' <'dflt' > 'latn' <'dflt' > ) ]
DEI: 91125
ShortTable: cvt  2
  33
  633
EndShort
ShortTable: maxp 16
  1
  0
  530
  148
  11
  0
  0
  2
  0
  1
  1
  0
  64
  46
  0
  0
EndShort
LangName: 1033 "" "" "" "FontForge 2.0 : Logisoso : 9-12-2009" "" "" "" "" "" "Mathieu Gabiot" "" "" "http://www.mathieu-g.be" "This Font Software is an open font and is released under the GPL v2 with font exception; you can redistribute it and/or modify it under the terms of the GNU General Public License as published by the Free Software Foundation." "http://www.gnu.org/licenses/old-licences/gpl-2.0.html"
GaspTable: 1 65535 2 0
Encoding: UnicodeBmp
UnicodeInterp: none

StartChar: .notdef
Encoding: 65536 -1 0
Width: 364
GlyphClass: 1
Flags: W
LayerCount: 2
Fore
SplineSet
33 0 m 1,0,-1
 33 666 l 1,1,-1
 298 666 l 1,2,-1
 298 0 l 1,3,-1
 33 0 l 1,0,-1
66 33 m 1,4,-1
 265 33 l 1,5,-1
 265 633 l 1,6,-1
 66 633 l 1,7,-1
 66 33 l 1,4,-1
EndSplineSet
EndChar

StartChar: exclam
Encoding: 33 33 6
Width: 260
GlyphClass: 2
Flags: W
LayerCount: 2
Fore
SplineSet
94 699 m 2,0,-1
 165 699 l 2,1,2
 173 699 173 699 173 693 c 2,3,-1
 173 148 l 2,4,5
 173 141 173 141 165 141 c 2,6,-1
 94 141 l 2,7,8
 87 141 87 141 87 148 c 2,9,-1
 87 693 l 2,10,11
 87 699 87 699 94 699 c 2,0,-1
129.5 84 m 128,-1,13
 147 84 147 84 159 72 c 128,-1,14
 171 60 171 60 171 42 c 128,-1,15
 171 24 171 24 159 12 c 128,-1,16
 147 0 147 0 129.5 0 c 128,-1,17
 112 0 112 0 99.5 12 c 128,-1,18
 87 24 87 24 87 42 c 128,-1,19
 87 60 87 60 99.5 72 c 128,-1,12
 112 84 112 84 129.5 84 c 128,-1,13
EndSplineSet
EndChar

StartChar: quotedbl
Encoding: 34 34 7
Width: 450
GlyphClass: 2
Flags: W
LayerCount: 2
Fore
SplineSet
279 576 m 2,0,1
 277 574 277 574 274 574 c 2,2,-1
 267 574 l 2,3,4
 262 574 262 574 262 579 c 2,5,-1
 262 616 l 2,6,7
 262 619 262 619 259 621 c 2,8,9
 259 621 259 621 258 621.5 c 128,-1,10
 257 622 257 622 257 622 c 2,11,12
 243 631 243 631 238.5 648 c 128,-1,13
 234 665 234 665 243 679.5 c 128,-1,14
 252 694 252 694 269 698 c 128,-1,15
 286 702 286 702 300.5 693 c 128,-1,16
 315 684 315 684 319.5 667 c 128,-1,17
 324 650 324 650 315 636 c 2,18,-1
 279 576 l 2,0,1
171 576 m 2,19,20
 169 574 169 574 166 574 c 2,21,-1
 159 574 l 2,22,23
 154 574 154 574 154 579 c 2,24,-1
 154 616 l 2,25,26
 154 619 154 619 151 621 c 2,27,28
 151 621 151 621 150 621.5 c 128,-1,29
 149 622 149 622 149 622 c 2,30,31
 135 631 135 631 130.5 648 c 128,-1,32
 126 665 126 665 135 679.5 c 128,-1,33
 144 694 144 694 161 698 c 128,-1,34
 178 702 178 702 192.5 693 c 128,-1,35
 207 684 207 684 211.5 667 c 128,-1,36
 216 650 216 650 207 636 c 2,37,-1
 171 576 l 2,19,20
EndSplineSet
EndChar

StartChar: numbersign
Encoding: 35 35 8
Width: 450
GlyphClass: 2
Flags: W
LayerCount: 2
Fore
SplineSet
315 699 m 2,0,-1
 395 699 l 1,1,-1
 397 699 l 2,2,3
 403 697 403 697 402 690 c 2,4,-1
 368 472 l 1,5,-1
 394 472 l 2,6,7
 401 472 401 472 401 465 c 2,8,-1
 401 391 l 2,9,10
 401 384 401 384 394 384 c 2,11,-1
 355 384 l 1,12,-1
 343 308 l 1,13,-1
 394 308 l 2,14,15
 401 308 401 308 401 301 c 2,16,-1
 401 227 l 2,17,18
 401 220 401 220 394 220 c 2,19,-1
 329 220 l 1,20,-1
 296 4 l 2,21,22
 295 0 295 0 290 0 c 2,23,-1
 210 0 l 1,24,-1
 208 0 l 2,25,26
 202 2 202 2 203 9 c 2,27,-1
 235 220 l 1,28,-1
 184 220 l 1,29,-1
 151 4 l 2,30,31
 150 0 150 0 145 0 c 2,32,-1
 65 0 l 1,33,-1
 63 0 l 2,34,35
 57 2 57 2 58 9 c 2,36,-1
 90 220 l 1,37,-1
 56 220 l 2,38,39
 49 220 49 220 49 227 c 2,40,-1
 49 301 l 2,41,42
 49 308 49 308 56 308 c 2,43,-1
 104 308 l 1,44,-1
 115 384 l 1,45,-1
 56 384 l 2,46,47
 49 384 49 384 49 391 c 2,48,-1
 49 465 l 2,49,50
 49 472 49 472 56 472 c 2,51,-1
 129 472 l 1,52,-1
 163 695 l 2,53,54
 164 699 164 699 170 699 c 2,55,-1
 250 699 l 1,56,-1
 252 699 l 2,57,58
 258 697 258 697 257 690 c 2,59,-1
 223 472 l 1,60,-1
 274 472 l 1,61,-1
 308 695 l 2,62,63
 309 699 309 699 315 699 c 2,0,-1
260 384 m 1,64,-1
 210 384 l 1,65,-1
 198 308 l 1,66,-1
 249 308 l 1,67,-1
 260 384 l 1,64,-1
EndSplineSet
EndChar

StartChar: dollar
Encoding: 36 36 9
Width: 450
GlyphClass: 2
Flags: W
LayerCount: 2
Fore
SplineSet
269 695 m 1,0,1
 269 695 269 695 269 783 c 0,2,3
 269 788 269 788 263 788 c 2,4,-1
 188 788 l 2,5,6
 182 788 182 788 182 783 c 2,7,-1
 182 695 l 1,8,9
 134 683 134 683 98 644 c 0,10,11
 48 592 48 592 50 519 c 0,12,13
 51 483 51 483 66 450 c 0,14,15
 82 417 82 417 109 393 c 2,16,-1
 283 240 l 2,17,18
 310 216 310 216 312 180 c 256,19,20
 314 144 314 144 290 117 c 128,-1,21
 266 90 266 90 230 87.5 c 128,-1,22
 194 85 194 85 167 110 c 0,23,24
 146 128 146 128 138 170 c 0,25,26
 137 175 137 175 132 175 c 2,27,-1
 55 175 l 2,28,29
 50 175 50 175 50 170 c 0,30,31
 50 99 50 99 105 48 c 0,32,33
 140 15 140 15 182 5 c 1,34,-1
 182 -88 l 2,35,36
 182 -94 182 -94 188 -94 c 2,37,-1
 263 -94 l 2,38,39
 269 -94 269 -94 269 -88 c 2,40,-1
 269 5 l 1,41,42
 317 17 317 17 352 55 c 0,43,44
 402 108 402 108 400 180 c 0,45,46
 399 216 399 216 384 249 c 0,47,48
 368 282 368 282 341 306 c 2,49,-1
 167 459 l 2,50,51
 140 483 140 483 138 520 c 0,52,53
 136 556 136 556 160 583 c 128,-1,54
 184 610 184 610 220 612 c 128,-1,55
 256 614 256 614 283 590 c 0,56,57
 301 574 301 574 312 529 c 0,58,59
 313 525 313 525 318 525 c 2,60,-1
 395 525 l 2,61,62
 400 525 400 525 400 530 c 0,63,64
 400 600 400 600 345 652 c 0,65,66
 311 684 311 684 269 695 c 1,0,1
EndSplineSet
EndChar

StartChar: percent
Encoding: 37 37 10
Width: 450
GlyphClass: 2
Flags: W
LayerCount: 2
Fore
SplineSet
136 701 m 128,-1,1
 173 701 173 701 198.5 675 c 128,-1,2
 224 649 224 649 225 612 c 1,3,-1
 225 612 l 1,4,5
 224 575 224 575 198.5 549.5 c 128,-1,6
 173 524 173 524 136 524 c 128,-1,7
 99 524 99 524 73.5 549.5 c 128,-1,8
 48 575 48 575 47 612 c 1,9,-1
 47 612 l 1,10,11
 48 649 48 649 73.5 675 c 128,-1,0
 99 701 99 701 136 701 c 128,-1,1
313 701 m 1,12,-1
 402 701 l 1,13,-1
 136 -8 l 1,14,-1
 47 -8 l 1,15,-1
 313 701 l 1,12,-1
136 634 m 128,-1,17
 127 634 127 634 120.5 627.5 c 128,-1,18
 114 621 114 621 114 612 c 128,-1,19
 114 603 114 603 120.5 596.5 c 128,-1,20
 127 590 127 590 136 590 c 128,-1,21
 145 590 145 590 151.5 596.5 c 128,-1,22
 158 603 158 603 158 612 c 128,-1,23
 158 621 158 621 151.5 627.5 c 128,-1,16
 145 634 145 634 136 634 c 128,-1,17
313 169 m 128,-1,25
 350 169 350 169 376 143 c 128,-1,26
 402 117 402 117 402 81 c 2,27,-1
 402 80 l 2,28,29
 402 44 402 44 376 18 c 128,-1,30
 350 -8 350 -8 313 -8 c 128,-1,31
 276 -8 276 -8 250.5 18 c 128,-1,32
 225 44 225 44 225 80 c 2,33,-1
 225 81 l 2,34,35
 225 117 225 117 250.5 143 c 128,-1,24
 276 169 276 169 313 169 c 128,-1,25
313 103 m 128,-1,37
 304 103 304 103 297.5 96.5 c 128,-1,38
 291 90 291 90 291 80.5 c 128,-1,39
 291 71 291 71 297.5 64.5 c 128,-1,40
 304 58 304 58 313 58 c 128,-1,41
 322 58 322 58 328.5 64.5 c 128,-1,42
 335 71 335 71 335 80.5 c 128,-1,43
 335 90 335 90 328.5 96.5 c 128,-1,36
 322 103 322 103 313 103 c 128,-1,37
EndSplineSet
EndChar

StartChar: ampersand
Encoding: 38 38 11
Width: 450
GlyphClass: 2
Flags: W
LayerCount: 2
Fore
SplineSet
221 709 m 2,0,1
 221 709 221 709 225 709 c 0,2,3
 226 709 226 709 229 709 c 0,4,5
 234 709 234 709 236 709 c 0,6,7
 239 709 239 709 241 708 c 0,8,9
 244 708 244 708 248 708 c 0,10,11
 249 707 249 707 249 707 c 2,12,13
 254 707 254 707 254 706 c 1,14,15
 256 706 256 706 258 706 c 2,16,-1
 259 706 l 2,17,18
 262 705 262 705 264 704.5 c 128,-1,19
 266 704 266 704 269 703 c 0,20,21
 275 701 275 701 280 699 c 0,22,23
 283 698 283 698 285 697 c 0,24,25
 287 697 287 697 290 695.5 c 128,-1,26
 293 694 293 694 295 693 c 1,27,-1
 295 693 l 1,28,29
 302 689 302 689 308 685 c 1,30,-1
 309 685 l 1,31,-1
 313 682 l 2,32,33
 318 679 318 679 322 675 c 2,34,-1
 326 672 l 2,35,36
 332 667 332 667 338 661 c 0,37,38
 380 616 380 616 380 554 c 1,39,-1
 291 554 l 1,40,41
 291 582 291 582 271.5 601.5 c 128,-1,42
 252 621 252 621 224.5 621 c 128,-1,43
 197 621 197 621 177.5 601.5 c 128,-1,44
 158 582 158 582 158 554 c 0,45,46
 158 539 158 539 165 526 c 1,47,-1
 165 526 l 1,48,-1
 184 483 l 1,49,-1
 222 400 l 1,50,-1
 313 196 l 1,51,-1
 313 311 l 1,52,-1
 402 311 l 1,53,-1
 402 177 l 2,54,55
 402 120 402 120 369 74 c 1,56,-1
 402 0 l 1,57,-1
 305 0 l 1,58,-1
 298 16 l 1,59,60
 263 0 263 0 225 0 c 0,61,62
 152 0 152 0 100 52 c 128,-1,63
 48 104 48 104 48 177 c 2,64,-1
 48 222 l 1,65,-1
 48 266 l 1,66,-1
 48 311 l 2,67,68
 48 389 48 389 106 442 c 1,69,-1
 83 491 l 2,70,71
 70 521 70 521 70 554 c 0,72,73
 70 617 70 617 114 662.5 c 128,-1,74
 158 708 158 708 221 709 c 2,0,1
146 352 m 1,75,76
 136 333 136 333 136 311 c 2,77,-1
 136 266 l 1,78,-1
 136 222 l 1,79,-1
 136 177 l 2,80,81
 136 141 136 141 162 115 c 128,-1,82
 188 89 188 89 225 89 c 0,83,84
 244 89 244 89 261 96 c 1,85,-1
 146 352 l 1,75,76
EndSplineSet
EndChar

StartChar: quotesingle
Encoding: 39 39 12
Width: 260
GlyphClass: 2
Flags: W
LayerCount: 2
Fore
SplineSet
129 576 m 2,0,1
 128 574 128 574 124 574 c 2,2,-1
 118 574 l 2,3,4
 112 574 112 574 112 579 c 2,5,-1
 112 616 l 2,6,7
 112 619 112 619 110 621 c 0,8,9
 109 621 109 621 108.5 621.5 c 128,-1,10
 108 622 108 622 108 622 c 1,11,12
 93 631 93 631 89 648 c 128,-1,13
 85 665 85 665 94.5 679.5 c 128,-1,14
 104 694 104 694 120.5 698 c 128,-1,15
 137 702 137 702 152 693 c 128,-1,16
 167 684 167 684 171 667 c 128,-1,17
 175 650 175 650 166 636 c 2,18,-1
 129 576 l 2,0,1
EndSplineSet
EndChar

StartChar: parenleft
Encoding: 40 40 13
Width: 450
GlyphClass: 2
Flags: W
LayerCount: 2
Fore
SplineSet
230 2 m 0,0,1
 234 -4 234 -4 240 0 c 2,2,-1
 304 38 l 2,3,4
 310 41 310 41 306 48 c 0,5,6
 217 184 217 184 216 344 c 0,7,8
 213 506 213 506 305 645 c 0,9,10
 309 651 309 651 303 654 c 2,11,-1
 240 692 l 2,12,13
 234 696 234 696 230 690 c 0,14,15
 124 512 124 512 129 344 c 0,16,17
 136 157 136 157 230 2 c 0,0,1
EndSplineSet
EndChar

StartChar: parenright
Encoding: 41 41 14
Width: 450
GlyphClass: 2
Flags: W
LayerCount: 2
Fore
SplineSet
220 4 m 0,0,1
 216 -2 216 -2 210 2 c 2,2,-1
 146 40 l 2,3,4
 140 43 140 43 144 50 c 0,5,6
 233 186 233 186 234 346 c 0,7,8
 237 508 237 508 145 647 c 0,9,10
 141 653 141 653 147 656 c 2,11,-1
 210 694 l 2,12,13
 216 698 216 698 220 692 c 0,14,15
 326 514 326 514 321 346 c 0,16,17
 314 159 314 159 220 4 c 0,0,1
EndSplineSet
EndChar

StartChar: asterisk
Encoding: 42 42 15
Width: 450
GlyphClass: 2
Flags: W
LayerCount: 2
Fore
SplineSet
192 800 m 1,0,-1
 258 800 l 1,1,-1
 258 702 l 1,2,-1
 342 751 l 1,3,-1
 376 694 l 1,4,-1
 291 645 l 1,5,-1
 376 596 l 1,6,-1
 342 539 l 1,7,-1
 258 588 l 1,8,-1
 258 490 l 1,9,-1
 192 490 l 1,10,-1
 192 588 l 1,11,-1
 107 539 l 1,12,-1
 74 596 l 1,13,-1
 158 645 l 1,14,-1
 74 694 l 1,15,-1
 107 751 l 1,16,-1
 192 702 l 1,17,-1
 192 800 l 1,0,-1
EndSplineSet
EndChar

StartChar: plus
Encoding: 43 43 16
Width: 450
GlyphClass: 2
Flags: W
LayerCount: 2
Fore
SplineSet
180 399 m 1,0,-1
 269 399 l 1,1,-1
 269 310 l 1,2,-1
 358 310 l 1,3,-1
 358 221 l 1,4,-1
 269 221 l 1,5,-1
 269 133 l 1,6,-1
 180 133 l 1,7,-1
 180 221 l 1,8,-1
 92 221 l 1,9,-1
 92 310 l 1,10,-1
 180 310 l 1,11,-1
 180 399 l 1,0,-1
EndSplineSet
EndChar

StartChar: comma
Encoding: 44 44 17
Width: 260
GlyphClass: 2
Flags: W
LayerCount: 2
Fore
SplineSet
130 88 m 128,-1,1
 148 88 148 88 161 75 c 128,-1,2
 174 62 174 62 174 44 c 0,3,4
 174 37 174 37 172 31 c 2,5,-1
 152 -45 l 1,6,-1
 130 -45 l 1,7,-1
 130 -1 l 1,8,9
 112 -1 112 -1 99 12 c 128,-1,10
 86 25 86 25 86 43.5 c 128,-1,11
 86 62 86 62 99 75 c 128,-1,0
 112 88 112 88 130 88 c 128,-1,1
EndSplineSet
EndChar

StartChar: hyphen
Encoding: 45 45 18
Width: 450
GlyphClass: 2
Flags: W
LayerCount: 2
Fore
SplineSet
92 310 m 1,0,-1
 358 310 l 1,1,-1
 358 221 l 1,2,-1
 92 221 l 1,3,-1
 92 310 l 1,0,-1
EndSplineSet
EndChar

StartChar: period
Encoding: 46 46 19
Width: 260
GlyphClass: 2
Flags: W
LayerCount: 2
Fore
SplineSet
174 44 m 0,0,1
 174 40 174 40 173 35 c 0,2,3
 170 20 170 20 158 10 c 128,-1,4
 146 0 146 0 130 0 c 0,5,6
 112 0 112 0 99 13 c 128,-1,7
 86 26 86 26 86 44.5 c 128,-1,8
 86 63 86 63 99 76 c 128,-1,9
 112 89 112 89 130 89 c 128,-1,10
 148 89 148 89 161 76 c 128,-1,11
 174 63 174 63 174 44 c 0,0,1
EndSplineSet
EndChar

StartChar: slash
Encoding: 47 47 20
Width: 450
GlyphClass: 2
Flags: W
LayerCount: 2
Fore
SplineSet
305 699 m 2,0,-1
 385 699 l 1,1,-1
 387 699 l 2,2,3
 394 697 394 697 392 690 c 2,4,-1
 151 4 l 2,5,6
 150 0 150 0 145 0 c 2,7,-1
 65 0 l 1,8,-1
 63 0 l 2,9,10
 56 2 56 2 58 9 c 2,11,-1
 298 695 l 2,12,13
 299 699 299 699 305 699 c 2,0,-1
EndSplineSet
EndChar

StartChar: zero
Encoding: 48 48 21
Width: 450
GlyphClass: 2
Flags: W
LayerCount: 2
Fore
SplineSet
225 699 m 128,-1,1
 259 699 259 699 291.5 686 c 128,-1,2
 324 673 324 673 348.5 648.5 c 128,-1,3
 373 624 373 624 386.5 591.5 c 128,-1,4
 400 559 400 559 400 525 c 2,5,-1
 400 175 l 2,6,7
 400 140 400 140 386.5 108 c 128,-1,8
 373 76 373 76 348.5 51.5 c 128,-1,9
 324 27 324 27 291.5 13.5 c 128,-1,10
 259 0 259 0 225 0 c 128,-1,11
 191 0 191 0 158.5 13.5 c 128,-1,12
 126 27 126 27 101.5 51.5 c 128,-1,13
 77 76 77 76 63.5 108 c 128,-1,14
 50 140 50 140 50 175 c 2,15,-1
 50 525 l 2,16,17
 50 559 50 559 63.5 591.5 c 128,-1,18
 77 624 77 624 101.5 648.5 c 128,-1,19
 126 673 126 673 158.5 686 c 128,-1,0
 191 699 191 699 225 699 c 128,-1,1
225 612 m 256,20,21
 189 612 189 612 163 586.5 c 128,-1,22
 137 561 137 561 137 525 c 2,23,-1
 137 175 l 2,24,25
 137 138 137 138 163 113 c 0,26,27
 188 88 188 88 225 88 c 0,28,29
 261 88 261 88 287 113 c 0,30,31
 312 138 312 138 312 175 c 2,32,-1
 312 525 l 2,33,34
 312 561 312 561 286.5 586.5 c 128,-1,35
 261 612 261 612 225 612 c 256,20,21
EndSplineSet
EndChar

StartChar: one
Encoding: 49 49 22
Width: 450
GlyphClass: 2
Flags: W
LayerCount: 2
Fore
SplineSet
324 5 m 2,0,1
 324 0 324 0 318 0 c 2,2,-1
 241 0 l 2,3,4
 236 0 236 0 236 5 c 2,5,-1
 236 524 l 2,6,7
 236 527 236 527 233 528.5 c 128,-1,8
 230 530 230 530 228 528 c 0,9,10
 194 506 194 506 154 498 c 0,11,12
 152 498 152 498 150 499.5 c 128,-1,13
 148 501 148 501 148 503 c 2,14,-1
 148 581 l 2,15,16
 148 585 148 585 152 586 c 0,17,18
 187 598 187 598 210.5 629 c 128,-1,19
 234 660 234 660 236 697 c 0,20,21
 236 702 236 702 241 702 c 2,22,-1
 318 702 l 2,23,24
 324 702 324 702 324 697 c 2,25,-1
 324 5 l 2,0,1
EndSplineSet
EndChar

StartChar: two
Encoding: 50 50 23
Width: 450
GlyphClass: 2
Flags: W
LayerCount: 2
Fore
SplineSet
395 0 m 2,0,-1
 56 0 l 2,1,2
 51 0 51 0 51 5 c 2,3,-1
 51 86 l 2,4,5
 51 87 51 87 52 89 c 2,6,-1
 299 478 l 2,7,8
 312 497 312 497 313 521 c 128,-1,9
 314 545 314 545 303 565.5 c 128,-1,10
 292 586 292 586 271.5 598.5 c 128,-1,11
 251 611 251 611 228 612 c 128,-1,12
 205 613 205 613 184 601.5 c 128,-1,13
 163 590 163 590 151 570 c 128,-1,14
 139 550 139 550 138.5 526 c 128,-1,15
 138 502 138 502 149 482 c 0,16,17
 152 478 152 478 148 475 c 2,18,-1
 83 433 l 2,19,20
 78 431 78 431 75 435 c 0,21,22
 52 475 52 475 51.5 523.5 c 128,-1,23
 51 572 51 572 74.5 612 c 128,-1,24
 98 652 98 652 140 676 c 128,-1,25
 182 700 182 700 228.5 699.5 c 128,-1,26
 275 699 275 699 316.5 673.5 c 128,-1,27
 358 648 358 648 380 607.5 c 128,-1,28
 402 567 402 567 400 518.5 c 128,-1,29
 398 470 398 470 373 431 c 2,30,-1
 160 95 l 2,31,32
 158 93 158 93 159.5 90 c 128,-1,33
 161 87 161 87 164 87 c 2,34,-1
 395 87 l 2,35,36
 400 87 400 87 400 82 c 2,37,-1
 400 5 l 2,38,39
 400 0 400 0 395 0 c 2,0,-1
EndSplineSet
EndChar

StartChar: three
Encoding: 51 51 24
Width: 450
GlyphClass: 2
Flags: W
LayerCount: 2
Fore
SplineSet
53 100 m 0,0,1
 51 105 51 105 56 108 c 2,2,-1
 125 141 l 2,3,4
 130 143 130 143 132 138 c 0,5,6
 147 110 147 110 178 96.5 c 128,-1,7
 209 83 209 83 240 91 c 128,-1,8
 271 99 271 99 292 125.5 c 128,-1,9
 313 152 313 152 313 184 c 2,10,-1
 313 254 l 2,11,12
 313 294 313 294 285 322 c 128,-1,13
 257 350 257 350 217 350 c 2,14,-1
 181 350 l 2,15,16
 175 350 175 350 175 355 c 2,17,-1
 175 425 l 2,18,19
 175 427 175 427 176 428 c 2,20,-1
 291 604 l 2,21,22
 293 607 293 607 291 610 c 128,-1,23
 289 613 289 613 287 613 c 2,24,-1
 56 613 l 2,25,26
 51 613 51 613 51 618 c 2,27,-1
 51 695 l 2,28,29
 51 700 51 700 56 700 c 2,30,-1
 395 700 l 2,31,32
 401 700 401 700 401 695 c 2,33,-1
 401 614 l 2,34,35
 401 613 401 613 400 611 c 2,36,-1
 283 432 l 2,37,38
 282 430 282 430 283 427.5 c 128,-1,39
 284 425 284 425 286 424 c 0,40,41
 336 404 336 404 368.5 356 c 128,-1,42
 401 308 401 308 401 254 c 2,43,-1
 401 184 l 2,44,45
 401 120 401 120 361.5 70 c 128,-1,46
 322 20 322 20 260 5.5 c 128,-1,47
 198 -9 198 -9 140 17.5 c 128,-1,48
 82 44 82 44 53 100 c 0,0,1
EndSplineSet
EndChar

StartChar: four
Encoding: 52 52 25
Width: 450
GlyphClass: 2
Flags: W
LayerCount: 2
Fore
SplineSet
50 227 m 1,0,1
 50 227 50 227 50 228 c 2,2,-1
 171 696 l 2,3,4
 172 700 172 700 176 700 c 2,5,-1
 256 700 l 2,6,7
 258 700 258 700 260 697.5 c 128,-1,8
 262 695 262 695 261 693 c 2,9,-1
 142 234 l 2,10,11
 141 232 141 232 143 229.5 c 128,-1,12
 145 227 145 227 147 227 c 2,13,-1
 220 227 l 2,14,15
 225 227 225 227 225 233 c 2,16,-1
 225 345 l 2,17,18
 225 350 225 350 230 350 c 2,19,-1
 307 350 l 2,20,21
 312 350 312 350 312 345 c 2,22,-1
 312 233 l 2,23,24
 312 227 312 227 317 227 c 2,25,-1
 394 227 l 2,26,27
 400 227 400 227 400 222 c 2,28,-1
 400 145 l 2,29,30
 400 140 400 140 394 140 c 2,31,-1
 317 140 l 2,32,33
 312 140 312 140 312 135 c 2,34,-1
 312 5 l 2,35,36
 312 0 312 0 307 0 c 2,37,-1
 230 0 l 2,38,39
 225 0 225 0 225 5 c 2,40,-1
 225 135 l 2,41,42
 225 140 225 140 220 140 c 2,43,-1
 55 140 l 2,44,45
 50 140 50 140 50 145 c 2,46,-1
 50 227 l 1,0,1
EndSplineSet
EndChar

StartChar: five
Encoding: 53 53 26
Width: 450
GlyphClass: 2
Flags: W
LayerCount: 2
Fore
SplineSet
51 169 m 0,0,1
 50 175 50 175 56 175 c 2,2,-1
 133 175 l 2,3,4
 138 175 138 175 138 170 c 0,5,6
 140 134 140 134 166 110 c 128,-1,7
 192 86 192 86 227.5 87 c 128,-1,8
 263 88 263 88 288 113.5 c 128,-1,9
 313 139 313 139 313 175 c 2,10,-1
 313 297 l 2,11,12
 313 333 313 333 288 358.5 c 128,-1,13
 263 384 263 384 227.5 385 c 128,-1,14
 192 386 192 386 166 362 c 128,-1,15
 140 338 140 338 138 302 c 0,16,17
 138 297 138 297 133 297 c 2,18,-1
 56 297 l 2,19,20
 50 297 50 297 50 303 c 2,21,-1
 50 694 l 2,22,23
 50 699 50 699 56 699 c 2,24,-1
 395 699 l 2,25,26
 400 699 400 699 400 694 c 2,27,-1
 400 617 l 2,28,29
 400 612 400 612 395 612 c 2,30,-1
 143 612 l 2,31,32
 138 612 138 612 138 607 c 2,33,-1
 138 458 l 2,34,35
 138 455 138 455 140.5 453.5 c 128,-1,36
 143 452 143 452 145 453 c 0,37,38
 185 473 185 473 231.5 471.5 c 128,-1,39
 278 470 278 470 316.5 446.5 c 128,-1,40
 355 423 355 423 377.5 382.5 c 128,-1,41
 400 342 400 342 400 297 c 2,42,-1
 400 175 l 2,43,44
 400 141 400 141 387 108.5 c 128,-1,45
 374 76 374 76 350 52 c 128,-1,46
 326 28 326 28 294 14.5 c 128,-1,47
 262 1 262 1 228 0 c 128,-1,48
 194 -1 194 -1 161.5 12 c 128,-1,49
 129 25 129 25 104.5 48.5 c 128,-1,50
 80 72 80 72 66 103.5 c 128,-1,51
 52 135 52 135 51 169 c 0,0,1
EndSplineSet
EndChar

StartChar: six
Encoding: 54 54 27
Width: 450
GlyphClass: 2
Flags: W
LayerCount: 2
Fore
SplineSet
399 530 m 0,0,1
 399 525 399 525 394 525 c 2,2,-1
 317 525 l 2,3,4
 312 525 312 525 311 530 c 0,5,6
 309 565 309 565 283 589 c 128,-1,7
 257 613 257 613 221.5 612 c 128,-1,8
 186 611 186 611 161.5 585.5 c 128,-1,9
 137 560 137 560 137 525 c 2,10,-1
 137 423 l 2,11,12
 137 420 137 420 139.5 418.5 c 128,-1,13
 142 417 142 417 144 418 c 0,14,15
 184 438 184 438 230.5 436.5 c 128,-1,16
 277 435 277 435 315 411.5 c 128,-1,17
 353 388 353 388 376 347.5 c 128,-1,18
 399 307 399 307 399 262 c 2,19,-1
 399 175 l 2,20,21
 399 141 399 141 385.5 108.5 c 128,-1,22
 372 76 372 76 347.5 51.5 c 128,-1,23
 323 27 323 27 290.5 13.5 c 128,-1,24
 258 0 258 0 224 0 c 128,-1,25
 190 0 190 0 157.5 13.5 c 128,-1,26
 125 27 125 27 100.5 51.5 c 128,-1,27
 76 76 76 76 62.5 108.5 c 128,-1,28
 49 141 49 141 49 175 c 2,29,-1
 49 525 l 2,30,31
 49 559 49 559 62.5 591 c 128,-1,32
 76 623 76 623 99.5 647.5 c 128,-1,33
 123 672 123 672 155 685.5 c 128,-1,34
 187 699 187 699 221 699.5 c 128,-1,35
 255 700 255 700 287.5 687.5 c 128,-1,36
 320 675 320 675 344.5 651.5 c 128,-1,37
 369 628 369 628 383.5 596 c 128,-1,38
 398 564 398 564 399 530 c 0,0,1
311 175 m 2,39,-1
 311 262 l 2,40,41
 311 299 311 299 285.5 324.5 c 128,-1,42
 260 350 260 350 224 350 c 128,-1,43
 188 350 188 350 162.5 324.5 c 128,-1,44
 137 299 137 299 137 262 c 2,45,-1
 137 175 l 2,46,47
 137 139 137 139 162.5 113 c 128,-1,48
 188 87 188 87 224 87 c 128,-1,49
 260 87 260 87 285.5 113 c 128,-1,50
 311 139 311 139 311 175 c 2,39,-1
EndSplineSet
EndChar

StartChar: seven
Encoding: 55 55 28
Width: 450
GlyphClass: 2
Flags: W
LayerCount: 2
Fore
SplineSet
239 4 m 2,0,1
 237 0 237 0 233 0 c 2,2,-1
 144 0 l 2,3,4
 142 0 142 0 140 2 c 128,-1,5
 138 4 138 4 139 7 c 2,6,-1
 297 606 l 2,7,8
 298 608 298 608 296.5 610 c 128,-1,9
 295 612 295 612 292 612 c 2,10,-1
 142 612 l 2,11,12
 137 612 137 612 137 607 c 2,13,-1
 137 530 l 2,14,15
 137 525 137 525 132 525 c 2,16,-1
 55 525 l 2,17,18
 50 525 50 525 50 530 c 2,19,-1
 50 694 l 2,20,21
 50 700 50 700 55 700 c 2,22,-1
 394 700 l 2,23,24
 400 700 400 700 400 694 c 2,25,-1
 400 613 l 2,26,27
 400 612 400 612 399 611 c 2,28,-1
 239 4 l 2,0,1
EndSplineSet
EndChar

StartChar: eight
Encoding: 56 56 29
Width: 450
GlyphClass: 2
Flags: W
LayerCount: 2
Fore
SplineSet
226 699 m 128,-1,1
 260 699 260 699 292.5 686 c 128,-1,2
 325 673 325 673 349.5 648.5 c 128,-1,3
 374 624 374 624 387.5 591.5 c 128,-1,4
 401 559 401 559 401 525 c 2,5,-1
 401 481 l 2,6,7
 401 445 401 445 386.5 411.5 c 128,-1,8
 372 378 372 378 346 354 c 0,9,10
 342 350 342 350 346 346 c 0,11,12
 372 321 372 321 386.5 287.5 c 128,-1,13
 401 254 401 254 401 219 c 2,14,-1
 401 175 l 2,15,16
 401 141 401 141 387.5 108 c 128,-1,17
 374 75 374 75 349.5 51 c 128,-1,18
 325 27 325 27 292.5 13.5 c 128,-1,19
 260 0 260 0 226 0 c 128,-1,20
 192 0 192 0 159.5 13.5 c 128,-1,21
 127 27 127 27 102.5 51 c 128,-1,22
 78 75 78 75 64.5 108 c 128,-1,23
 51 141 51 141 51 175 c 2,24,-1
 51 219 l 2,25,26
 51 254 51 254 65.5 288 c 128,-1,27
 80 322 80 322 106 346 c 0,28,29
 110 350 110 350 106 354 c 0,30,31
 80 378 80 378 65.5 411.5 c 128,-1,32
 51 445 51 445 51 481 c 2,33,-1
 51 525 l 2,34,35
 51 559 51 559 64.5 591.5 c 128,-1,36
 78 624 78 624 102.5 648.5 c 128,-1,37
 127 673 127 673 159.5 686 c 128,-1,0
 192 699 192 699 226 699 c 128,-1,1
226 612 m 128,-1,39
 190 612 190 612 164.5 586.5 c 128,-1,40
 139 561 139 561 139 524 c 2,41,-1
 139 481 l 2,42,43
 139 445 139 445 164.5 419 c 128,-1,44
 190 393 190 393 226 393 c 128,-1,45
 262 393 262 393 287.5 419 c 128,-1,46
 313 445 313 445 313 481 c 2,47,-1
 313 524 l 2,48,49
 313 561 313 561 287.5 586.5 c 128,-1,38
 262 612 262 612 226 612 c 128,-1,39
226 306 m 128,-1,51
 190 306 190 306 164.5 280.5 c 128,-1,52
 139 255 139 255 139 218 c 2,53,-1
 139 175 l 2,54,55
 139 139 139 139 164.5 113 c 128,-1,56
 190 87 190 87 226 87 c 128,-1,57
 262 87 262 87 287.5 113 c 128,-1,58
 313 139 313 139 313 175 c 2,59,-1
 313 218 l 2,60,61
 313 255 313 255 287.5 280.5 c 128,-1,50
 262 306 262 306 226 306 c 128,-1,51
EndSplineSet
EndChar

StartChar: nine
Encoding: 57 57 30
Width: 450
GlyphClass: 2
Flags: W
LayerCount: 2
Fore
SplineSet
51 169 m 0,0,1
 50 175 50 175 56 175 c 2,2,-1
 133 175 l 2,3,4
 138 175 138 175 138 170 c 0,5,6
 140 134 140 134 166 110 c 128,-1,7
 192 86 192 86 227.5 87 c 128,-1,8
 263 88 263 88 288 113.5 c 128,-1,9
 313 139 313 139 313 175 c 2,10,-1
 313 277 l 2,11,12
 313 280 313 280 310 281.5 c 128,-1,13
 307 283 307 283 305 282 c 0,14,15
 265 261 265 261 218.5 263 c 128,-1,16
 172 265 172 265 134 288 c 128,-1,17
 96 311 96 311 73 351.5 c 128,-1,18
 50 392 50 392 50 437 c 2,19,-1
 50 525 l 2,20,21
 50 559 50 559 63.5 591.5 c 128,-1,22
 77 624 77 624 101.5 648.5 c 128,-1,23
 126 673 126 673 158.5 686 c 128,-1,24
 191 699 191 699 225.5 699 c 128,-1,25
 260 699 260 699 292.5 686 c 128,-1,26
 325 673 325 673 349 648.5 c 128,-1,27
 373 624 373 624 386.5 591.5 c 128,-1,28
 400 559 400 559 400 525 c 2,29,-1
 400 175 l 2,30,31
 400 141 400 141 387 108.5 c 128,-1,32
 374 76 374 76 350 52 c 128,-1,33
 326 28 326 28 294 14.5 c 128,-1,34
 262 1 262 1 228 0 c 128,-1,35
 194 -1 194 -1 161.5 12 c 128,-1,36
 129 25 129 25 104.5 48.5 c 128,-1,37
 80 72 80 72 66 103.5 c 128,-1,38
 52 135 52 135 51 169 c 0,0,1
138 525 m 2,39,-1
 138 437 l 2,40,41
 138 401 138 401 163.5 375.5 c 128,-1,42
 189 350 189 350 225 350 c 128,-1,43
 261 350 261 350 287 375.5 c 128,-1,44
 313 401 313 401 313 437 c 2,45,-1
 313 525 l 2,46,47
 313 561 313 561 287.5 586.5 c 128,-1,48
 262 612 262 612 225.5 612 c 128,-1,49
 189 612 189 612 163.5 586.5 c 128,-1,50
 138 561 138 561 138 525 c 2,39,-1
EndSplineSet
EndChar

StartChar: colon
Encoding: 58 58 31
Width: 260
GlyphClass: 2
Flags: W
LayerCount: 2
Fore
SplineSet
130 487 m 128,-1,1
 148 487 148 487 161 474 c 128,-1,2
 174 461 174 461 174 443 c 128,-1,3
 174 425 174 425 161 412 c 128,-1,4
 148 399 148 399 130 399 c 128,-1,5
 112 399 112 399 99 412 c 128,-1,6
 86 425 86 425 86 443 c 128,-1,7
 86 461 86 461 99 474 c 128,-1,0
 112 487 112 487 130 487 c 128,-1,1
130 177 m 128,-1,9
 148 177 148 177 161 164 c 128,-1,10
 174 151 174 151 174 133 c 128,-1,11
 174 115 174 115 161 102 c 128,-1,12
 148 89 148 89 130 89 c 128,-1,13
 112 89 112 89 99 102 c 128,-1,14
 86 115 86 115 86 133 c 128,-1,15
 86 151 86 151 99 164 c 128,-1,8
 112 177 112 177 130 177 c 128,-1,9
EndSplineSet
EndChar

StartChar: semicolon
Encoding: 59 59 32
Width: 260
GlyphClass: 2
Flags: W
LayerCount: 2
Fore
SplineSet
130 177 m 128,-1,1
 148 177 148 177 161 164 c 128,-1,2
 174 151 174 151 174 133 c 0,3,4
 174 126 174 126 172 120 c 2,5,-1
 152 44 l 1,6,-1
 130 44 l 1,7,-1
 130 88 l 1,8,9
 112 88 112 88 99 101 c 128,-1,10
 86 114 86 114 86 132.5 c 128,-1,11
 86 151 86 151 99 164 c 128,-1,0
 112 177 112 177 130 177 c 128,-1,1
130 487 m 128,-1,13
 148 487 148 487 161 474 c 128,-1,14
 174 461 174 461 174 443 c 128,-1,15
 174 425 174 425 161 412 c 128,-1,16
 148 399 148 399 130 399 c 128,-1,17
 112 399 112 399 99 412 c 128,-1,18
 86 425 86 425 86 443 c 128,-1,19
 86 461 86 461 99 474 c 128,-1,12
 112 487 112 487 130 487 c 128,-1,13
EndSplineSet
EndChar

StartChar: less
Encoding: 60 60 33
Width: 450
GlyphClass: 2
Flags: W
LayerCount: 2
Fore
SplineSet
120 377 m 2,0,1
 120 379 120 379 122 381 c 2,2,-1
 324 541 l 2,3,4
 326 543 326 543 328.5 541.5 c 128,-1,5
 331 540 331 540 331 537 c 2,6,-1
 331 460 l 2,7,8
 331 458 331 458 329 457 c 2,9,-1
 175 332 l 1,10,-1
 329 205 l 2,11,12
 331 204 331 204 331 202 c 2,13,-1
 331 125 l 2,14,15
 331 122 331 122 328.5 120.5 c 128,-1,16
 326 119 326 119 324 121 c 2,17,-1
 122 284 l 2,18,19
 120 285 120 285 120 287 c 2,20,-1
 120 377 l 2,0,1
EndSplineSet
EndChar

StartChar: equal
Encoding: 61 61 34
Width: 450
GlyphClass: 2
Flags: W
LayerCount: 2
Fore
SplineSet
75 356 m 2,0,-1
 375 356 l 2,1,2
 382 356 382 356 382 349 c 2,3,-1
 382 275 l 2,4,5
 382 268 382 268 375 268 c 2,6,-1
 75 268 l 2,7,8
 68 268 68 268 68 275 c 2,9,-1
 68 349 l 2,10,11
 68 356 68 356 75 356 c 2,0,-1
75 192 m 2,12,-1
 375 192 l 2,13,14
 382 192 382 192 382 185 c 2,15,-1
 382 111 l 2,16,17
 382 104 382 104 375 104 c 2,18,-1
 75 104 l 2,19,20
 68 104 68 104 68 111 c 2,21,-1
 68 185 l 2,22,23
 68 192 68 192 75 192 c 2,12,-1
EndSplineSet
EndChar

StartChar: greater
Encoding: 62 62 35
Width: 450
GlyphClass: 2
Flags: W
LayerCount: 2
Fore
SplineSet
331 285 m 2,0,1
 331 283 331 283 329 281 c 2,2,-1
 127 121 l 2,3,4
 125 119 125 119 122.5 120.5 c 128,-1,5
 120 122 120 122 120 125 c 2,6,-1
 120 202 l 2,7,8
 120 204 120 204 122 205 c 2,9,-1
 276 330 l 1,10,-1
 122 457 l 2,11,12
 120 458 120 458 120 460 c 2,13,-1
 120 537 l 2,14,15
 120 540 120 540 122.5 541.5 c 128,-1,16
 125 543 125 543 127 541 c 2,17,-1
 329 378 l 2,18,19
 331 377 331 377 331 375 c 2,20,-1
 331 285 l 2,0,1
EndSplineSet
EndChar

StartChar: question
Encoding: 63 63 36
Width: 450
GlyphClass: 2
Flags: W
LayerCount: 2
Fore
SplineSet
225.5 709 m 128,-1,1
 299 709 299 709 350.5 657 c 128,-1,2
 402 605 402 605 402 531.5 c 128,-1,3
 402 458 402 458 351 406 c 2,4,-1
 288 344 l 2,5,6
 262 318 262 318 262 281 c 2,7,-1
 262 133 l 1,8,-1
 174 133 l 1,9,-1
 174 281 l 2,10,11
 174 355 174 355 225 406 c 2,12,-1
 288 469 l 2,13,14
 314 495 314 495 314 531.5 c 128,-1,15
 314 568 314 568 288 594 c 128,-1,16
 262 620 262 620 225 620 c 1,17,-1
 225 620 l 1,18,19
 189 620 189 620 163 594 c 128,-1,20
 137 568 137 568 137 532 c 1,21,-1
 137 532 l 1,22,-1
 48 532 l 1,23,24
 48 605 48 605 100 657 c 128,-1,0
 152 709 152 709 225.5 709 c 128,-1,1
217.5 89 m 128,-1,26
 236 89 236 89 249 76 c 128,-1,27
 262 63 262 63 262 44 c 0,28,29
 262 40 262 40 261 36 c 0,30,31
 258 20 258 20 246 10 c 128,-1,32
 234 0 234 0 218 0 c 0,33,34
 199 0 199 0 186.5 13 c 128,-1,35
 174 26 174 26 174 44.5 c 128,-1,36
 174 63 174 63 186.5 76 c 128,-1,25
 199 89 199 89 217.5 89 c 128,-1,26
EndSplineSet
EndChar

StartChar: at
Encoding: 64 64 37
Width: 715
GlyphClass: 2
Flags: W
LayerCount: 2
Fore
SplineSet
357.5 664 m 128,-1,1
 486 664 486 664 577 573.5 c 128,-1,2
 668 483 668 483 668 354 c 2,3,-1
 668 133 l 2,4,5
 668 78 668 78 629 39 c 128,-1,6
 590 0 590 0 535 0 c 0,7,8
 484 0 484 0 446 34 c 1,9,10
 409 0 409 0 358 0 c 0,11,12
 303 0 303 0 264 39 c 128,-1,13
 225 78 225 78 225 133 c 2,14,-1
 225 354 l 2,15,16
 225 409 225 409 264 448 c 128,-1,17
 303 487 303 487 358 487 c 0,18,19
 381 487 381 487 402 480 c 1,20,-1
 402 488 l 1,21,-1
 491 488 l 1,22,-1
 491 133 l 2,23,24
 491 132 491 132 491 131 c 0,25,26
 492 113 492 113 504.5 101 c 128,-1,27
 517 89 517 89 535 89 c 256,28,29
 553 89 553 89 566 102 c 128,-1,30
 579 115 579 115 579 133 c 2,31,-1
 579 354 l 2,32,33
 579 446 579 446 514.5 511 c 128,-1,34
 450 576 450 576 358 576 c 128,-1,35
 266 576 266 576 201 511 c 128,-1,36
 136 446 136 446 136 354 c 2,37,-1
 136 133 l 1,38,-1
 48 133 l 1,39,-1
 48 354 l 2,40,41
 48 483 48 483 138.5 573.5 c 128,-1,0
 229 664 229 664 357.5 664 c 128,-1,1
357.5 399 m 128,-1,43
 339 399 339 399 326.5 386 c 128,-1,44
 314 373 314 373 314 354 c 2,45,-1
 313 133 l 2,46,47
 314 115 314 115 327 102 c 128,-1,48
 340 89 340 89 358 89 c 256,49,50
 376 89 376 89 388.5 101 c 128,-1,51
 401 113 401 113 402 131 c 2,52,53
 402 131 402 131 402 132 c 2,54,-1
 402 133 l 1,55,-1
 402 354 l 2,56,57
 402 373 402 373 389 386 c 128,-1,42
 376 399 376 399 357.5 399 c 128,-1,43
48 133 m 1,58,-1
 136 133 l 1,59,60
 136 41 136 41 201 -24 c 128,-1,61
 266 -89 266 -89 358 -89 c 2,62,-1
 579 -89 l 1,63,-1
 579 -177 l 1,64,-1
 358 -177 l 2,65,66
 229 -177 229 -177 138.5 -86.5 c 128,-1,67
 48 4 48 4 48 133 c 1,58,-1
EndSplineSet
EndChar

StartChar: A
Encoding: 65 65 38
Width: 450
GlyphClass: 2
Flags: W
LayerCount: 2
Fore
SplineSet
399 2 m 2,0,1
 399 1 399 1 399 1 c 2,2,3
 399 -4 399 -4 394 -4 c 2,4,-1
 317 -4 l 2,5,6
 312 -4 312 -4 312 0 c 2,7,-1
 289 123 l 2,8,9
 288 127 288 127 284 127 c 2,10,-1
 167 127 l 2,11,12
 162 127 162 127 161 123 c 2,13,-1
 138 0 l 2,14,15
 138 -4 138 -4 133 -4 c 2,16,-1
 56 -4 l 1,17,18
 56 -4 56 -4 56 -4 c 1,19,20
 50 -3 50 -3 51 2 c 2,21,-1
 181 691 l 2,22,23
 181 695 181 695 186 695 c 2,24,-1
 264 695 l 2,25,26
 269 695 269 695 270 691 c 2,27,-1
 399 2 l 2,0,1
265 214 m 2,28,29
 270 214 270 214 270 220 c 2,30,31
 270 220 270 220 270 221 c 2,32,-1
 230 435 l 2,33,34
 229 440 229 440 224 439 c 0,35,36
 221 438 221 438 220 435 c 2,37,-1
 180 221 l 2,38,39
 179 215 179 215 184 214 c 2,40,41
 184 214 184 214 185 214 c 2,42,-1
 265 214 l 2,28,29
EndSplineSet
EndChar

StartChar: B
Encoding: 66 66 39
Width: 450
GlyphClass: 2
Flags: W
LayerCount: 2
Fore
SplineSet
320 374 m 1,0,1
 358 345 358 345 379 301.5 c 128,-1,2
 400 258 400 258 400 210 c 0,3,4
 400 123 400 123 338.5 61.5 c 128,-1,5
 277 0 277 0 190 0 c 2,6,-1
 55 0 l 2,7,8
 50 0 50 0 50 5 c 2,9,-1
 50 694 l 2,10,11
 50 699 50 699 55 699 c 2,12,-1
 203 699 l 2,13,14
 244 699 244 699 281 682 c 128,-1,15
 318 665 318 665 345 633 c 0,16,17
 393 574 393 574 386 498.5 c 128,-1,18
 379 423 379 423 320 374 c 1,0,1
138 607 m 2,19,-1
 138 425 l 2,20,21
 138 420 138 420 143 420 c 2,22,-1
 203 420 l 2,23,24
 243 420 243 420 271 448 c 128,-1,25
 299 476 299 476 299 516 c 128,-1,26
 299 556 299 556 271 584 c 128,-1,27
 243 612 243 612 203 612 c 2,28,-1
 143 612 l 2,29,30
 138 612 138 612 138 607 c 2,19,-1
190 87 m 2,31,32
 241 87 241 87 276.5 123 c 128,-1,33
 312 159 312 159 312 210 c 128,-1,34
 312 261 312 261 276.5 296.5 c 128,-1,35
 241 332 241 332 190 332 c 2,36,-1
 143 332 l 2,37,38
 138 332 138 332 138 327 c 2,39,-1
 138 93 l 2,40,41
 138 87 138 87 143 87 c 2,42,-1
 190 87 l 2,31,32
EndSplineSet
EndChar

StartChar: C
Encoding: 67 67 40
Width: 450
GlyphClass: 2
Flags: W
LayerCount: 2
Fore
SplineSet
312 531 m 0,0,1
 310 567 310 567 283 591 c 128,-1,2
 256 615 256 615 220 613 c 0,3,4
 185 611 185 611 161.5 586 c 128,-1,5
 138 561 138 561 138 526 c 2,6,-1
 138 176 l 2,7,8
 138 140 138 140 163.5 114.5 c 128,-1,9
 189 89 189 89 225 89 c 0,10,11
 260 89 260 89 285 112.5 c 128,-1,12
 310 136 310 136 312 171 c 0,13,14
 313 176 313 176 318 176 c 2,15,-1
 395 176 l 2,16,17
 400 176 400 176 400 171 c 0,18,19
 398 100 398 100 347 50.5 c 128,-1,20
 296 1 296 1 225 1 c 0,21,22
 153 1 153 1 101.5 52.5 c 128,-1,23
 50 104 50 104 50 176 c 2,24,-1
 50 526 l 2,25,26
 50 597 50 597 99.5 647.5 c 128,-1,27
 149 698 149 698 220 701 c 0,28,29
 292 703 292 703 345 653.5 c 128,-1,30
 398 604 398 604 400 531 c 0,31,32
 400 526 400 526 395 526 c 2,33,-1
 318 526 l 2,34,35
 313 526 313 526 312 531 c 0,0,1
EndSplineSet
EndChar

StartChar: D
Encoding: 68 68 41
Width: 450
GlyphClass: 2
Flags: W
LayerCount: 2
Fore
SplineSet
225 699 m 2,0,1
 297 699 297 699 348.5 648 c 128,-1,2
 400 597 400 597 400 525 c 2,3,-1
 400 175 l 2,4,5
 400 102 400 102 348.5 51 c 128,-1,6
 297 0 297 0 225 0 c 2,7,-1
 55 0 l 2,8,9
 50 0 50 0 50 5 c 2,10,-1
 50 694 l 2,11,12
 50 699 50 699 55 699 c 2,13,-1
 225 699 l 2,0,1
312 175 m 2,14,-1
 312 525 l 2,15,16
 312 561 312 561 286.5 586.5 c 128,-1,17
 261 612 261 612 225 612 c 2,18,-1
 143 612 l 2,19,20
 138 612 138 612 138 607 c 2,21,-1
 138 93 l 2,22,23
 138 87 138 87 143 87 c 2,24,-1
 225 87 l 2,25,26
 261 87 261 87 286.5 113 c 128,-1,27
 312 139 312 139 312 175 c 2,14,-1
EndSplineSet
EndChar

StartChar: E
Encoding: 69 69 42
Width: 450
GlyphClass: 2
Flags: W
LayerCount: 2
Fore
SplineSet
400 694 m 2,0,-1
 400 617 l 2,1,2
 400 612 400 612 395 612 c 2,3,-1
 143 612 l 2,4,5
 138 612 138 612 138 607 c 2,6,-1
 138 399 l 2,7,8
 138 393 138 393 143 393 c 2,9,-1
 307 393 l 2,10,11
 312 393 312 393 312 388 c 2,12,-1
 312 311 l 2,13,14
 312 306 312 306 307 306 c 2,15,-1
 143 306 l 2,16,17
 138 306 138 306 138 301 c 2,18,-1
 138 93 l 2,19,20
 138 87 138 87 143 87 c 2,21,-1
 395 87 l 2,22,23
 400 87 400 87 400 82 c 2,24,-1
 400 5 l 2,25,26
 400 0 400 0 395 0 c 2,27,-1
 55 0 l 2,28,29
 50 0 50 0 50 5 c 2,30,-1
 50 694 l 2,31,32
 50 699 50 699 55 699 c 2,33,-1
 395 699 l 2,34,35
 400 699 400 699 400 694 c 2,0,-1
EndSplineSet
EndChar

StartChar: F
Encoding: 70 70 43
Width: 450
GlyphClass: 2
Flags: W
LayerCount: 2
Fore
SplineSet
50 5 m 2,0,-1
 50 694 l 2,1,2
 50 699 50 699 55 699 c 2,3,-1
 395 699 l 2,4,5
 400 699 400 699 400 694 c 2,6,-1
 400 617 l 2,7,8
 400 612 400 612 395 612 c 2,9,-1
 143 612 l 2,10,11
 138 612 138 612 138 607 c 2,12,-1
 138 399 l 2,13,14
 138 393 138 393 143 393 c 2,15,-1
 307 393 l 2,16,17
 312 393 312 393 312 388 c 2,18,-1
 312 311 l 2,19,20
 312 306 312 306 307 306 c 2,21,-1
 143 306 l 2,22,23
 138 306 138 306 138 301 c 2,24,-1
 138 5 l 2,25,26
 138 0 138 0 132 0 c 2,27,-1
 55 0 l 2,28,29
 50 0 50 0 50 5 c 2,0,-1
EndSplineSet
EndChar

StartChar: G
Encoding: 71 71 44
Width: 450
GlyphClass: 2
Flags: W
LayerCount: 2
Fore
SplineSet
395 368 m 2,0,1
 400 368 400 368 400 363 c 2,2,-1
 400 6 l 2,3,4
 400 1 400 1 395 1 c 2,5,-1
 318 1 l 2,6,7
 312 1 312 1 312 6 c 2,8,-1
 312 15 l 2,9,10
 312 21 312 21 307 21 c 0,11,12
 306 21 306 21 305 20 c 0,13,14
 267 1 267 1 225 1 c 0,15,16
 153 1 153 1 101.5 52 c 128,-1,17
 50 103 50 103 50 176 c 2,18,-1
 50 525 l 2,19,20
 50 596 50 596 99.5 647 c 128,-1,21
 149 698 149 698 220 700 c 4,22,23
 292 702 292 702 345 652.5 c 132,-1,24
 398 603 398 603 400 531 c 0,25,26
 400 525 400 525 395 525 c 2,27,-1
 318 525 l 2,28,29
 313 525 313 525 312 530 c 0,30,31
 310 566 310 566 283 590.5 c 128,-1,32
 256 615 256 615 220 613 c 0,33,34
 185 611 185 611 161.5 585.5 c 128,-1,35
 138 560 138 560 138 525 c 2,36,-1
 138 176 l 2,37,38
 138 139 138 139 163.5 113.5 c 128,-1,39
 189 88 189 88 225 88 c 128,-1,40
 261 88 261 88 286.5 113.5 c 128,-1,41
 312 139 312 139 312 176 c 2,42,-1
 312 275 l 2,43,44
 312 281 312 281 307 281 c 2,45,-1
 230 281 l 2,46,47
 225 281 225 281 225 286 c 2,48,-1
 225 363 l 2,49,50
 225 368 225 368 230 368 c 2,51,-1
 395 368 l 2,0,1
EndSplineSet
EndChar

StartChar: H
Encoding: 72 72 45
Width: 450
GlyphClass: 2
Flags: W
LayerCount: 2
Fore
SplineSet
318 699 m 2,0,1
 312 699 312 699 312 694 c 2,2,-1
 312 399 l 2,3,4
 312 393 312 393 307 393 c 2,5,-1
 143 393 l 2,6,7
 138 393 138 393 138 399 c 2,8,-1
 138 694 l 2,9,10
 138 699 138 699 132 699 c 2,11,-1
 55 699 l 2,12,13
 50 699 50 699 50 694 c 2,14,-1
 50 5 l 2,15,16
 50 0 50 0 55 0 c 2,17,-1
 132 0 l 2,18,19
 138 0 138 0 138 5 c 2,20,-1
 138 301 l 2,21,22
 138 306 138 306 143 306 c 2,23,-1
 307 306 l 2,24,25
 312 306 312 306 312 301 c 2,26,-1
 312 5 l 2,27,28
 312 0 312 0 318 0 c 2,29,-1
 395 0 l 2,30,31
 400 0 400 0 400 5 c 2,32,-1
 400 694 l 2,33,34
 400 699 400 699 395 699 c 2,35,-1
 318 699 l 2,0,1
EndSplineSet
EndChar

StartChar: I
Encoding: 73 73 46
Width: 261
GlyphClass: 2
Flags: W
LayerCount: 2
Fore
SplineSet
87 694 m 2,0,1
 87 699 87 699 92 699 c 2,2,-1
 169 699 l 2,3,4
 174 699 174 699 174 694 c 2,5,-1
 174 5 l 2,6,7
 174 0 174 0 169 0 c 2,8,-1
 92 0 l 2,9,10
 87 0 87 0 87 5 c 2,11,-1
 87 694 l 2,0,1
EndSplineSet
EndChar

StartChar: J
Encoding: 74 74 47
Width: 450
GlyphClass: 2
Flags: W
LayerCount: 2
Fore
SplineSet
318 699 m 2,0,-1
 395 699 l 2,1,2
 400 699 400 699 400 694 c 2,3,-1
 400 175 l 2,4,5
 400 104 400 104 350.5 53 c 128,-1,6
 301 2 301 2 230 0 c 0,7,8
 158 -2 158 -2 105 47.5 c 128,-1,9
 52 97 52 97 50 169 c 0,10,11
 50 175 50 175 55 175 c 2,12,-1
 132 175 l 2,13,14
 137 175 137 175 138 170 c 0,15,16
 140 134 140 134 167 109.5 c 128,-1,17
 194 85 194 85 230 87 c 0,18,19
 265 89 265 89 288.5 114.5 c 128,-1,20
 312 140 312 140 312 175 c 2,21,-1
 312 694 l 2,22,23
 312 699 312 699 318 699 c 2,0,-1
EndSplineSet
EndChar

StartChar: K
Encoding: 75 75 48
Width: 450
GlyphClass: 2
Flags: W
LayerCount: 2
Fore
SplineSet
52 5 m 2,0,-1
 52 694 l 2,1,2
 52 699 52 699 57 699 c 2,3,-1
 134 699 l 2,4,5
 139 699 139 699 139 694 c 2,6,-1
 139 456 l 2,7,8
 139 451 139 451 145 451 c 0,9,10
 148 451 148 451 149 453 c 2,11,-1
 298 697 l 2,12,13
 299 699 299 699 302 699 c 2,14,-1
 392 699 l 2,15,16
 394 699 394 699 395 699 c 0,17,18
 400 696 400 696 397 691 c 2,19,-1
 190 352 l 2,20,21
 189 350 189 350 190 347 c 2,22,-1
 397 8 l 2,23,24
 398 7 398 7 398 5 c 0,25,26
 398 0 398 0 392 0 c 2,27,-1
 302 0 l 2,28,29
 299 0 299 0 298 3 c 2,30,-1
 149 246 l 2,31,32
 146 251 146 251 142 248 c 0,33,34
 139 247 139 247 139 244 c 2,35,-1
 139 5 l 1,36,37
 139 5 139 5 134 0 c 1,38,-1
 57 0 l 2,39,40
 52 0 52 0 52 5 c 2,0,-1
EndSplineSet
EndChar

StartChar: L
Encoding: 76 76 49
Width: 450
GlyphClass: 2
Flags: W
LayerCount: 2
Fore
SplineSet
132 699 m 2,0,1
 138 699 138 699 138 694 c 2,2,-1
 138 93 l 2,3,4
 138 87 138 87 143 87 c 2,5,-1
 395 87 l 2,6,7
 400 87 400 87 400 82 c 2,8,-1
 400 5 l 2,9,10
 400 0 400 0 395 0 c 2,11,-1
 55 0 l 2,12,13
 50 0 50 0 50 5 c 2,14,-1
 50 694 l 2,15,16
 50 699 50 699 55 699 c 2,17,-1
 132 699 l 2,0,1
EndSplineSet
EndChar

StartChar: M
Encoding: 77 77 50
Width: 450
GlyphClass: 2
Flags: W
LayerCount: 2
Fore
SplineSet
400 5 m 2,0,1
 400 0 400 0 395 0 c 2,2,-1
 318 0 l 2,3,4
 312 0 312 0 312 5 c 2,5,-1
 312 398 l 2,6,7
 312 404 312 404 307 404 c 0,8,9
 303 404 303 404 302 400 c 2,10,-1
 230 189 l 2,11,12
 229 187 229 187 227 186 c 0,13,14
 222 184 222 184 220 189 c 2,15,-1
 148 400 l 2,16,17
 146 405 146 405 141 403 c 0,18,19
 138 402 138 402 138 398 c 2,20,-1
 138 5 l 2,21,22
 138 0 138 0 132 0 c 2,23,-1
 55 0 l 2,24,25
 50 0 50 0 50 5 c 2,26,-1
 50 694 l 2,27,28
 50 699 50 699 55 699 c 2,29,-1
 134 699 l 2,30,31
 138 699 138 699 139 696 c 2,32,-1
 220 459 l 2,33,34
 222 454 222 454 227 456 c 0,35,36
 229 456 229 456 230 459 c 2,37,-1
 311 696 l 2,38,39
 312 699 312 699 316 699 c 2,40,-1
 395 699 l 2,41,42
 400 699 400 699 400 694 c 2,43,-1
 400 5 l 2,0,1
EndSplineSet
EndChar

StartChar: N
Encoding: 78 78 51
Width: 450
GlyphClass: 2
Flags: W
LayerCount: 2
Fore
SplineSet
50 5 m 2,0,-1
 50 694 l 2,1,2
 50 699 50 699 55 699 c 2,3,-1
 134 699 l 2,4,5
 138 699 138 699 139 696 c 2,6,-1
 302 270 l 2,7,8
 304 265 304 265 309 267 c 0,9,10
 312 269 312 269 312 272 c 2,11,-1
 312 694 l 2,12,13
 312 699 312 699 318 699 c 2,14,-1
 395 699 l 2,15,16
 400 699 400 699 400 694 c 2,17,-1
 400 5 l 2,18,19
 400 0 400 0 395 0 c 2,20,-1
 316 0 l 2,21,22
 312 0 312 0 311 3 c 2,23,-1
 148 429 l 2,24,25
 146 434 146 434 141 432 c 0,26,27
 138 431 138 431 138 427 c 2,28,-1
 138 5 l 2,29,30
 138 0 138 0 132 0 c 2,31,-1
 55 0 l 2,32,33
 50 0 50 0 50 5 c 2,0,-1
EndSplineSet
EndChar

StartChar: O
Encoding: 79 79 52
Width: 450
GlyphClass: 2
Flags: W
LayerCount: 2
Fore
SplineSet
225 699 m 128,-1,1
 297 699 297 699 348.5 648 c 128,-1,2
 400 597 400 597 400 525 c 2,3,-1
 400 175 l 2,4,5
 400 102 400 102 348.5 51 c 128,-1,6
 297 0 297 0 225 0 c 128,-1,7
 153 0 153 0 101.5 51 c 128,-1,8
 50 102 50 102 50 175 c 2,9,-1
 50 525 l 2,10,11
 50 597 50 597 101.5 648 c 128,-1,0
 153 699 153 699 225 699 c 128,-1,1
225 612 m 128,-1,13
 189 612 189 612 163.5 586.5 c 128,-1,14
 138 561 138 561 138 525 c 2,15,-1
 138 175 l 2,16,17
 138 139 138 139 163.5 113 c 128,-1,18
 189 87 189 87 225 87 c 128,-1,19
 261 87 261 87 286.5 113 c 128,-1,20
 312 139 312 139 312 175 c 2,21,-1
 312 525 l 2,22,23
 312 561 312 561 286.5 586.5 c 128,-1,12
 261 612 261 612 225 612 c 128,-1,13
EndSplineSet
EndChar

StartChar: P
Encoding: 80 80 53
Width: 450
GlyphClass: 2
Flags: W
LayerCount: 2
Fore
SplineSet
55 699 m 2,0,-1
 190 699 l 2,1,2
 277 699 277 699 338.5 638 c 128,-1,3
 400 577 400 577 400 490 c 128,-1,4
 400 403 400 403 338.5 341.5 c 128,-1,5
 277 280 277 280 190 280 c 2,6,-1
 143 280 l 2,7,8
 138 280 138 280 138 275 c 2,9,-1
 138 5 l 2,10,11
 138 0 138 0 132 0 c 2,12,-1
 55 0 l 2,13,14
 50 0 50 0 50 5 c 2,15,-1
 50 694 l 2,16,17
 50 699 50 699 55 699 c 2,0,-1
143 612 m 2,18,19
 138 612 138 612 138 607 c 2,20,-1
 138 372 l 2,21,22
 138 367 138 367 143 367 c 2,23,-1
 190 367 l 2,24,25
 241 367 241 367 277 403 c 128,-1,26
 313 439 313 439 313 489.5 c 128,-1,27
 313 540 313 540 277 576 c 128,-1,28
 241 612 241 612 190 612 c 2,29,-1
 143 612 l 2,18,19
EndSplineSet
EndChar

StartChar: Q
Encoding: 81 81 54
Width: 450
GlyphClass: 2
Flags: W
LayerCount: 2
Fore
SplineSet
224 699 m 0,0,1
 297 700 297 700 348.5 649 c 128,-1,2
 400 598 400 598 400 525 c 2,3,-1
 400 176 l 2,4,5
 400 126 400 126 374 83 c 0,6,7
 373 81 373 81 373 79 c 2,8,-1
 398 7 l 2,9,10
 398 6 398 6 398 5 c 0,11,12
 398 0 398 0 393 0 c 2,13,-1
 311 0 l 2,14,15
 308 0 308 0 306 4 c 2,16,-1
 304 12 l 2,17,18
 302 17 302 17 297 15 c 2,19,20
 297 15 297 15 296 15 c 0,21,22
 262 0 262 0 225 0 c 0,23,24
 153 0 153 0 101.5 51 c 128,-1,25
 50 102 50 102 50 175 c 2,26,-1
 50 525 l 2,27,28
 50 597 50 597 101 648 c 128,-1,29
 152 699 152 699 224 699 c 0,0,1
225 612 m 128,-1,31
 189 612 189 612 163.5 586.5 c 128,-1,32
 138 561 138 561 138 525 c 2,33,-1
 138 175 l 2,34,35
 138 139 138 139 163.5 113 c 128,-1,36
 189 87 189 87 225 87 c 128,-1,37
 261 87 261 87 286.5 113 c 128,-1,38
 312 139 312 139 312 175 c 2,39,-1
 312 525 l 2,40,41
 312 561 312 561 286.5 586.5 c 128,-1,30
 261 612 261 612 225 612 c 128,-1,31
EndSplineSet
EndChar

StartChar: R
Encoding: 82 82 55
Width: 450
GlyphClass: 2
Flags: W
LayerCount: 2
Fore
SplineSet
55 699 m 2,0,-1
 190 699 l 2,1,2
 245 699 245 699 292.5 672.5 c 128,-1,3
 340 646 340 646 369 599 c 0,4,5
 398 551 398 551 399.5 495 c 128,-1,6
 401 439 401 439 375 390 c 128,-1,7
 349 341 349 341 300 311 c 0,8,9
 296 308 296 308 298 305 c 2,10,-1
 397 7 l 2,11,12
 398 6 398 6 398 5 c 0,13,14
 398 0 398 0 392 0 c 2,15,-1
 311 0 l 2,16,17
 308 0 308 0 306 3 c 2,18,-1
 215 277 l 2,19,20
 214 281 214 281 209 280 c 0,21,22
 200 279 200 279 190 279 c 2,23,-1
 143 279 l 2,24,25
 137 279 137 279 137 274 c 2,26,-1
 137 5 l 1,27,28
 137 5 137 5 132 0 c 1,29,-1
 55 0 l 2,30,31
 50 0 50 0 50 5 c 2,32,-1
 50 694 l 2,33,34
 50 699 50 699 55 699 c 2,0,-1
143 611 m 2,35,36
 138 611 138 611 138 606 c 2,37,-1
 138 372 l 2,38,39
 138 367 138 367 143 367 c 2,40,-1
 190 367 l 2,41,42
 241 367 241 367 277 402.5 c 128,-1,43
 313 438 313 438 313 489 c 128,-1,44
 313 540 313 540 277 575.5 c 128,-1,45
 241 611 241 611 190 611 c 2,46,-1
 143 611 l 2,35,36
EndSplineSet
EndChar

StartChar: S
Encoding: 83 83 56
Width: 450
GlyphClass: 2
Flags: W
LayerCount: 2
Fore
SplineSet
400 530 m 0,0,1
 398 602 398 602 345 652 c 128,-1,2
 292 702 292 702 219.5 699.5 c 128,-1,3
 147 697 147 697 97.5 644.5 c 128,-1,4
 48 592 48 592 50 519 c 0,5,6
 51 483 51 483 66.5 450 c 128,-1,7
 82 417 82 417 109 393 c 2,8,-1
 283 240 l 2,9,10
 310 216 310 216 312 180 c 256,11,12
 314 144 314 144 290 117 c 128,-1,13
 266 90 266 90 230 87.5 c 128,-1,14
 194 85 194 85 167 109.5 c 128,-1,15
 140 134 140 134 138 170 c 0,16,17
 137 175 137 175 132 175 c 2,18,-1
 55 175 l 2,19,20
 50 175 50 175 50 170 c 0,21,22
 52 97 52 97 105 47.5 c 128,-1,23
 158 -2 158 -2 230.5 0 c 128,-1,24
 303 2 303 2 352.5 55 c 128,-1,25
 402 108 402 108 400 180 c 0,26,27
 399 216 399 216 383.5 249 c 128,-1,28
 368 282 368 282 341 306 c 2,29,-1
 167 459 l 2,30,31
 140 483 140 483 138 520 c 0,32,33
 136 556 136 556 160 583 c 128,-1,34
 184 610 184 610 220 612 c 128,-1,35
 256 614 256 614 283 590 c 128,-1,36
 310 566 310 566 312 529 c 0,37,38
 313 525 313 525 318 525 c 2,39,-1
 395 525 l 2,40,41
 400 525 400 525 400 530 c 0,0,1
EndSplineSet
EndChar

StartChar: T
Encoding: 84 84 57
Width: 450
GlyphClass: 2
Flags: W
LayerCount: 2
Fore
SplineSet
269 607 m 2,0,1
 269 612 269 612 274 612 c 2,2,-1
 395 612 l 2,3,4
 400 612 400 612 400 617 c 2,5,-1
 400 694 l 2,6,7
 400 699 400 699 395 699 c 2,8,-1
 55 699 l 2,9,10
 50 699 50 699 50 694 c 2,11,-1
 50 617 l 2,12,13
 50 612 50 612 55 612 c 2,14,-1
 176 612 l 2,15,16
 181 612 181 612 181 607 c 2,17,-1
 181 5 l 2,18,19
 181 0 181 0 187 0 c 2,20,-1
 263 0 l 2,21,22
 269 0 269 0 269 5 c 2,23,-1
 269 607 l 2,0,1
EndSplineSet
EndChar

StartChar: U
Encoding: 85 85 58
Width: 450
GlyphClass: 2
Flags: W
LayerCount: 2
Fore
SplineSet
400 175 m 2,0,1
 400 102 400 102 348.5 51 c 128,-1,2
 297 0 297 0 225 0 c 128,-1,3
 153 0 153 0 101.5 51 c 128,-1,4
 50 102 50 102 50 175 c 2,5,-1
 50 694 l 2,6,7
 50 699 50 699 55 699 c 2,8,-1
 132 699 l 2,9,10
 138 699 138 699 138 694 c 2,11,-1
 138 175 l 2,12,13
 138 139 138 139 163.5 113 c 128,-1,14
 189 87 189 87 225 87 c 128,-1,15
 261 87 261 87 286.5 113 c 128,-1,16
 312 139 312 139 312 175 c 2,17,-1
 312 694 l 2,18,19
 312 699 312 699 318 699 c 2,20,-1
 395 699 l 2,21,22
 400 699 400 699 400 694 c 2,23,-1
 400 175 l 2,0,1
EndSplineSet
EndChar

StartChar: V
Encoding: 86 86 59
Width: 450
GlyphClass: 2
Flags: W
LayerCount: 2
Fore
SplineSet
188 4 m 2,0,-1
 51 693 l 2,1,2
 51 694 51 694 51 694 c 2,3,4
 51 699 51 699 56 699 c 2,5,-1
 133 699 l 2,6,7
 137 699 137 699 138 695 c 2,8,-1
 225 261 l 2,9,10
 226 255 226 255 231 256 c 0,11,12
 234 257 234 257 235 261 c 2,13,-1
 312 695 l 2,14,15
 312 699 312 699 317 699 c 2,16,-1
 394 699 l 1,17,18
 394 699 394 699 394 699 c 1,19,20
 400 698 400 698 399 693 c 2,21,-1
 277 4 l 2,22,23
 277 0 277 0 272 0 c 2,24,-1
 193 0 l 2,25,26
 189 0 189 0 188 4 c 2,0,-1
EndSplineSet
EndChar

StartChar: W
Encoding: 87 87 60
Width: 450
GlyphClass: 2
Flags: W
LayerCount: 2
Fore
SplineSet
56 699 m 2,0,1
 50 699 50 699 50 694 c 1,2,3
 50 694 50 694 50 694 c 1,4,-1
 94 5 l 2,5,6
 94 0 94 0 99 0 c 2,7,-1
 177 0 l 2,8,9
 181 0 181 0 182 4 c 2,10,-1
 220 136 l 2,11,12
 221 139 221 139 224 139 c 0,13,14
 229 141 229 141 230 136 c 2,15,-1
 268 4 l 2,16,17
 269 0 269 0 273 0 c 2,18,-1
 351 0 l 2,19,20
 356 0 356 0 356 5 c 2,21,-1
 400 694 l 2,22,23
 400 699 400 699 395 699 c 2,24,-1
 317 699 l 2,25,26
 312 699 312 699 312 695 c 2,27,-1
 287 293 l 2,28,29
 287 289 287 289 283 288 c 0,30,31
 278 287 278 287 277 292 c 2,32,-1
 230 455 l 2,33,34
 229 460 229 460 224 459 c 0,35,36
 221 458 221 458 220 455 c 2,37,-1
 173 292 l 2,38,39
 172 288 172 288 169 288 c 0,40,41
 163 288 163 288 163 293 c 2,42,-1
 138 695 l 2,43,44
 138 699 138 699 133 699 c 2,45,-1
 56 699 l 2,0,1
EndSplineSet
EndChar

StartChar: X
Encoding: 88 88 61
Width: 450
GlyphClass: 2
Flags: W
LayerCount: 2
Fore
SplineSet
154 351 m 1,0,-1
 52 693 l 1,1,2
 52 693 52 693 52 694 c 0,3,4
 52 699 52 699 57 699 c 2,5,-1
 137 699 l 2,6,7
 141 699 141 699 143 696 c 2,8,-1
 220 436 l 2,9,10
 221 431 221 431 227 433 c 0,11,12
 229 434 229 434 230 436 c 2,13,-1
 307 696 l 2,14,15
 309 699 309 699 313 699 c 2,16,-1
 393 699 l 2,17,18
 394 699 394 699 394 699 c 2,19,20
 399 698 399 698 398 693 c 2,21,-1
 296 351 l 2,22,23
 295 350 295 350 296 348 c 2,24,-1
 398 7 l 2,25,26
 398 6 398 6 398 5 c 0,27,28
 398 0 398 0 393 0 c 2,29,-1
 313 0 l 2,30,31
 309 0 309 0 307 4 c 2,32,-1
 230 263 l 2,33,34
 229 268 229 268 224 266 c 0,35,36
 221 266 221 266 220 263 c 2,37,-1
 143 4 l 2,38,39
 141 0 141 0 137 0 c 2,40,-1
 57 0 l 2,41,42
 56 0 56 0 56 0 c 2,43,44
 51 2 51 2 52 7 c 2,45,-1
 154 348 l 1,46,-1
 154 351 l 1,0,-1
154 348 m 1,47,48
 155 350 155 350 154 351 c 1,49,-1
 154 348 l 1,47,48
EndSplineSet
EndChar

StartChar: Y
Encoding: 89 89 62
Width: 450
GlyphClass: 2
Flags: W
LayerCount: 2
Fore
SplineSet
58 0 m 2,0,1
 57 0 57 0 56 0 c 0,2,3
 51 2 51 2 53 7 c 2,4,-1
 158 293 l 2,5,6
 158 294 158 294 158 296 c 2,7,-1
 52 693 l 2,8,9
 52 694 52 694 52 694 c 2,10,11
 52 699 52 699 57 699 c 2,12,-1
 137 699 l 2,13,14
 141 699 141 699 142 696 c 2,15,-1
 206 453 l 2,16,17
 208 448 208 448 213 449 c 0,18,19
 216 450 216 450 216 453 c 2,20,-1
 306 696 l 2,21,22
 307 699 307 699 311 699 c 2,23,-1
 393 699 l 2,24,25
 394 699 394 699 394 699 c 2,26,27
 399 697 399 697 398 692 c 2,28,-1
 145 3 l 1,29,30
 145 3 145 3 140 0 c 2,31,-1
 58 0 l 2,0,1
EndSplineSet
EndChar

StartChar: Z
Encoding: 90 90 63
Width: 450
GlyphClass: 2
Flags: W
LayerCount: 2
Fore
SplineSet
395 87 m 2,0,1
 400 87 400 87 400 82 c 2,2,-1
 400 5 l 2,3,4
 400 0 400 0 395 0 c 2,5,-1
 55 0 l 2,6,7
 50 0 50 0 50 5 c 2,8,-1
 50 86 l 2,9,10
 50 87 50 87 51 89 c 2,11,-1
 299 605 l 2,12,13
 301 609 301 609 297 612 c 0,14,15
 296 612 296 612 294 612 c 2,16,-1
 55 612 l 2,17,18
 50 612 50 612 50 617 c 2,19,-1
 50 694 l 2,20,21
 50 699 50 699 55 699 c 2,22,-1
 395 699 l 2,23,24
 400 699 400 699 400 694 c 2,25,-1
 400 613 l 2,26,27
 400 612 400 612 399 611 c 2,28,-1
 151 95 l 2,29,30
 149 90 149 90 153 88 c 0,31,32
 154 87 154 87 156 87 c 2,33,-1
 395 87 l 2,0,1
EndSplineSet
EndChar

StartChar: bracketleft
Encoding: 91 91 64
Width: 450
GlyphClass: 2
Flags: W
LayerCount: 2
Fore
SplineSet
316 0 m 2,0,-1
 134 0 l 2,1,2
 127 0 127 0 127 7 c 2,3,-1
 127 693 l 2,4,5
 127 700 127 700 134 700 c 2,6,-1
 316 700 l 2,7,8
 323 700 323 700 323 693 c 2,9,-1
 323 615 l 2,10,11
 323 608 323 608 316 608 c 2,12,-1
 224 608 l 2,13,14
 217 608 217 608 217 601 c 2,15,-1
 217 100 l 2,16,17
 217 93 217 93 224 93 c 2,18,-1
 316 93 l 2,19,20
 323 93 323 93 323 86 c 2,21,-1
 323 7 l 2,22,23
 323 0 323 0 316 0 c 2,0,-1
EndSplineSet
EndChar

StartChar: backslash
Encoding: 92 92 65
Width: 450
GlyphClass: 2
Flags: W
LayerCount: 2
Fore
SplineSet
310 0 m 2,0,-1
 390 0 l 1,1,-1
 392 0 l 2,2,3
 399 2 399 2 397 9 c 2,4,-1
 156 695 l 2,5,6
 155 699 155 699 150 699 c 2,7,-1
 70 699 l 1,8,-1
 68 699 l 2,9,10
 61 697 61 697 63 690 c 2,11,-1
 303 4 l 2,12,13
 304 0 304 0 310 0 c 2,0,-1
EndSplineSet
EndChar

StartChar: bracketright
Encoding: 93 93 66
Width: 450
GlyphClass: 2
Flags: W
LayerCount: 2
Fore
SplineSet
134 0 m 2,0,-1
 316 0 l 2,1,2
 323 0 323 0 323 7 c 2,3,-1
 323 693 l 2,4,5
 323 700 323 700 316 700 c 2,6,-1
 134 700 l 2,7,8
 127 700 127 700 127 693 c 2,9,-1
 127 615 l 2,10,11
 127 608 127 608 134 608 c 2,12,-1
 226 608 l 2,13,14
 233 608 233 608 233 601 c 2,15,-1
 233 100 l 2,16,17
 233 93 233 93 226 93 c 2,18,-1
 134 93 l 2,19,20
 127 93 127 93 127 86 c 2,21,-1
 127 7 l 2,22,23
 127 0 127 0 134 0 c 2,0,-1
EndSplineSet
EndChar

StartChar: asciicircum
Encoding: 94 94 67
Width: 450
GlyphClass: 2
Flags: W
LayerCount: 2
Fore
SplineSet
269 847 m 2,0,1
 271 847 271 847 272 846 c 2,2,-1
 361 734 l 2,3,4
 362 732 362 732 361 729.5 c 128,-1,5
 360 727 360 727 357 727 c 2,6,-1
 280 727 l 2,7,8
 278 727 278 727 276 728 c 2,9,-1
 224 793 l 1,10,-1
 170 728 l 2,11,12
 168 727 168 727 166 727 c 2,13,-1
 89 727 l 2,14,15
 86 727 86 727 85 729.5 c 128,-1,16
 84 732 84 732 85 734 c 2,17,-1
 175 846 l 2,18,19
 177 847 177 847 179 847 c 2,20,-1
 269 847 l 2,0,1
EndSplineSet
EndChar

StartChar: underscore
Encoding: 95 95 68
Width: 450
GlyphClass: 2
Flags: W
LayerCount: 2
Fore
SplineSet
0 0 m 5,0,-1
 450 0 l 5,1,-1
 450 -58 l 5,2,-1
 0 -58 l 5,3,-1
 0 0 l 5,0,-1
EndSplineSet
EndChar

StartChar: grave
Encoding: 96 96 69
Width: 450
GlyphClass: 2
Flags: W
LayerCount: 2
Fore
SplineSet
136 800 m 1,0,-1
 225 800 l 1,1,-1
 314 667 l 1,2,-1
 247 667 l 1,3,-1
 136 800 l 1,0,-1
EndSplineSet
EndChar

StartChar: a
Encoding: 97 97 70
Width: 492
GlyphClass: 2
Flags: W
LayerCount: 2
Fore
SplineSet
220 532 m 2,0,-1
 246 532 l 2,1,2
 310 531 310 531 355.5 486 c 128,-1,3
 401 441 401 441 401 376 c 2,4,-1
 401 354 l 1,5,6
 401 354 401 354 401 353 c 2,7,-1
 401 133 l 2,8,9
 401 115 401 115 414 102 c 128,-1,10
 427 89 427 89 445 89 c 1,11,-1
 445 0 l 1,12,13
 389 0 389 0 350 40 c 1,14,15
 306 0 306 0 246 0 c 2,16,-1
 202 0 l 2,17,18
 138 0 138 0 92.5 45.5 c 128,-1,19
 47 91 47 91 47 155 c 128,-1,20
 47 219 47 219 92.5 264.5 c 128,-1,21
 138 310 138 310 202 310 c 2,22,-1
 268 310 l 2,23,24
 286 310 286 310 299 323 c 128,-1,25
 312 336 312 336 312 354 c 2,26,-1
 312 376 l 2,27,28
 312 404 312 404 292.5 423.5 c 128,-1,29
 273 443 273 443 246 443 c 2,30,-1
 224 443 l 2,31,32
 196 443 196 443 176.5 423.5 c 128,-1,33
 157 404 157 404 157 377 c 2,34,-1
 157 354 l 1,35,-1
 69 354 l 1,36,-1
 69 377 l 2,37,38
 69 440 69 440 113 485 c 128,-1,39
 157 530 157 530 220 532 c 2,0,-1
312 229 m 1,40,41
 291 221 291 221 268 221 c 2,42,-1
 202 221 l 2,43,44
 174 221 174 221 154.5 201.5 c 128,-1,45
 135 182 135 182 135 154.5 c 128,-1,46
 135 127 135 127 154.5 108 c 128,-1,47
 174 89 174 89 202 89 c 2,48,-1
 246 89 l 2,49,50
 274 89 274 89 293 108 c 128,-1,51
 312 127 312 127 312 155 c 2,52,-1
 312 229 l 1,40,41
EndSplineSet
EndChar

StartChar: b
Encoding: 98 98 71
Width: 450
GlyphClass: 2
Flags: W
LayerCount: 2
Fore
SplineSet
48 709 m 1,0,-1
 137 709 l 1,1,-1
 137 508 l 1,2,3
 177 532 177 532 225 532 c 0,4,5
 298 532 298 532 350 480 c 128,-1,6
 402 428 402 428 402 354 c 2,7,-1
 402 178 l 2,8,9
 402 104 402 104 350.5 52 c 128,-1,10
 299 0 299 0 225 0 c 0,11,12
 178 0 178 0 137 24 c 1,13,-1
 137 0 l 1,14,-1
 48 0 l 1,15,-1
 48 177 l 1,16,-1
 48 354 l 1,17,-1
 48 709 l 1,0,-1
225 443 m 128,-1,19
 188 443 188 443 162.5 417 c 128,-1,20
 137 391 137 391 137 354 c 2,21,-1
 137 177 l 2,22,23
 137 141 137 141 162.5 115 c 128,-1,24
 188 89 188 89 225 89 c 128,-1,25
 262 89 262 89 288 115 c 128,-1,26
 314 141 314 141 314 177 c 2,27,-1
 314 354 l 2,28,29
 314 391 314 391 288 417 c 128,-1,18
 262 443 262 443 225 443 c 128,-1,19
EndSplineSet
EndChar

StartChar: c
Encoding: 99 99 72
Width: 450
GlyphClass: 2
Flags: W
LayerCount: 2
Fore
SplineSet
224.5 531 m 128,-1,1
 298 531 298 531 350 479.5 c 128,-1,2
 402 428 402 428 402 354 c 1,3,-1
 313 354 l 1,4,5
 313 391 313 391 287.5 417 c 128,-1,6
 262 443 262 443 225 443 c 128,-1,7
 188 443 188 443 162 417 c 128,-1,8
 136 391 136 391 136 354 c 2,9,-1
 136 177 l 2,10,11
 136 140 136 140 162 114.5 c 128,-1,12
 188 89 188 89 225 89 c 128,-1,13
 262 89 262 89 287.5 115 c 128,-1,14
 313 141 313 141 313 177 c 2,15,-1
 313 178 l 1,16,-1
 402 178 l 1,17,-1
 402 177 l 2,18,19
 402 104 402 104 350 52 c 128,-1,20
 298 0 298 0 224.5 0 c 128,-1,21
 151 0 151 0 99.5 52 c 128,-1,22
 48 104 48 104 48 177 c 2,23,-1
 48 354 l 2,24,25
 48 428 48 428 99.5 479.5 c 128,-1,0
 151 531 151 531 224.5 531 c 128,-1,1
EndSplineSet
EndChar

StartChar: d
Encoding: 100 100 73
Width: 450
GlyphClass: 2
Flags: W
LayerCount: 2
Fore
SplineSet
402 709 m 1,0,-1
 402 0 l 1,1,-1
 313 0 l 1,2,-1
 313 24 l 1,3,4
 272 0 272 0 225 0 c 0,5,6
 151 0 151 0 99.5 52 c 128,-1,7
 48 104 48 104 48 178 c 2,8,-1
 48 354 l 2,9,10
 48 428 48 428 100 480 c 128,-1,11
 152 532 152 532 225 532 c 0,12,13
 273 532 273 532 313 508 c 1,14,-1
 313 709 l 1,15,-1
 402 709 l 1,0,-1
225 443 m 128,-1,17
 188 443 188 443 162 417 c 128,-1,18
 136 391 136 391 136 354 c 2,19,-1
 136 177 l 2,20,21
 136 140 136 140 162 114.5 c 128,-1,22
 188 89 188 89 225 89 c 128,-1,23
 262 89 262 89 287.5 115 c 128,-1,24
 313 141 313 141 313 177 c 2,25,-1
 313 354 l 2,26,27
 313 391 313 391 287.5 417 c 128,-1,16
 262 443 262 443 225 443 c 128,-1,17
EndSplineSet
EndChar

StartChar: e
Encoding: 101 101 74
Width: 450
GlyphClass: 2
Flags: W
LayerCount: 2
Fore
SplineSet
224.5 532 m 128,-1,1
 298 532 298 532 350 480 c 128,-1,2
 402 428 402 428 402 354 c 2,3,-1
 402 310 l 1,4,-1
 402 222 l 1,5,-1
 136 222 l 1,6,-1
 136 177 l 2,7,8
 136 141 136 141 162 115 c 128,-1,9
 188 89 188 89 225 89 c 0,10,11
 254 89 254 89 277.5 106 c 128,-1,12
 301 123 301 123 309 150 c 1,13,-1
 390 112 l 1,14,15
 370 62 370 62 325 31 c 128,-1,16
 280 0 280 0 225 0 c 0,17,18
 151 0 151 0 99.5 52 c 128,-1,19
 48 104 48 104 48 177 c 2,20,-1
 48 354 l 2,21,22
 48 428 48 428 99.5 480 c 128,-1,0
 151 532 151 532 224.5 532 c 128,-1,1
225 443 m 128,-1,24
 188 443 188 443 162 417 c 128,-1,25
 136 391 136 391 136 354 c 2,26,-1
 136 310 l 1,27,-1
 313 310 l 1,28,-1
 313 354 l 2,29,30
 313 391 313 391 287.5 417 c 128,-1,23
 262 443 262 443 225 443 c 128,-1,24
EndSplineSet
EndChar

StartChar: f
Encoding: 102 102 75
Width: 450
GlyphClass: 2
Flags: W
LayerCount: 2
Fore
SplineSet
269 709 m 128,-1,1
 324 709 324 709 363 670 c 128,-1,2
 402 631 402 631 402 576 c 1,3,-1
 374 576 l 1,4,-1
 313 576 l 1,5,6
 313 594 313 594 300 607 c 128,-1,7
 287 620 287 620 269 620 c 128,-1,8
 251 620 251 620 238 607 c 128,-1,9
 225 594 225 594 225 576 c 2,10,-1
 225 443 l 1,11,-1
 358 443 l 1,12,-1
 358 354 l 1,13,-1
 225 354 l 1,14,-1
 225 0 l 1,15,-1
 136 0 l 1,16,-1
 136 354 l 1,17,-1
 48 354 l 1,18,-1
 48 443 l 1,19,-1
 136 443 l 1,20,-1
 136 576 l 2,21,22
 136 631 136 631 175 670 c 128,-1,0
 214 709 214 709 269 709 c 128,-1,1
EndSplineSet
EndChar

StartChar: g
Encoding: 103 103 76
Width: 450
GlyphClass: 2
Flags: W
LayerCount: 2
Fore
SplineSet
225 532 m 2,0,-1
 402 531 l 1,1,-1
 402 443 l 1,2,-1
 379 443 l 1,3,4
 402 402 402 402 402 355 c 1,5,-1
 313 355 l 1,6,7
 313 391 313 391 287 417 c 128,-1,8
 261 443 261 443 224.5 443 c 128,-1,9
 188 443 188 443 162 417 c 128,-1,10
 136 391 136 391 136 354.5 c 128,-1,11
 136 318 136 318 162 292 c 128,-1,12
 188 266 188 266 224.5 266 c 128,-1,13
 261 266 261 266 287 292 c 128,-1,14
 313 318 313 318 313 355 c 1,15,-1
 402 355 l 1,16,17
 402 282 402 282 350.5 229.5 c 128,-1,18
 299 177 299 177 225 177 c 0,19,20
 206 177 206 177 193 164 c 128,-1,21
 180 151 180 151 180 133 c 128,-1,22
 180 115 180 115 193 102 c 128,-1,23
 206 89 206 89 225 89 c 2,24,-1
 269 89 l 2,25,26
 324 89 324 89 363 50 c 128,-1,27
 402 11 402 11 402 -44 c 1,28,-1
 313 -44 l 1,29,30
 313 -26 313 -26 300 -13 c 128,-1,31
 287 0 287 0 269 0 c 2,32,-1
 180 0 l 2,33,34
 162 0 162 0 149 -13 c 128,-1,35
 136 -26 136 -26 136 -44.5 c 128,-1,36
 136 -63 136 -63 149 -76 c 128,-1,37
 162 -89 162 -89 180 -89 c 2,38,-1
 269 -89 l 2,39,40
 287 -89 287 -89 300 -75.5 c 128,-1,41
 313 -62 313 -62 313 -44 c 1,42,-1
 402 -44 l 1,43,44
 402 -99 402 -99 363 -138 c 128,-1,45
 324 -177 324 -177 269 -177 c 2,46,-1
 180 -177 l 2,47,48
 125 -177 125 -177 86.5 -138 c 128,-1,49
 48 -99 48 -99 48 -44 c 0,50,51
 48 29 48 29 109 68 c 1,52,53
 92 98 92 98 92 133 c 0,54,55
 92 177 92 177 119 213 c 1,56,57
 48 266 48 266 48 354 c 0,58,59
 48 428 48 428 99.5 479.5 c 128,-1,60
 151 531 151 531 225 532 c 2,0,-1
EndSplineSet
EndChar

StartChar: h
Encoding: 104 104 77
Width: 450
GlyphClass: 2
Flags: W
LayerCount: 2
Fore
SplineSet
48 709 m 1,0,-1
 136 709 l 1,1,-1
 136 508 l 1,2,3
 177 532 177 532 225 532 c 0,4,5
 298 532 298 532 350 480 c 128,-1,6
 402 428 402 428 402 354 c 2,7,-1
 402 0 l 1,8,-1
 313 0 l 1,9,-1
 313 354 l 2,10,11
 313 391 313 391 287.5 417 c 128,-1,12
 262 443 262 443 225 443 c 128,-1,13
 188 443 188 443 162 417 c 128,-1,14
 136 391 136 391 136 354 c 2,15,-1
 136 0 l 1,16,-1
 48 0 l 1,17,-1
 48 709 l 1,0,-1
EndSplineSet
EndChar

StartChar: i
Encoding: 105 105 78
Width: 261
GlyphClass: 2
Flags: W
LayerCount: 2
Fore
SplineSet
108.5 709 m 128,-1,1
 127 709 127 709 140 696 c 128,-1,2
 153 683 153 683 153 664.5 c 128,-1,3
 153 646 153 646 140 633 c 128,-1,4
 127 620 127 620 108.5 620 c 128,-1,5
 90 620 90 620 77 633 c 128,-1,6
 64 646 64 646 64 664.5 c 128,-1,7
 64 683 64 683 77 696 c 128,-1,0
 90 709 90 709 108.5 709 c 128,-1,1
64 532 m 1,8,-1
 153 532 l 1,9,-1
 153 133 l 2,10,11
 153 115 153 115 166 102 c 128,-1,12
 179 89 179 89 197 89 c 1,13,-1
 197 0 l 1,14,15
 142 0 142 0 103 39 c 128,-1,16
 64 78 64 78 64 133 c 2,17,-1
 64 532 l 1,8,-1
EndSplineSet
EndChar

StartChar: j
Encoding: 106 106 79
Width: 450
GlyphClass: 2
Flags: W
LayerCount: 2
Fore
SplineSet
313.5 708 m 128,-1,1
 332 708 332 708 345 695.5 c 128,-1,2
 358 683 358 683 358 664 c 1,3,-1
 314 664 l 1,4,-1
 358 664 l 1,5,6
 358 646 358 646 345 633 c 128,-1,7
 332 620 332 620 313.5 620 c 128,-1,8
 295 620 295 620 282.5 633 c 128,-1,9
 270 646 270 646 270 664.5 c 128,-1,10
 270 683 270 683 282.5 695.5 c 128,-1,0
 295 708 295 708 313.5 708 c 128,-1,1
269 532 m 1,11,-1
 358 532 l 1,12,-1
 358 -44 l 2,13,14
 358 -99 358 -99 319 -138 c 128,-1,15
 280 -177 280 -177 225 -177 c 128,-1,16
 170 -177 170 -177 131.5 -138 c 128,-1,17
 93 -99 93 -99 93 -44 c 1,18,-1
 181 -44 l 1,19,20
 181 -63 181 -63 194 -76 c 128,-1,21
 207 -89 207 -89 225.5 -89 c 128,-1,22
 244 -89 244 -89 257 -76 c 128,-1,23
 270 -63 270 -63 270 -44 c 2,24,-1
 269 532 l 1,11,-1
EndSplineSet
EndChar

StartChar: k
Encoding: 107 107 80
Width: 450
GlyphClass: 2
Flags: W
LayerCount: 2
Fore
SplineSet
48 709 m 1,0,-1
 137 709 l 1,1,-1
 137 248 l 1,2,-1
 300 532 l 1,3,-1
 402 532 l 1,4,-1
 249 266 l 1,5,-1
 402 0 l 1,6,-1
 300 0 l 1,7,-1
 198 177 l 1,8,-1
 137 71 l 1,9,-1
 137 0 l 1,10,-1
 48 0 l 1,11,-1
 48 709 l 1,0,-1
EndSplineSet
EndChar

StartChar: l
Encoding: 108 108 81
Width: 272
GlyphClass: 2
Flags: W
LayerCount: 2
Fore
SplineSet
48 709 m 1,0,-1
 136 709 l 1,1,-1
 136 133 l 2,2,3
 136 115 136 115 149 102 c 128,-1,4
 162 89 162 89 181 89 c 2,5,-1
 225 89 l 1,6,-1
 225 0 l 1,7,-1
 181 0 l 2,8,9
 126 0 126 0 87 39 c 128,-1,10
 48 78 48 78 48 133 c 2,11,-1
 48 709 l 1,0,-1
EndSplineSet
EndChar

StartChar: m
Encoding: 109 109 82
Width: 714
GlyphClass: 2
Flags: W
LayerCount: 2
Fore
SplineSet
47 532 m 1,0,-1
 136 532 l 1,1,-1
 136 508 l 1,2,3
 177 532 177 532 224 532 c 0,4,5
 304 532 304 532 357 472 c 1,6,7
 410 532 410 532 490 532 c 0,8,9
 563 532 563 532 615 480 c 128,-1,10
 667 428 667 428 667 354 c 2,11,-1
 667 0 l 1,12,-1
 578 0 l 1,13,-1
 578 201 l 1,14,-1
 578 354 l 2,15,16
 578 391 578 391 552.5 417 c 128,-1,17
 527 443 527 443 490 443 c 128,-1,18
 453 443 453 443 427 417 c 128,-1,19
 401 391 401 391 401 354 c 2,20,-1
 401 0 l 1,21,-1
 313 0 l 1,22,-1
 313 201 l 1,23,-1
 313 354 l 2,24,25
 313 391 313 391 287 417 c 128,-1,26
 261 443 261 443 224.5 443 c 128,-1,27
 188 443 188 443 162 417 c 128,-1,28
 136 391 136 391 136 354 c 2,29,-1
 136 201 l 1,30,-1
 136 0 l 1,31,-1
 47 0 l 1,32,-1
 47 354 l 1,33,-1
 47 532 l 1,0,-1
EndSplineSet
EndChar

StartChar: n
Encoding: 110 110 83
Width: 450
GlyphClass: 2
Flags: W
LayerCount: 2
Fore
SplineSet
48 532 m 1,0,-1
 136 532 l 1,1,-1
 136 508 l 1,2,3
 177 532 177 532 225 532 c 0,4,5
 298 532 298 532 350 480 c 128,-1,6
 402 428 402 428 402 354 c 2,7,-1
 402 0 l 1,8,-1
 313 0 l 1,9,-1
 313 201 l 1,10,-1
 313 354 l 2,11,12
 313 391 313 391 287.5 417 c 128,-1,13
 262 443 262 443 225 443 c 128,-1,14
 188 443 188 443 162 417 c 128,-1,15
 136 391 136 391 136 354 c 2,16,-1
 136 201 l 1,17,-1
 136 0 l 1,18,-1
 48 0 l 1,19,-1
 48 354 l 1,20,-1
 48 532 l 1,0,-1
EndSplineSet
EndChar

StartChar: o
Encoding: 111 111 84
Width: 450
GlyphClass: 2
Flags: W
LayerCount: 2
Fore
SplineSet
224.5 532 m 128,-1,1
 298 532 298 532 350 480 c 128,-1,2
 402 428 402 428 402 354 c 2,3,-1
 402 177 l 2,4,5
 402 104 402 104 350 52 c 128,-1,6
 298 0 298 0 224.5 0 c 128,-1,7
 151 0 151 0 99.5 52 c 128,-1,8
 48 104 48 104 48 177 c 2,9,-1
 48 354 l 2,10,11
 48 428 48 428 99.5 480 c 128,-1,0
 151 532 151 532 224.5 532 c 128,-1,1
225 443 m 128,-1,13
 188 443 188 443 162 417 c 128,-1,14
 136 391 136 391 136 354 c 2,15,-1
 136 177 l 2,16,17
 136 141 136 141 162 115 c 128,-1,18
 188 89 188 89 225 89 c 128,-1,19
 262 89 262 89 287.5 115 c 128,-1,20
 313 141 313 141 313 177 c 2,21,-1
 313 178 l 1,22,-1
 313 354 l 2,23,24
 313 391 313 391 287.5 417 c 128,-1,12
 262 443 262 443 225 443 c 128,-1,13
EndSplineSet
EndChar

StartChar: p
Encoding: 112 112 85
Width: 450
GlyphClass: 2
Flags: W
LayerCount: 2
Fore
SplineSet
48 -177 m 1,0,-1
 48 177 l 1,1,-1
 48 354 l 1,2,-1
 48 532 l 1,3,-1
 136 532 l 1,4,-1
 136 508 l 1,5,6
 177 532 177 532 225 532 c 0,7,8
 298 532 298 532 350 480 c 128,-1,9
 402 428 402 428 402 354 c 2,10,-1
 402 177 l 2,11,12
 402 104 402 104 350 52 c 128,-1,13
 298 0 298 0 225 0 c 0,14,15
 177 0 177 0 136 24 c 1,16,-1
 136 -177 l 1,17,-1
 48 -177 l 1,0,-1
225 89 m 128,-1,19
 262 89 262 89 287.5 114.5 c 128,-1,20
 313 140 313 140 313 177 c 2,21,-1
 313 354 l 2,22,23
 313 391 313 391 287.5 417 c 128,-1,24
 262 443 262 443 225 443 c 128,-1,25
 188 443 188 443 162 417 c 128,-1,26
 136 391 136 391 136 354 c 2,27,-1
 136 177 l 2,28,29
 136 140 136 140 162 114.5 c 128,-1,18
 188 89 188 89 225 89 c 128,-1,19
EndSplineSet
EndChar

StartChar: q
Encoding: 113 113 86
Width: 450
GlyphClass: 2
Flags: W
LayerCount: 2
Fore
SplineSet
402 -177 m 1,0,-1
 313 -177 l 1,1,-1
 313 24 l 1,2,3
 273 0 273 0 225 0 c 0,4,5
 152 0 152 0 100 52 c 128,-1,6
 48 104 48 104 48 177 c 2,7,-1
 48 354 l 2,8,9
 48 428 48 428 99.5 480 c 128,-1,10
 151 532 151 532 225 532 c 0,11,12
 272 532 272 532 313 508 c 1,13,-1
 313 532 l 1,14,-1
 402 532 l 1,15,-1
 402 354 l 1,16,-1
 402 177 l 1,17,-1
 402 -177 l 1,0,-1
225 89 m 128,-1,19
 262 89 262 89 287.5 114.5 c 128,-1,20
 313 140 313 140 313 177 c 2,21,-1
 313 354 l 2,22,23
 313 391 313 391 287.5 417 c 128,-1,24
 262 443 262 443 225 443 c 128,-1,25
 188 443 188 443 162 417 c 128,-1,26
 136 391 136 391 136 354 c 2,27,-1
 136 177 l 2,28,29
 136 140 136 140 162 114.5 c 128,-1,18
 188 89 188 89 225 89 c 128,-1,19
EndSplineSet
EndChar

StartChar: r
Encoding: 114 114 87
Width: 359
GlyphClass: 2
Flags: W
LayerCount: 2
Fore
SplineSet
46 532 m 1,0,-1
 135 532 l 1,1,-1
 135 508 l 1,2,3
 176 532 176 532 223 532 c 2,4,-1
 312 532 l 1,5,-1
 312 399 l 1,6,-1
 223 399 l 1,7,-1
 223 443 l 1,8,9
 186 443 186 443 160.5 417 c 128,-1,10
 135 391 135 391 135 354 c 2,11,-1
 135 201 l 1,12,-1
 135 0 l 1,13,-1
 46 0 l 1,14,-1
 46 354 l 1,15,-1
 46 532 l 1,0,-1
EndSplineSet
EndChar

StartChar: s
Encoding: 115 115 88
Width: 404
GlyphClass: 2
Flags: W
LayerCount: 2
Fore
SplineSet
202 531 m 1,0,-1
 202 531 l 1,1,2
 266 531 266 531 311.5 485.5 c 128,-1,3
 357 440 357 440 357 376 c 2,4,-1
 357 354 l 1,5,-1
 269 354 l 1,6,-1
 269 376 l 2,7,8
 269 404 269 404 249.5 423.5 c 128,-1,9
 230 443 230 443 202.5 443 c 128,-1,10
 175 443 175 443 155.5 423.5 c 128,-1,11
 136 404 136 404 136 376.5 c 128,-1,12
 136 349 136 349 155.5 329.5 c 128,-1,13
 175 310 175 310 202 310 c 0,14,15
 266 310 266 310 311.5 264.5 c 128,-1,16
 357 219 357 219 357 155 c 1,17,-1
 357 155 l 1,18,19
 357 91 357 91 311.5 45.5 c 128,-1,20
 266 0 266 0 202 0 c 128,-1,21
 138 0 138 0 93 45.5 c 128,-1,22
 48 91 48 91 48 155 c 2,23,-1
 48 177 l 1,24,-1
 136 177 l 1,25,-1
 136 155 l 2,26,27
 136 127 136 127 155.5 108 c 128,-1,28
 175 89 175 89 202.5 89 c 128,-1,29
 230 89 230 89 249.5 108 c 128,-1,30
 269 127 269 127 269 155 c 1,31,-1
 269 155 l 1,32,33
 269 183 269 183 249.5 202.5 c 128,-1,34
 230 222 230 222 202 222 c 0,35,36
 138 222 138 222 93 267 c 128,-1,37
 48 312 48 312 48 376 c 1,38,-1
 48 376 l 1,39,40
 48 440 48 440 93 485.5 c 128,-1,41
 138 531 138 531 202 531 c 1,0,-1
EndSplineSet
EndChar

StartChar: t
Encoding: 116 116 89
Width: 272
GlyphClass: 2
Flags: W
LayerCount: 2
Fore
SplineSet
70 709 m 1,0,-1
 158 709 l 1,1,-1
 158 532 l 1,2,-1
 247 532 l 1,3,-1
 247 443 l 1,4,-1
 158 443 l 1,5,-1
 158 133 l 2,6,7
 158 115 158 115 171 102 c 128,-1,8
 184 89 184 89 203 89 c 2,9,-1
 247 89 l 1,10,-1
 247 0 l 1,11,-1
 203 0 l 2,12,13
 148 0 148 0 109 39 c 128,-1,14
 70 78 70 78 70 133 c 2,15,-1
 70 443 l 1,16,-1
 26 443 l 1,17,-1
 26 532 l 1,18,-1
 70 532 l 1,19,-1
 70 709 l 1,0,-1
EndSplineSet
EndChar

StartChar: u
Encoding: 117 117 90
Width: 450
GlyphClass: 2
Flags: W
LayerCount: 2
Fore
SplineSet
402 0 m 1,0,-1
 313 0 l 1,1,-1
 313 24 l 1,2,3
 272 0 272 0 225 0 c 0,4,5
 152 0 152 0 100 52 c 128,-1,6
 48 104 48 104 48 177 c 2,7,-1
 48 532 l 1,8,-1
 136 532 l 1,9,-1
 136 331 l 1,10,-1
 136 177 l 2,11,12
 136 140 136 140 162 114.5 c 128,-1,13
 188 89 188 89 225 89 c 128,-1,14
 262 89 262 89 287.5 114.5 c 128,-1,15
 313 140 313 140 313 177 c 2,16,-1
 313 330 l 1,17,-1
 313 532 l 1,18,-1
 402 532 l 1,19,-1
 402 177 l 1,20,-1
 402 0 l 1,0,-1
EndSplineSet
EndChar

StartChar: v
Encoding: 118 118 91
Width: 450
GlyphClass: 2
Flags: W
LayerCount: 2
Fore
SplineSet
48 532 m 1,0,-1
 137 532 l 1,1,-1
 225 89 l 1,2,-1
 314 532 l 1,3,-1
 402 532 l 1,4,-1
 296 0 l 1,5,-1
 225 0 l 1,6,-1
 154 0 l 1,7,-1
 48 532 l 1,0,-1
EndSplineSet
EndChar

StartChar: w
Encoding: 119 119 92
Width: 712
GlyphClass: 2
Flags: W
LayerCount: 2
Fore
SplineSet
46 532 m 1,0,-1
 135 532 l 1,1,-1
 223 89 l 1,2,-1
 312 532 l 1,3,-1
 400 532 l 1,4,-1
 489 89 l 1,5,-1
 577 532 l 1,6,-1
 666 532 l 1,7,-1
 560 0 l 1,8,-1
 489 0 l 1,9,-1
 418 0 l 1,10,-1
 356 310 l 1,11,-1
 294 0 l 1,12,-1
 223 0 l 1,13,-1
 152 0 l 1,14,-1
 46 532 l 1,0,-1
EndSplineSet
EndChar

StartChar: x
Encoding: 120 120 93
Width: 450
GlyphClass: 2
Flags: W
LayerCount: 2
Fore
SplineSet
48 532 m 1,0,-1
 136 532 l 1,1,-1
 225 354 l 1,2,-1
 313 532 l 1,3,-1
 402 532 l 1,4,-1
 269 266 l 1,5,-1
 402 0 l 1,6,-1
 313 0 l 1,7,-1
 225 177 l 1,8,-1
 136 0 l 1,9,-1
 48 0 l 1,10,-1
 181 266 l 1,11,-1
 48 532 l 1,0,-1
EndSplineSet
EndChar

StartChar: y
Encoding: 121 121 94
Width: 450
GlyphClass: 2
Flags: W
LayerCount: 2
Fore
SplineSet
83 532 m 1,0,-1
 172 532 l 1,1,-1
 242 180 l 1,2,-1
 310 532 l 1,3,-1
 402 532 l 1,4,-1
 282 -69 l 2,5,6
 273 -117 273 -117 236.5 -147 c 128,-1,7
 200 -177 200 -177 153 -177 c 0,8,9
 140 -177 140 -177 128 -175 c 0,10,11
 78 -165 78 -165 48 -125 c 1,12,-1
 112 -61 l 1,13,14
 121 -83 121 -83 145 -88 c 0,15,16
 163 -91 163 -91 178 -81 c 128,-1,17
 193 -71 193 -71 197 -53 c 2,18,-1
 199 -44 l 1,19,-1
 83 532 l 1,0,-1
EndSplineSet
EndChar

StartChar: z
Encoding: 122 122 95
Width: 450
GlyphClass: 2
Flags: W
LayerCount: 2
Fore
SplineSet
48 531 m 1,0,-1
 402 531 l 1,1,-1
 402 443 l 1,2,-1
 158 89 l 1,3,-1
 402 89 l 1,4,-1
 402 0 l 1,5,-1
 48 0 l 1,6,-1
 48 89 l 1,7,-1
 291 443 l 1,8,-1
 48 443 l 1,9,-1
 48 531 l 1,0,-1
EndSplineSet
EndChar

StartChar: braceleft
Encoding: 123 123 96
Width: 450
GlyphClass: 2
Flags: W
LayerCount: 2
Fore
SplineSet
341 -84 m 0,0,1
 346 -84 346 -84 346 -79 c 2,2,-1
 346 -9 l 2,3,4
 346 -4 346 -4 341 -4 c 0,5,6
 311 -2 311 -2 288.5 22 c 128,-1,7
 266 46 266 46 266 77 c 2,8,-1
 266 197 l 2,9,10
 266 247 266 247 230.5 282.5 c 128,-1,11
 195 318 195 318 145 318 c 1,12,13
 195 318 195 318 230.5 353.5 c 128,-1,14
 266 389 266 389 266 439 c 2,15,-1
 266 559 l 2,16,17
 266 590 266 590 288.5 614 c 128,-1,18
 311 638 311 638 341 640 c 0,19,20
 346 640 346 640 346 645 c 2,21,-1
 346 715 l 2,22,23
 346 720 346 720 341 720 c 0,24,25
 276 718 276 718 230.5 671.5 c 128,-1,26
 185 625 185 625 185 559 c 2,27,-1
 185 439 l 2,28,29
 185 408 185 408 162.5 384 c 128,-1,30
 140 360 140 360 109 358 c 0,31,32
 105 358 105 358 105 354 c 2,33,-1
 105 282 l 2,34,35
 105 278 105 278 109 278 c 0,36,37
 140 276 140 276 162.5 252 c 128,-1,38
 185 228 185 228 185 197 c 2,39,-1
 185 77 l 2,40,41
 185 11 185 11 230.5 -35.5 c 128,-1,42
 276 -82 276 -82 341 -84 c 0,0,1
EndSplineSet
EndChar

StartChar: bar
Encoding: 124 124 97
Width: 450
GlyphClass: 2
Flags: W
LayerCount: 2
Fore
SplineSet
182 783 m 2,0,1
 182 788 182 788 188 788 c 2,2,-1
 263 788 l 2,3,4
 269 788 269 788 269 783 c 2,5,-1
 269 -88 l 2,6,7
 269 -94 269 -94 263 -94 c 2,8,-1
 188 -94 l 2,9,10
 182 -94 182 -94 182 -88 c 2,11,-1
 182 783 l 2,0,1
EndSplineSet
EndChar

StartChar: braceright
Encoding: 125 125 98
Width: 450
GlyphClass: 2
Flags: W
LayerCount: 2
Fore
SplineSet
109 -84 m 0,0,1
 104 -84 104 -84 104 -79 c 2,2,-1
 104 -9 l 2,3,4
 104 -4 104 -4 109 -4 c 0,5,6
 139 -2 139 -2 161.5 22 c 128,-1,7
 184 46 184 46 184 77 c 2,8,-1
 184 197 l 2,9,10
 184 247 184 247 219.5 282.5 c 128,-1,11
 255 318 255 318 305 318 c 1,12,13
 255 318 255 318 219.5 353.5 c 128,-1,14
 184 389 184 389 184 439 c 2,15,-1
 184 559 l 2,16,17
 184 590 184 590 161.5 614 c 128,-1,18
 139 638 139 638 109 640 c 0,19,20
 104 640 104 640 104 645 c 2,21,-1
 104 715 l 2,22,23
 104 720 104 720 109 720 c 0,24,25
 174 718 174 718 219.5 671.5 c 128,-1,26
 265 625 265 625 265 559 c 2,27,-1
 265 439 l 2,28,29
 265 408 265 408 287.5 384 c 128,-1,30
 310 360 310 360 341 358 c 0,31,32
 345 358 345 358 345 354 c 2,33,-1
 345 282 l 2,34,35
 345 278 345 278 341 278 c 0,36,37
 310 276 310 276 287.5 252 c 128,-1,38
 265 228 265 228 265 197 c 2,39,-1
 265 77 l 2,40,41
 265 11 265 11 219.5 -35.5 c 128,-1,42
 174 -82 174 -82 109 -84 c 0,0,1
EndSplineSet
EndChar

StartChar: asciitilde
Encoding: 126 126 99
Width: 450
GlyphClass: 2
Flags: W
LayerCount: 2
Fore
SplineSet
32 309 m 1,0,-1
 117 331 l 1,1,2
 122 313 122 313 138 304 c 128,-1,3
 154 295 154 295 171 299 c 2,4,-1
 240 318 l 1,5,-1
 257 322 l 2,6,7
 310 336 310 336 357.5 308.5 c 128,-1,8
 405 281 405 281 419 227 c 1,9,-1
 334 205 l 1,10,11
 329 223 329 223 313 232 c 128,-1,12
 297 241 297 241 280 236 c 2,13,-1
 211 218 l 1,14,-1
 194 214 l 2,15,16
 141 200 141 200 93.5 227.5 c 128,-1,17
 46 255 46 255 32 309 c 1,0,-1
EndSplineSet
EndChar

StartChar: uni0080
Encoding: 128 128 100
Width: 450
GlyphClass: 2
Flags: W
LayerCount: 2
Fore
SplineSet
224.942382812 556.8125 m 132,-1,1
 227.12109375 556.94921875 227.12109375 556.94921875 228.037109375 555.823242188 c 4,2,3
 228.229492188 555.586914062 228.229492188 555.586914062 228.455078125 554.809570312 c 132,-1,4
 228.657226562 554.107421875 228.657226562 554.107421875 228.87890625 553.030273438 c 4,5,6
 229.349609375 550.739257812 229.349609375 550.739257812 229.703125 547.918945312 c 4,7,8
 231.96484375 529.938476562 231.96484375 529.938476562 234.064453125 523.560546875 c 4,9,10
 235.224609375 520.036132812 235.224609375 520.036132812 235.369140625 513.5859375 c 132,-1,11
 235.514648438 507.189453125 235.514648438 507.189453125 235.206054688 473.547851562 c 4,12,13
 234.926757812 442.801757812 234.926757812 442.801757812 235.044921875 435.372070312 c 4,14,15
 235.1171875 430.889648438 235.1171875 430.889648438 235.336914062 429.081054688 c 4,16,17
 235.509765625 427.670898438 235.509765625 427.670898438 235.859375 427.283203125 c 4,18,19
 236.390625 426.6953125 236.390625 426.6953125 236.850585938 425.23828125 c 132,-1,20
 237.30078125 423.817382812 237.30078125 423.817382812 237.438476562 422.365234375 c 4,21,22
 237.666015625 420.008789062 237.666015625 420.008789062 238.375976562 419.040039062 c 132,-1,23
 239.112304688 418.037109375 239.112304688 418.037109375 242.709960938 415.245117188 c 4,24,25
 247.793945312 411.301757812 247.793945312 411.301757812 252.0625 407.703125 c 132,-1,26
 256.2890625 404.138671875 256.2890625 404.138671875 258.71875 402.880859375 c 132,-1,27
 261.303710938 401.54296875 261.303710938 401.54296875 262.046875 399.588867188 c 4,28,29
 262.873046875 397.4140625 262.873046875 397.4140625 262.690429688 392.440429688 c 132,-1,30
 262.509765625 387.509765625 262.509765625 387.509765625 261.340820312 379.608398438 c 4,31,32
 258.458007812 360.130859375 258.458007812 360.130859375 258.455078125 340.05078125 c 4,33,34
 258.450195312 312.162109375 258.450195312 312.162109375 261.061523438 280.302734375 c 4,35,36
 262.180664062 266.646484375 262.180664062 266.646484375 262.5625 241.283203125 c 4,37,38
 262.830078125 223.538085938 262.830078125 223.538085938 262.694335938 219.524414062 c 4,39,40
 262.610351562 216.981445312 262.610351562 216.981445312 262.349609375 215.853515625 c 132,-1,41
 262.126953125 214.889648438 262.126953125 214.889648438 261.572265625 214.276367188 c 4,42,43
 260.184570312 212.744140625 260.184570312 212.744140625 257.983398438 212.744140625 c 6,44,-1
 256.297851562 212.744140625 l 5,45,-1
 256.297851562 178.028320312 l 5,46,-1
 256.297851562 142.893554688 l 5,47,-1
 254.473632812 137.50390625 l 6,48,49
 253.720703125 135.278320312 253.720703125 135.278320312 252.828125 133.430664062 c 4,50,51
 252.407226562 132.557617188 252.407226562 132.557617188 252.038085938 131.965820312 c 132,-1,52
 251.63671875 131.321289062 251.63671875 131.321289062 251.336914062 131.098632812 c 4,53,54
 250.71875 130.637695312 250.71875 130.637695312 248.75390625 130.37890625 c 132,-1,55
 246.858398438 130.12890625 246.858398438 130.12890625 244.306640625 130.12890625 c 6,56,-1
 239.055664062 130.12890625 l 5,57,-1
 239.002929688 113.784179688 l 6,58,59
 238.951171875 96.9541015625 238.951171875 96.9541015625 239.052734375 87.158203125 c 4,60,61
 239.116210938 80.9365234375 239.116210938 80.9365234375 238.903320312 78.705078125 c 132,-1,62
 238.685546875 76.40234375 238.685546875 76.40234375 237.87109375 75.16015625 c 132,-1,63
 237.1171875 74.009765625 237.1171875 74.009765625 237 72.0224609375 c 132,-1,64
 236.877929688 69.9677734375 236.877929688 69.9677734375 237.20703125 63.185546875 c 6,65,-1
 237.71484375 52.7255859375 l 5,66,-1
 234.556640625 48.9541015625 l 6,67,68
 230.959960938 44.6572265625 230.959960938 44.6572265625 227.625976562 43.66015625 c 132,-1,69
 224.256835938 42.6513671875 224.256835938 42.6513671875 220.215820312 44.7041015625 c 4,70,71
 217.266601562 46.203125 217.266601562 46.203125 214.797851562 49.560546875 c 6,72,-1
 212.3046875 52.951171875 l 5,73,-1
 212.82421875 63.333984375 l 6,74,75
 213.15625 69.9697265625 213.15625 69.9697265625 213.0390625 72.0712890625 c 132,-1,76
 212.926757812 74.0888671875 212.926757812 74.0888671875 212.2109375 75.1806640625 c 132,-1,77
 211.442382812 76.3544921875 211.442382812 76.3544921875 211.215820312 78.671875 c 132,-1,78
 210.997070312 80.916015625 210.997070312 80.916015625 211.041015625 86.77734375 c 4,79,80
 211.112304688 96.3251953125 211.112304688 96.3251953125 211.076171875 113.42578125 c 6,81,-1
 211.041015625 130.12890625 l 5,82,-1
 205.380859375 130.12890625 l 6,83,84
 202.193359375 130.12890625 202.193359375 130.12890625 200.54296875 130.366210938 c 132,-1,85
 198.787109375 130.620117188 198.787109375 130.620117188 198.268554688 131.245117188 c 4,86,87
 198.071289062 131.482421875 198.071289062 131.482421875 197.763671875 132.112304688 c 132,-1,88
 197.478515625 132.693359375 197.478515625 132.693359375 197.110351562 133.572265625 c 4,89,90
 196.34765625 135.3984375 196.34765625 135.3984375 195.600585938 137.590820312 c 6,91,-1
 193.797851562 142.893554688 l 5,92,-1
 193.797851562 178.028320312 l 5,93,-1
 193.797851562 212.744140625 l 5,94,-1
 192.04296875 212.744140625 l 6,95,96
 189.741210938 212.744140625 189.741210938 212.744140625 188.515625 214.494140625 c 4,97,98
 188.071289062 215.127929688 188.071289062 215.127929688 187.79296875 217.19921875 c 132,-1,99
 187.530273438 219.1484375 187.530273438 219.1484375 187.395507812 222.419921875 c 4,100,101
 187.131835938 228.868164062 187.131835938 228.868164062 187.379882812 239.661132812 c 4,102,103
 187.904296875 262.358398438 187.904296875 262.358398438 190.276367188 293.94921875 c 4,104,105
 191.03125 304.006835938 191.03125 304.006835938 191.435546875 327.0625 c 4,106,107
 192.002929688 359.481445312 192.002929688 359.481445312 188.984375 378.63671875 c 4,108,109
 187.3203125 389.200195312 187.3203125 389.200195312 187.864257812 395.435546875 c 4,110,111
 188.135742188 398.545898438 188.135742188 398.545898438 188.959960938 400.375976562 c 132,-1,112
 189.833984375 402.315429688 189.833984375 402.315429688 191.303710938 402.782226562 c 4,113,114
 191.803710938 402.942382812 191.803710938 402.942382812 192.831054688 403.658203125 c 132,-1,115
 193.883789062 404.389648438 193.883789062 404.389648438 194.826171875 405.250976562 c 4,116,117
 197.155273438 407.377929688 197.155273438 407.377929688 204.857421875 413.298828125 c 6,118,-1
 212.404296875 419.100585938 l 5,119,-1
 212.439453125 422.250976562 l 6,120,121
 212.458007812 423.8125 212.458007812 423.8125 212.766601562 424.99609375 c 132,-1,122
 213.094726562 426.252929688 213.094726562 426.252929688 213.668945312 426.729492188 c 4,123,124
 213.923828125 426.94140625 213.923828125 426.94140625 214.081054688 428.481445312 c 4,125,126
 214.278320312 430.395507812 214.278320312 430.395507812 214.340820312 435.047851562 c 4,127,128
 214.450195312 443.064453125 214.450195312 443.064453125 214.166015625 472.693359375 c 6,129,-1
 213.73046875 518.108398438 l 5,130,-1
 215.578125 524.624023438 l 6,131,132
 217.407226562 531.071289062 217.407226562 531.071289062 218.9765625 542.53515625 c 4,133,134
 219.739257812 548.102539062 219.739257812 548.102539062 220.43359375 551.408203125 c 4,135,136
 220.783203125 553.069335938 220.783203125 553.069335938 221.090820312 554.051757812 c 132,-1,137
 221.423828125 555.11328125 221.423828125 555.11328125 221.741210938 555.474609375 c 4,138,0
 222.799804688 556.677734375 222.799804688 556.677734375 224.942382812 556.8125 c 132,-1,1
EndSplineSet
EndChar

StartChar: uni0081
Encoding: 129 129 101
Width: 450
GlyphClass: 2
Flags: W
LayerCount: 2
Fore
SplineSet
225.942382812 690.77734375 m 128,-1,1
 226.7421875 690.760742188 226.7421875 690.760742188 227.39453125 690.532226562 c 0,2,3
 228.752929688 690.053710938 228.752929688 690.053710938 229.797851562 688.473632812 c 0,4,5
 231.52734375 685.854492188 231.52734375 685.854492188 234.250976562 675.9140625 c 0,6,7
 237.397460938 664.431640625 237.397460938 664.431640625 241.375976562 650.776367188 c 2,8,-1
 245.368164062 637.078125 l 1,9,-1
 245.583007812 575.002929688 l 1,10,-1
 245.795898438 512.805664062 l 1,11,-1
 243.966796875 511.32421875 l 2,12,13
 243.23046875 510.729492188 243.23046875 510.729492188 242.291015625 510.305664062 c 128,-1,14
 241.326171875 509.87109375 241.326171875 509.87109375 240.6875 509.87109375 c 0,15,16
 240.37890625 509.680664062 240.37890625 509.680664062 240.270507812 509.165039062 c 0,17,18
 239.994140625 507.84765625 239.994140625 507.84765625 239.874023438 503.385742188 c 0,19,20
 239.689453125 496.568359375 239.689453125 496.568359375 239.689453125 459.942382812 c 2,21,-1
 239.689453125 410.014648438 l 1,22,-1
 244.741210938 410.014648438 l 2,23,24
 251.322265625 410.014648438 251.322265625 410.014648438 253.443359375 408.53125 c 128,-1,25
 255.553710938 407.0546875 255.553710938 407.0546875 258.303710938 400.541015625 c 2,26,-1
 261.278320312 393.491210938 l 1,27,-1
 265.533203125 393.491210938 l 2,28,29
 270.149414062 393.491210938 270.149414062 393.491210938 272.142578125 391.92578125 c 0,30,31
 273.631835938 390.752929688 273.631835938 390.752929688 273.911132812 389.331054688 c 128,-1,32
 274.172851562 388.002929688 274.172851562 388.002929688 274.172851562 382.0234375 c 0,33,34
 274.172851562 373.854492188 274.172851562 373.854492188 272.786132812 367.09765625 c 0,35,36
 266.22265625 335.099609375 266.22265625 335.099609375 268.083984375 288.620117188 c 0,37,38
 269.29296875 258.439453125 269.29296875 258.439453125 269.28515625 219.079101562 c 0,39,40
 269.279296875 185.127929688 269.279296875 185.127929688 268.658203125 180.616210938 c 0,41,42
 268.396484375 178.713867188 268.396484375 178.713867188 267.94921875 177.682617188 c 128,-1,43
 267.500976562 176.645507812 267.500976562 176.645507812 266.74609375 176.208984375 c 128,-1,44
 266.071289062 175.819335938 266.071289062 175.819335938 263.020507812 175.819335938 c 2,45,-1
 259.80078125 175.819335938 l 1,46,-1
 259.75 172.04296875 l 2,47,48
 259.693359375 167.900390625 259.693359375 167.900390625 259.538085938 123.375 c 2,49,-1
 259.380859375 78.80859375 l 1,50,-1
 257.412109375 66.2421875 l 2,51,52
 256.43359375 60 256.43359375 60 255.64453125 56.509765625 c 0,53,54
 255.24609375 54.755859375 255.24609375 54.755859375 254.899414062 53.708984375 c 128,-1,55
 254.53125 52.603515625 254.53125 52.603515625 254.192382812 52.2275390625 c 0,56,57
 253.38671875 51.337890625 253.38671875 51.337890625 251.77734375 51.0703125 c 128,-1,58
 250.265625 50.8193359375 250.265625 50.8193359375 246.15234375 50.8193359375 c 2,59,-1
 239.900390625 50.8193359375 l 1,60,-1
 239.396484375 25.84765625 l 2,61,62
 239.1171875 12.0576171875 239.1171875 12.0576171875 238.801757812 6.0888671875 c 0,63,64
 238.634765625 2.9658203125 238.634765625 2.9658203125 238.439453125 1.3828125 c 0,65,66
 238.33984375 0.5810546875 238.33984375 0.5810546875 238.2265625 0.11328125 c 128,-1,67
 238.09375 -0.4228515625 238.09375 -0.4228515625 237.908203125 -0.61328125 c 0,68,69
 237.5078125 -2.142578125 237.5078125 -2.142578125 237.5234375 -3.564453125 c 0,70,71
 237.551757812 -6.224609375 237.551757812 -6.224609375 238.154296875 -13.3984375 c 2,72,-1
 239.188476562 -25.720703125 l 1,73,-1
 235.967773438 -29.5673828125 l 2,74,75
 234.66015625 -31.1298828125 234.66015625 -31.1298828125 233.030273438 -32.5341796875 c 128,-1,76
 231.381835938 -33.955078125 231.381835938 -33.955078125 230.362304688 -34.3818359375 c 0,77,78
 224.4765625 -36.841796875 224.4765625 -36.841796875 219.045898438 -33.9375 c 0,79,80
 216.469726562 -32.5595703125 216.469726562 -32.5595703125 213.700195312 -29.21875 c 2,81,-1
 210.8828125 -25.818359375 l 1,82,-1
 211.888671875 -13.6328125 l 2,83,84
 212.510742188 -6.09765625 212.510742188 -6.09765625 212.517578125 -3.6005859375 c 128,-1,85
 212.521484375 -1.2060546875 212.521484375 -1.2060546875 211.979492188 -0.408203125 c 0,86,87
 211.637695312 0.0927734375 211.637695312 0.0927734375 211.44921875 1.572265625 c 128,-1,88
 211.256835938 3.083984375 211.256835938 3.083984375 211.150390625 6.009765625 c 0,89,90
 210.954101562 11.37890625 210.954101562 11.37890625 210.954101562 26.1943359375 c 2,91,-1
 210.954101562 50.8193359375 l 1,92,-1
 204.240234375 50.8193359375 l 2,93,94
 199.8203125 50.8193359375 199.8203125 50.8193359375 198.252929688 51.0615234375 c 128,-1,95
 196.573242188 51.3212890625 196.573242188 51.3212890625 195.817382812 52.201171875 c 0,96,97
 195.538085938 52.5263671875 195.538085938 52.5263671875 195.185546875 53.6337890625 c 128,-1,98
 194.860351562 54.6572265625 194.860351562 54.6572265625 194.481445312 56.291015625 c 0,99,100
 193.6875 59.70703125 193.6875 59.70703125 192.938476562 64.412109375 c 0,101,102
 191.21484375 75.21484375 191.21484375 75.21484375 190.84765625 125.528320312 c 2,103,-1
 190.482421875 175.486328125 l 1,104,-1
 188.296875 175.655273438 l 2,105,106
 184.946289062 175.913085938 184.946289062 175.913085938 183.69140625 176.447265625 c 128,-1,107
 182.360351562 177.012695312 182.360351562 177.012695312 181.65625 178.560546875 c 0,108,109
 181.536132812 178.822265625 181.536132812 178.822265625 181.442382812 179.733398438 c 128,-1,110
 181.356445312 180.577148438 181.356445312 180.577148438 181.28125 181.994140625 c 0,111,112
 181.1328125 184.766601562 181.1328125 184.766601562 181.028320312 189.51171875 c 0,113,114
 180.823242188 198.76171875 180.823242188 198.76171875 180.806640625 212.955078125 c 0,115,116
 180.768554688 245.52734375 180.768554688 245.52734375 181.522460938 264.1953125 c 0,117,118
 182.190429688 280.776367188 182.190429688 280.776367188 182.662109375 303.69921875 c 0,119,120
 183.336914062 336.610351562 183.336914062 336.610351562 177.096679688 369.6171875 c 0,121,122
 175.61328125 377.4609375 175.61328125 377.4609375 175.864257812 383.862304688 c 128,-1,123
 176.10546875 390.06640625 176.10546875 390.06640625 177.40625 391.579101562 c 0,124,125
 178.235351562 392.544921875 178.235351562 392.544921875 179.9296875 392.962890625 c 0,126,127
 181.249023438 393.287109375 181.249023438 393.287109375 184.17578125 393.490234375 c 2,128,-1
 189.126953125 393.834960938 l 1,129,-1
 192.009765625 400.423828125 l 2,130,131
 193.2421875 403.245117188 193.2421875 403.245117188 194.577148438 405.556640625 c 0,132,133
 195.215820312 406.662109375 195.215820312 406.662109375 195.723632812 407.369140625 c 128,-1,134
 196.279296875 408.147460938 196.279296875 408.147460938 196.650390625 408.393554688 c 0,135,136
 197.391601562 408.88671875 197.391601562 408.88671875 199.702148438 409.2890625 c 128,-1,137
 201.947265625 409.6796875 201.947265625 409.6796875 204.836914062 409.844726562 c 2,138,-1
 210.962890625 410.194335938 l 1,139,-1
 210.778320312 460.220703125 l 1,140,-1
 210.596679688 510.27734375 l 1,141,-1
 209.338867188 510.456054688 l 2,142,143
 207.63671875 510.698242188 207.63671875 510.698242188 206.713867188 511.811523438 c 0,144,145
 206.47265625 512.55078125 206.47265625 512.55078125 206.420898438 513.032226562 c 0,146,147
 206.319335938 513.971679688 206.319335938 513.971679688 206.2421875 515.6953125 c 0,148,149
 206.0859375 519.150390625 206.0859375 519.150390625 205.995117188 526.508789062 c 0,150,151
 205.823242188 540.530273438 205.823242188 540.530273438 205.858398438 574.966796875 c 2,152,-1
 205.91796875 636.936523438 l 1,153,-1
 208.875976562 647.470703125 l 2,154,155
 211.809570312 657.921875 211.809570312 657.921875 215.672851562 672.98046875 c 0,156,157
 217.255859375 679.155273438 217.255859375 679.155273438 218.688476562 683.8984375 c 0,158,159
 219.364257812 686.141601562 219.364257812 686.141601562 219.83203125 687.455078125 c 0,160,161
 220.0703125 688.130859375 220.0703125 688.130859375 220.25 688.5390625 c 0,162,163
 221.0546875 689.609375 221.0546875 689.609375 222.151367188 690.043945312 c 128,-1,164
 223.208007812 690.463867188 223.208007812 690.463867188 224.291015625 690.638671875 c 128,-1,0
 225.234375 690.791992188 225.234375 690.791992188 225.942382812 690.77734375 c 128,-1,1
EndSplineSet
EndChar

StartChar: uni0082
Encoding: 130 130 102
Width: 450
GlyphClass: 2
Flags: W
LayerCount: 2
Fore
SplineSet
282.6953125 173.3046875 m 5,0,1
 282.6953125 173.3046875 282.6953125 173.3046875 282.01953125 422.055664062 c 6,2,3
 279.447265625 422.5859375 279.447265625 422.5859375 168.111328125 422.5859375 c 5,4,5
 168.087890625 180.05859375 168.087890625 180.05859375 167.06640625 174.58984375 c 4,6,7
 167.0234375 174.365234375 167.0234375 174.365234375 167.125 173.856445312 c 4,8,9
 172.090820312 173.3046875 172.090820312 173.3046875 282.6953125 173.3046875 c 5,0,1
56.3896484375 385.567382812 m 4,10,11
 56.3896484375 386.11328125 56.3896484375 386.11328125 57.103515625 387.798828125 c 132,-1,12
 57.81640625 389.484375 57.81640625 389.484375 57.6318359375 390.177734375 c 4,13,14
 57.5791015625 390.375 57.5791015625 390.375 54.9755859375 393.427734375 c 132,-1,15
 52.3720703125 396.479492188 52.3720703125 396.479492188 51.6796875 402.106445312 c 4,16,17
 51.5322265625 403.30859375 51.5322265625 403.30859375 51.1875 415.469726562 c 132,-1,18
 50.8427734375 427.630859375 50.8427734375 427.630859375 51.1201171875 441.59765625 c 132,-1,19
 51.3974609375 455.563476562 51.3974609375 455.563476562 52.8544921875 457.51171875 c 4,20,21
 56.173828125 461.9609375 56.173828125 461.9609375 62.361328125 462.301757812 c 4,22,23
 66.873046875 462.55078125 66.873046875 462.55078125 121.0546875 463.174804688 c 5,24,-1
 121.426757812 557.524414062 l 6,25,26
 121.750976562 557.797851562 121.750976562 557.797851562 125.725585938 561.142578125 c 6,27,-1
 125.725585938 653.98046875 l 5,28,29
 133.58984375 686.975585938 133.58984375 686.975585938 134.346679688 688.39453125 c 4,30,31
 135.721679688 690.96875 135.721679688 690.96875 139.02734375 690.291992188 c 132,-1,32
 142.333007812 689.615234375 142.333007812 689.615234375 143.111328125 686.580078125 c 4,33,34
 147.58203125 668.177734375 147.58203125 668.177734375 150.869140625 654.471679688 c 4,35,36
 150.893554688 645.998046875 150.893554688 645.998046875 150.852539062 607.5625 c 132,-1,37
 150.811523438 569.126953125 150.811523438 569.126953125 151.004882812 560.822265625 c 4,38,39
 152.9140625 559.301757812 152.9140625 559.301757812 154.8203125 557.780273438 c 4,40,41
 154.895507812 549.2890625 154.895507812 549.2890625 154.9765625 515.203125 c 132,-1,42
 155.057617188 481.1171875 155.057617188 481.1171875 155.438476562 463.025390625 c 5,43,44
 165.157226562 459.24609375 165.157226562 459.24609375 165.276367188 459.224609375 c 4,45,46
 284.271484375 459.224609375 284.271484375 459.224609375 288.80078125 460.80078125 c 5,47,-1
 288.80078125 557.5390625 l 6,48,49
 288.814453125 557.549804688 288.814453125 557.549804688 289.783203125 558.311523438 c 4,50,51
 292.432617188 560.395507812 292.432617188 560.395507812 292.750976562 560.646484375 c 6,52,-1
 292.999023438 654.986328125 l 5,53,54
 299.833007812 681.65625 299.833007812 681.65625 301.418945312 686.100585938 c 132,-1,55
 303.00390625 690.545898438 303.00390625 690.545898438 305.682617188 690.545898438 c 132,-1,56
 308.390625 690.545898438 308.390625 690.545898438 309.961914062 685.947265625 c 132,-1,57
 311.533203125 681.348632812 311.533203125 681.348632812 318.25390625 653.756835938 c 5,58,59
 318.25390625 560.578125 318.25390625 560.578125 319.614257812 559.83984375 c 4,60,61
 322.564453125 558.26171875 322.564453125 558.26171875 322.564453125 462.815429688 c 5,62,63
 391.168945312 462.815429688 391.168945312 462.815429688 393.517578125 461.384765625 c 4,64,65
 397.450195312 458.986328125 397.450195312 458.986328125 398.079101562 454.720703125 c 132,-1,66
 398.708007812 450.454101562 398.708007812 450.454101562 398.549804688 427.2578125 c 4,67,68
 398.34765625 397.384765625 398.34765625 397.384765625 394.935546875 393.087890625 c 4,69,70
 394.469726562 392.50390625 394.469726562 392.50390625 393.221679688 391.6796875 c 132,-1,71
 392.016601562 390.8828125 392.016601562 390.8828125 392.016601562 390.473632812 c 132,-1,72
 392.016601562 390.077148438 392.016601562 390.077148438 392.764648438 388.454101562 c 132,-1,73
 393.512695312 386.831054688 393.512695312 386.831054688 393.512695312 385.87890625 c 4,74,75
 393.512695312 384.16015625 393.512695312 384.16015625 390.948242188 382.555664062 c 132,-1,76
 388.383789062 380.951171875 388.383789062 380.951171875 388.383789062 380.504882812 c 4,77,78
 388.383789062 380.344726562 388.383789062 380.344726562 389.350585938 379.025390625 c 132,-1,79
 390.317382812 377.70703125 390.317382812 377.70703125 390.317382812 376.385742188 c 4,80,81
 390.317382812 374.258789062 390.317382812 374.258789062 387.748046875 372.818359375 c 132,-1,82
 385.177734375 371.377929688 385.177734375 371.377929688 385.177734375 370.6171875 c 132,-1,83
 385.177734375 370.032226562 385.177734375 370.032226562 386.115234375 368.521484375 c 132,-1,84
 387.053710938 367.009765625 387.053710938 367.009765625 387.053710938 365.8671875 c 4,85,86
 387.053710938 363.762695312 387.053710938 363.762695312 384.419921875 362.276367188 c 132,-1,87
 381.78515625 360.791015625 381.78515625 360.791015625 381.78515625 360.455078125 c 132,-1,88
 381.78515625 360.124023438 381.78515625 360.124023438 383.2109375 358.137695312 c 132,-1,89
 384.637695312 356.151367188 384.637695312 356.151367188 384.637695312 355.294921875 c 132,-1,90
 384.637695312 354.259765625 384.637695312 354.259765625 382.484375 352.357421875 c 132,-1,91
 380.331054688 350.454101562 380.331054688 350.454101562 379.454101562 350.454101562 c 5,92,93
 379.469726562 349.763671875 379.469726562 349.763671875 380.9375 347.979492188 c 132,-1,94
 382.405273438 346.196289062 382.405273438 346.196289062 382.188476562 344.545898438 c 4,95,96
 381.91015625 342.424804688 381.91015625 342.424804688 378.560546875 340.700195312 c 6,97,-1
 377.39453125 339.455078125 l 5,98,99
 381.995117188 334.655273438 381.995117188 334.655273438 379.266601562 331.813476562 c 4,100,101
 377.991210938 330.482421875 377.991210938 330.482421875 376.56640625 329.869140625 c 4,102,103
 376.006835938 329.627929688 376.006835938 329.627929688 375.995117188 329.354492188 c 4,104,105
 375.995117188 328.85546875 375.995117188 328.85546875 377.545898438 327.048828125 c 132,-1,106
 379.095703125 325.243164062 379.095703125 325.243164062 379.265625 323.959960938 c 132,-1,107
 379.435546875 322.676757812 379.435546875 322.676757812 376.759765625 320.455078125 c 6,108,-1
 374.516601562 318.6171875 l 5,109,110
 378.25 314.768554688 378.25 314.768554688 378.443359375 313.712890625 c 132,-1,111
 378.63671875 312.658203125 378.63671875 312.658203125 376.010742188 310.228515625 c 6,112,-1
 373.41796875 307.854492188 l 5,113,114
 378.083007812 304.209960938 378.083007812 304.209960938 377.952148438 302.842773438 c 132,-1,115
 377.822265625 301.475585938 377.822265625 301.475585938 373.213867188 297.619140625 c 5,116,117
 378.0859375 293.409179688 378.0859375 293.409179688 377.997070312 291.7734375 c 132,-1,118
 377.909179688 290.138671875 377.909179688 290.138671875 373.212890625 285.270507812 c 5,119,120
 378.526367188 280.989257812 378.526367188 280.989257812 378.63671875 279.361328125 c 132,-1,121
 378.747070312 277.734375 378.747070312 277.734375 374.317382812 273.637695312 c 5,122,123
 381.350585938 268.859375 381.350585938 268.859375 377.524414062 265.260742188 c 4,124,125
 375.211914062 263.088867188 375.211914062 263.088867188 378.25390625 261.124023438 c 4,126,127
 380.736328125 258.893554688 380.736328125 258.893554688 380.680664062 257.791992188 c 132,-1,128
 380.625 256.69140625 380.625 256.69140625 379.315429688 255.008789062 c 132,-1,129
 378.004882812 253.327148438 378.004882812 253.327148438 378.004882812 252.678710938 c 132,-1,130
 378.004882812 252.026367188 378.004882812 252.026367188 380.078125 250.720703125 c 132,-1,131
 382.15234375 249.415039062 382.15234375 249.415039062 382.15234375 247.783203125 c 4,132,133
 382.15234375 246.758789062 382.15234375 246.758789062 380.83984375 244.916015625 c 132,-1,134
 379.528320312 243.073242188 379.528320312 243.073242188 379.528320312 242.489257812 c 5,135,136
 379.951171875 242.489257812 379.951171875 242.489257812 381.3671875 241.694335938 c 132,-1,137
 382.784179688 240.900390625 382.784179688 240.900390625 383.884765625 239.189453125 c 132,-1,138
 384.986328125 237.477539062 384.986328125 237.477539062 382.831054688 234.7890625 c 4,139,140
 381.204101562 232.720703125 381.204101562 232.720703125 384.119140625 231.237304688 c 132,-1,141
 386.958984375 229.79296875 386.958984375 229.79296875 386.958984375 227.744140625 c 4,142,143
 386.958984375 226.514648438 386.958984375 226.514648438 385.719726562 224.76953125 c 132,-1,144
 384.48046875 223.024414062 384.48046875 223.024414062 384.48046875 222.461914062 c 132,-1,145
 384.48046875 221.834960938 384.48046875 221.834960938 387.16015625 220.67578125 c 132,-1,146
 389.838867188 219.515625 389.838867188 219.515625 389.838867188 217.5859375 c 4,147,148
 389.838867188 217.24609375 389.838867188 217.24609375 389.661132812 216.750976562 c 132,-1,149
 389.484375 216.254882812 389.484375 216.254882812 389.116210938 215.404296875 c 4,150,151
 387.379882812 211.381835938 387.379882812 211.381835938 389.603515625 211.381835938 c 4,152,153
 392.969726562 211.381835938 392.969726562 211.381835938 392.969726562 207.578125 c 4,154,155
 392.969726562 206.500976562 392.969726562 206.500976562 391.334960938 203.33203125 c 132,-1,156
 389.700195312 200.1640625 389.700195312 200.1640625 392.264648438 199.845703125 c 4,157,158
 397.26953125 196.098632812 397.26953125 196.098632812 398.30078125 193.55078125 c 132,-1,159
 399.33203125 191.002929688 399.33203125 191.002929688 398.8203125 182.124023438 c 4,160,161
 398.358398438 174.057617188 398.358398438 174.057617188 394.376953125 170.07421875 c 4,162,163
 359.592773438 169.731445312 359.592773438 169.731445312 358.84765625 169.731445312 c 4,164,165
 358.174804688 6.61328125 358.174804688 6.61328125 357.483398438 -2.1025390625 c 4,166,167
 356.73828125 -11.4501953125 356.73828125 -11.4501953125 352.451171875 -15.3603515625 c 4,168,169
 351.374023438 -16.3427734375 351.374023438 -16.3427734375 349.129882812 -18.6025390625 c 132,-1,170
 346.885742188 -20.86328125 346.885742188 -20.86328125 345.55859375 -21.767578125 c 4,171,172
 340.858398438 -24.96875 340.858398438 -24.96875 266.533203125 -24.96875 c 5,173,174
 266.533203125 -31.43359375 266.533203125 -31.43359375 264.936523438 -33.03125 c 132,-1,175
 263.340820312 -34.6279296875 263.340820312 -34.6279296875 263.340820312 -53.6171875 c 4,176,177
 263.340820312 -61.220703125 263.340820312 -61.220703125 261.05859375 -62.4921875 c 132,-1,178
 258.775390625 -63.7626953125 258.775390625 -63.7626953125 245.081054688 -63.7841796875 c 4,179,180
 230.254882812 -63.8076171875 230.254882812 -63.8076171875 228.860351562 -64.8623046875 c 4,181,182
 225.665039062 -67.27734375 225.665039062 -67.27734375 218.077148438 -64.84765625 c 6,183,-1
 217.887695312 -64.7900390625 l 6,184,185
 216.275390625 -63.74609375 216.275390625 -63.74609375 200.3125 -63.8583984375 c 132,-1,186
 184.349609375 -63.970703125 184.349609375 -63.970703125 183.890625 -61.751953125 c 4,187,188
 183.03515625 -60.2451171875 183.03515625 -60.2451171875 183.3046875 -47.5693359375 c 132,-1,189
 183.573242188 -34.89453125 183.573242188 -34.89453125 181.419921875 -32.765625 c 4,190,191
 179.60546875 -30.6083984375 179.60546875 -30.6083984375 179.60546875 -25.0234375 c 4,192,193
 178.321289062 -25.0166015625 178.321289062 -25.0166015625 161.357421875 -24.9150390625 c 132,-1,194
 144.393554688 -24.8134765625 144.393554688 -24.8134765625 127.763671875 -24.7138671875 c 132,-1,195
 111.133789062 -24.6142578125 111.133789062 -24.6142578125 110.998046875 -24.61328125 c 4,196,197
 102.107421875 -20.443359375 102.107421875 -20.443359375 99.072265625 -17.1533203125 c 132,-1,198
 96.037109375 -13.8623046875 96.037109375 -13.8623046875 92.3193359375 -5.93359375 c 6,199,-1
 91.9453125 169.712890625 l 5,200,-1
 74.9990234375 169.712890625 l 6,201,202
 57.4453125 169.712890625 57.4453125 169.712890625 54.2294921875 171.631835938 c 132,-1,203
 51.013671875 173.549804688 51.013671875 173.549804688 51.013671875 184.080078125 c 132,-1,204
 51.013671875 194.723632812 51.013671875 194.723632812 57.4599609375 198.969726562 c 4,205,206
 57.25 199.651367188 57.25 199.651367188 56.4013671875 201.087890625 c 132,-1,207
 55.552734375 202.525390625 55.552734375 202.525390625 55.552734375 203.64453125 c 4,208,209
 55.552734375 205.721679688 55.552734375 205.721679688 57.888671875 206.903320312 c 132,-1,210
 60.2236328125 208.084960938 60.2236328125 208.084960938 60.2236328125 208.3828125 c 132,-1,211
 60.2236328125 208.533203125 60.2236328125 208.533203125 59.169921875 210.365234375 c 132,-1,212
 58.1162109375 212.198242188 58.1162109375 212.198242188 58.646484375 213.599609375 c 4,213,214
 59.2978515625 215.319335938 59.2978515625 215.319335938 62.3671875 216.6015625 c 6,215,-1
 63.6279296875 217.708007812 l 6,216,217
 61.2958984375 220.979492188 61.2958984375 220.979492188 61.2958984375 221.852539062 c 4,218,219
 61.2958984375 225.028320312 61.2958984375 225.028320312 63.431640625 225.028320312 c 4,220,221
 69.0908203125 225.028320312 69.0908203125 225.028320312 65.5009765625 228.850585938 c 4,222,223
 63.5478515625 231.58984375 63.5478515625 231.58984375 64.2587890625 232.811523438 c 132,-1,224
 64.970703125 234.034179688 64.970703125 234.034179688 66.8369140625 235.306640625 c 132,-1,225
 68.703125 236.580078125 68.703125 236.580078125 68.703125 237.142578125 c 132,-1,226
 68.703125 237.6953125 68.703125 237.6953125 67.4072265625 239.19921875 c 132,-1,227
 66.111328125 240.702148438 66.111328125 240.702148438 66.111328125 241.893554688 c 4,228,229
 66.111328125 243.696289062 66.111328125 243.696289062 68.9287109375 245.736328125 c 132,-1,230
 71.74609375 247.776367188 71.74609375 247.776367188 71.74609375 247.916992188 c 132,-1,231
 71.74609375 248.234375 71.74609375 248.234375 70 250.052734375 c 132,-1,232
 68.2548828125 251.872070312 68.2548828125 251.872070312 68.2548828125 252.715820312 c 4,233,234
 68.2548828125 254.235351562 68.2548828125 254.235351562 71.982421875 256.901367188 c 4,235,236
 73.025390625 257.647460938 73.025390625 257.647460938 73.0439453125 257.780273438 c 4,237,238
 73.0439453125 258.151367188 73.0439453125 258.151367188 71.3671875 259.985351562 c 132,-1,239
 69.69140625 261.8203125 69.69140625 261.8203125 69.69140625 262.711914062 c 4,240,241
 69.69140625 264.415039062 69.69140625 264.415039062 72.466796875 266.09765625 c 132,-1,242
 75.359375 267.8515625 75.359375 267.8515625 73.103515625 269.752929688 c 4,243,244
 70.36328125 272.413085938 70.36328125 272.413085938 71.3837890625 273.951171875 c 132,-1,245
 72.4052734375 275.490234375 72.4052734375 275.490234375 74.08203125 276.71875 c 132,-1,246
 75.759765625 277.946289062 75.759765625 277.946289062 75.2197265625 278.299804688 c 4,247,248
 68.33984375 282.805664062 68.33984375 282.805664062 76.3193359375 286.931640625 c 5,249,250
 72.1328125 291.254882812 72.1328125 291.254882812 72.1328125 292.749023438 c 132,-1,251
 72.1328125 294.232421875 72.1328125 294.232421875 74.080078125 295.64453125 c 132,-1,252
 76.0263671875 297.055664062 76.0263671875 297.055664062 76.0263671875 297.596679688 c 132,-1,253
 76.0263671875 298.262695312 76.0263671875 298.262695312 73.9365234375 300.461914062 c 132,-1,254
 71.8466796875 302.66015625 71.8466796875 302.66015625 71.8466796875 303.318359375 c 132,-1,255
 71.8466796875 303.969726562 71.8466796875 303.969726562 74.048828125 306.110351562 c 132,-1,256
 76.28515625 308.28515625 76.28515625 308.28515625 75.87890625 308.68359375 c 4,257,258
 71.8486328125 311.3671875 71.8486328125 311.3671875 71.8486328125 313.708984375 c 4,259,260
 71.8486328125 315.513671875 71.8486328125 315.513671875 73.642578125 316.689453125 c 4,261,262
 76.3525390625 318.459960938 76.3525390625 318.459960938 73.89453125 319.84765625 c 4,263,264
 71.1259765625 321.41015625 71.1259765625 321.41015625 71.1259765625 323.323242188 c 132,-1,265
 71.1259765625 325.34375 71.1259765625 325.34375 73.7099609375 327.803710938 c 6,266,-1
 74.44921875 329.298828125 l 5,267,268
 69.478515625 331.868164062 69.478515625 331.868164062 69.478515625 334.303710938 c 4,269,270
 69.478515625 335.84375 69.478515625 335.84375 70.990234375 337.340820312 c 132,-1,271
 72.501953125 338.837890625 72.501953125 338.837890625 72.501953125 339.440429688 c 4,272,273
 72.501953125 340.288085938 72.501953125 340.288085938 70.10546875 341.578125 c 132,-1,274
 67.7080078125 342.8671875 67.7080078125 342.8671875 67.7080078125 344.770507812 c 4,275,276
 67.7080078125 346.075195312 67.7080078125 346.075195312 69 347.561523438 c 132,-1,277
 70.29296875 349.048828125 70.29296875 349.048828125 70.29296875 349.698242188 c 4,278,279
 70.29296875 350.560546875 70.29296875 350.560546875 67.869140625 352.11328125 c 132,-1,280
 65.4453125 353.665039062 65.4453125 353.665039062 65.4453125 355.12890625 c 4,281,282
 65.4453125 356.1953125 65.4453125 356.1953125 66.806640625 357.5625 c 132,-1,283
 68.1689453125 358.928710938 68.1689453125 358.928710938 68.1689453125 359.700195312 c 4,284,285
 68.1689453125 360.682617188 68.1689453125 360.682617188 65.625 362.161132812 c 132,-1,286
 63.08203125 363.640625 63.08203125 363.640625 63.08203125 365.313476562 c 4,287,288
 63.08203125 366.381835938 63.08203125 366.381835938 64.16796875 368.203125 c 132,-1,289
 65.2529296875 370.0234375 65.2529296875 370.0234375 65.2529296875 370.612304688 c 132,-1,290
 65.2529296875 371.29296875 65.2529296875 371.29296875 62.51171875 372.653320312 c 132,-1,291
 59.771484375 374.012695312 59.771484375 374.012695312 59.771484375 375.78515625 c 4,292,293
 59.771484375 376.72265625 59.771484375 376.72265625 60.9072265625 378.8515625 c 4,294,295
 62.3935546875 381.637695312 62.3935546875 381.637695312 60.6787109375 381.637695312 c 4,296,297
 59.8212890625 381.637695312 59.8212890625 381.637695312 58.10546875 383.1015625 c 132,-1,298
 56.3896484375 384.565429688 56.3896484375 384.565429688 56.3896484375 385.567382812 c 4,10,11
56.6005859375 199.266601562 m 5,299,300
 50.2958984375 195.202148438 50.2958984375 195.202148438 50.2958984375 184.080078125 c 132,-1,301
 50.2958984375 173.059570312 50.2958984375 173.059570312 53.751953125 171.02734375 c 132,-1,302
 57.2080078125 168.994140625 57.2080078125 168.994140625 74.9990234375 168.994140625 c 6,303,-1
 91.228515625 168.994140625 l 5,304,305
 91.267578125 153.33203125 91.267578125 153.33203125 91.392578125 90.53125 c 132,-1,306
 91.5185546875 27.7294921875 91.5185546875 27.7294921875 91.6357421875 -6.166015625 c 5,307,308
 95.90625 -15.2783203125 95.90625 -15.2783203125 99.2783203125 -18.384765625 c 132,-1,309
 102.650390625 -21.4921875 102.650390625 -21.4921875 110.8359375 -25.3310546875 c 6,310,-1
 178.88671875 -25.73828125 l 5,311,312
 178.88671875 -31.2421875 178.88671875 -31.2421875 180.447265625 -32.775390625 c 132,-1,313
 182.006835938 -34.30859375 182.006835938 -34.30859375 182.250976562 -36.4091796875 c 4,314,315
 182.80859375 -41.4296875 182.80859375 -41.4296875 182.471679688 -46.82421875 c 132,-1,316
 182.134765625 -52.2177734375 182.134765625 -52.2177734375 182.466796875 -57.1728515625 c 132,-1,317
 182.799804688 -62.1279296875 182.799804688 -62.1279296875 184.3828125 -63.2353515625 c 4,318,319
 186.286132812 -64.5693359375 186.286132812 -64.5693359375 201.333007812 -64.537109375 c 132,-1,320
 216.379882812 -64.505859375 216.379882812 -64.505859375 217.559570312 -65.4365234375 c 4,321,322
 219.153320312 -66.6376953125 219.153320312 -66.6376953125 223.42578125 -66.638671875 c 132,-1,323
 227.697265625 -66.6396484375 227.697265625 -66.6396484375 229.293945312 -65.435546875 c 4,324,325
 230.505859375 -64.517578125 230.505859375 -64.517578125 251.643554688 -64.517578125 c 4,326,327
 260.919921875 -64.517578125 260.919921875 -64.517578125 262.46875 -62.4306640625 c 132,-1,328
 264.018554688 -60.34375 264.018554688 -60.34375 264.0390625 -47.822265625 c 4,329,330
 264.059570312 -34.9248046875 264.059570312 -34.9248046875 265.444335938 -33.5390625 c 4,331,332
 267.251953125 -31.7314453125 267.251953125 -31.7314453125 267.251953125 -25.6875 c 5,333,334
 341.076171875 -25.689453125 341.076171875 -25.689453125 345.962890625 -22.361328125 c 4,335,336
 352.83984375 -17.6748046875 352.83984375 -17.6748046875 355.8671875 -12.61328125 c 132,-1,337
 358.836914062 -7.646484375 358.836914062 -7.646484375 359.206054688 82.25390625 c 6,338,-1
 359.561523438 169.016601562 l 5,339,340
 394.673828125 169.354492188 394.673828125 169.354492188 394.780273438 169.462890625 c 4,341,342
 399.704101562 174.387695312 399.704101562 174.387695312 399.704101562 187.057617188 c 4,343,344
 399.704101562 195.172851562 399.704101562 195.172851562 392.693359375 200.421875 c 4,345,346
 391.380859375 201.400390625 391.380859375 201.400390625 392.372070312 203.481445312 c 4,347,348
 394.428710938 207.232421875 394.428710938 207.232421875 393.311523438 209.147460938 c 132,-1,349
 392.194335938 211.063476562 392.194335938 211.063476562 391.1796875 211.58203125 c 132,-1,350
 390.165039062 212.100585938 390.165039062 212.100585938 389.603515625 212.100585938 c 4,351,352
 388.01953125 212.48046875 388.01953125 212.48046875 389.278320312 213.912109375 c 132,-1,353
 390.537109375 215.34375 390.537109375 215.34375 390.493164062 217.814453125 c 132,-1,354
 390.44921875 220.28515625 390.44921875 220.28515625 387.0703125 221.5078125 c 4,355,356
 384.592773438 222.40234375 384.592773438 222.40234375 386.028320312 224.083984375 c 4,357,358
 387.677734375 226.016601562 387.677734375 226.016601562 387.677734375 227.744140625 c 4,359,360
 387.677734375 230.3125 387.677734375 230.3125 383.533203125 232.352539062 c 4,361,362
 382.57421875 232.82421875 382.57421875 232.82421875 382.455078125 232.99609375 c 4,363,364
 382.677734375 233.377929688 382.677734375 233.377929688 383.408203125 234.362304688 c 132,-1,365
 384.138671875 235.345703125 384.138671875 235.345703125 384.553710938 236.224609375 c 4,366,367
 386.543945312 240.444335938 386.543945312 240.444335938 380.33203125 243.059570312 c 5,368,369
 380.57421875 243.487304688 380.57421875 243.487304688 381.107421875 244.071289062 c 4,370,371
 383.237304688 247.127929688 383.237304688 247.127929688 382.768554688 248.572265625 c 132,-1,372
 382.30078125 250.017578125 382.30078125 250.017578125 380.517578125 251.302734375 c 132,-1,373
 378.735351562 252.588867188 378.735351562 252.588867188 378.723632812 252.678710938 c 132,-1,374
 378.723632812 252.901367188 378.723632812 252.901367188 380.1640625 254.928710938 c 132,-1,375
 381.60546875 256.955078125 381.60546875 256.955078125 381.338867188 258.482421875 c 132,-1,376
 381.04296875 260.169921875 381.04296875 260.169921875 378.642578125 261.727539062 c 4,377,378
 375.229492188 262.537109375 375.229492188 262.537109375 377.611328125 264.540039062 c 132,-1,379
 379.994140625 266.54296875 379.994140625 266.54296875 379.994140625 268.446289062 c 4,380,381
 379.994140625 270.649414062 379.994140625 270.649414062 375.456054688 273.733398438 c 5,382,383
 379.610351562 278.107421875 379.610351562 278.107421875 379.32421875 279.802734375 c 132,-1,384
 379.0390625 281.499023438 379.0390625 281.499023438 374.275390625 285.336914062 c 5,385,386
 378.801757812 290.314453125 378.801757812 290.314453125 378.71875 292.263671875 c 132,-1,387
 378.634765625 294.212890625 378.634765625 294.212890625 374.348632812 297.6328125 c 5,388,389
 381.090820312 303.2734375 381.090820312 303.2734375 374.55859375 307.924804688 c 5,390,391
 379.059570312 312.044921875 379.059570312 312.044921875 379.158203125 313.403320312 c 132,-1,392
 379.256835938 314.76171875 379.256835938 314.76171875 375.349609375 318.7890625 c 5,393,394
 379.989257812 321.525390625 379.989257812 321.525390625 379.989257812 323.686523438 c 4,395,396
 379.989257812 325.365234375 379.989257812 325.365234375 377.83984375 327.8046875 c 4,397,398
 377.005859375 328.750976562 377.005859375 328.750976562 376.795898438 329.151367188 c 5,399,400
 384.91796875 332.64453125 384.91796875 332.64453125 378.2265625 339.624023438 c 5,401,402
 384.778320312 343.490234375 384.778320312 343.490234375 380.306640625 349.94140625 c 5,403,404
 385.356445312 351.810546875 385.356445312 351.810546875 385.356445312 355.294921875 c 4,405,406
 385.356445312 356.092773438 385.356445312 356.092773438 384.900390625 356.890625 c 132,-1,407
 384.443359375 357.689453125 384.443359375 357.689453125 383.625976562 358.752929688 c 4,408,409
 382.381835938 360.370117188 382.381835938 360.370117188 382.862304688 360.654296875 c 4,410,411
 387.772460938 363.567382812 387.772460938 363.567382812 387.772460938 365.8671875 c 4,412,413
 387.772460938 367.1796875 387.772460938 367.1796875 386.833984375 368.728515625 c 132,-1,414
 385.895507812 370.27734375 385.895507812 370.27734375 385.895507812 370.6171875 c 132,-1,415
 385.895507812 370.813476562 385.895507812 370.813476562 388.465820312 372.395507812 c 132,-1,416
 391.036132812 373.9765625 391.036132812 373.9765625 391.036132812 376.385742188 c 4,417,418
 391.036132812 377.342773438 391.036132812 377.342773438 389.131835938 380.482421875 c 4,419,420
 389.428710938 380.806640625 389.428710938 380.806640625 390.611328125 381.51171875 c 4,421,422
 394.231445312 383.671875 394.231445312 383.671875 394.231445312 385.87890625 c 4,423,424
 394.231445312 387.19921875 394.231445312 387.19921875 393.303710938 388.904296875 c 4,425,426
 392.491210938 390.396484375 392.491210938 390.396484375 393.573242188 390.888671875 c 4,427,428
 398.322265625 393.040039062 398.322265625 393.040039062 398.8828125 402.283203125 c 4,429,430
 398.948242188 403.373046875 398.948242188 403.373046875 399.1640625 414.952148438 c 132,-1,431
 399.379882812 426.53125 399.379882812 426.53125 399.3671875 440.020507812 c 132,-1,432
 399.354492188 453.510742188 399.354492188 453.510742188 398.805664062 455.877929688 c 4,433,434
 397.161132812 462.920898438 397.161132812 462.920898438 386.741210938 463.333007812 c 4,435,436
 381.55859375 463.534179688 381.55859375 463.534179688 323.283203125 463.534179688 c 5,437,438
 323.283203125 554.33203125 323.283203125 554.33203125 321.9453125 558.122070312 c 4,439,440
 321.478515625 559.444335938 321.478515625 559.444335938 320.588867188 560.026367188 c 132,-1,441
 319.698242188 560.608398438 319.698242188 560.608398438 319.552734375 561.341796875 c 4,442,443
 318.899414062 564.092773438 318.899414062 564.092773438 318.931640625 608.977539062 c 132,-1,444
 318.96484375 653.862304688 318.96484375 653.862304688 318.961914062 653.884765625 c 4,445,446
 312.134765625 681.919921875 312.134765625 681.919921875 310.474609375 686.591796875 c 132,-1,447
 308.814453125 691.264648438 308.814453125 691.264648438 305.682617188 691.264648438 c 4,448,449
 302.790039062 691.264648438 302.790039062 691.264648438 301.391601562 688.21484375 c 132,-1,450
 299.994140625 685.165039062 299.994140625 685.165039062 296.623046875 672.0234375 c 4,451,452
 292.290039062 655.12109375 292.290039062 655.12109375 292.278320312 655.033203125 c 6,453,-1
 292.03515625 560.99609375 l 6,454,455
 290.333007812 559.657226562 290.333007812 559.657226562 288.08203125 557.888671875 c 6,456,-1
 288.08203125 461.311523438 l 6,457,458
 284.149414062 459.942382812 284.149414062 459.942382812 165.34375 459.942382812 c 4,459,460
 160.470703125 461.838867188 160.470703125 461.838867188 155.926757812 463.606445312 c 5,461,462
 155.538085938 558.126953125 155.538085938 558.126953125 155.40234375 558.234375 c 4,463,464
 153.29296875 559.916992188 153.29296875 559.916992188 151.587890625 561.276367188 c 4,465,466
 151.587890625 654.514648438 151.587890625 654.514648438 151.578125 654.598632812 c 4,467,468
 148.2265625 668.569335938 148.2265625 668.569335938 143.807617188 686.758789062 c 4,469,470
 142.689453125 691.122070312 142.689453125 691.122070312 137.95703125 691.122070312 c 4,471,472
 134.931640625 691.122070312 134.931640625 691.122070312 133.694335938 688.224609375 c 132,-1,473
 132.45703125 685.327148438 132.45703125 685.327148438 128.958007812 670.64453125 c 4,474,475
 125.017578125 654.106445312 125.017578125 654.106445312 125.0078125 654.0234375 c 6,476,-1
 125.0078125 561.4765625 l 6,477,478
 121.434570312 558.474609375 121.434570312 558.474609375 120.709960938 557.859375 c 6,479,-1
 120.338867188 463.885742188 l 5,480,481
 58.0576171875 463.170898438 58.0576171875 463.170898438 55.888671875 461.55078125 c 4,482,483
 51.822265625 458.517578125 51.822265625 458.517578125 51.095703125 452.615234375 c 132,-1,484
 50.3681640625 446.712890625 50.3681640625 446.712890625 50.3681640625 418.92578125 c 4,485,486
 50.3681640625 397.30859375 50.3681640625 397.30859375 55.19921875 392.190429688 c 4,487,488
 56.96875 390.313476562 56.96875 390.313476562 56.96875 389.76171875 c 132,-1,489
 56.96875 389.3515625 56.96875 389.3515625 56.3203125 387.8203125 c 132,-1,490
 55.6708984375 386.288085938 55.6708984375 386.288085938 55.6708984375 385.567382812 c 4,491,492
 55.6708984375 381.96875 55.6708984375 381.96875 61.0029296875 380.888671875 c 4,493,494
 60.9462890625 380.453125 60.9462890625 380.453125 59.9990234375 378.673828125 c 132,-1,495
 59.052734375 376.89453125 59.052734375 376.89453125 59.052734375 375.78515625 c 4,496,497
 59.052734375 373.697265625 59.052734375 373.697265625 61.787109375 372.198242188 c 132,-1,498
 64.521484375 370.69921875 64.521484375 370.69921875 64.5341796875 370.612304688 c 4,499,500
 64.5341796875 370.2578125 64.5341796875 370.2578125 63.44921875 368.41015625 c 132,-1,501
 62.36328125 366.5625 62.36328125 366.5625 62.36328125 365.313476562 c 4,502,503
 62.36328125 363.309570312 62.36328125 363.309570312 64.90625 361.740234375 c 132,-1,504
 67.4501953125 360.170898438 67.4501953125 360.170898438 67.4501953125 359.700195312 c 132,-1,505
 67.4501953125 359.268554688 67.4501953125 359.268554688 66.087890625 357.860351562 c 132,-1,506
 64.7265625 356.452148438 64.7265625 356.452148438 64.7265625 355.12890625 c 4,507,508
 64.7265625 353.3359375 64.7265625 353.3359375 67.150390625 351.708984375 c 132,-1,509
 69.57421875 350.083007812 69.57421875 350.083007812 69.57421875 349.698242188 c 132,-1,510
 69.57421875 349.374023438 69.57421875 349.374023438 68.2822265625 347.831054688 c 132,-1,511
 66.990234375 346.2890625 66.990234375 346.2890625 66.990234375 344.770507812 c 4,512,513
 66.990234375 342.571289062 66.990234375 342.571289062 69.38671875 341.146484375 c 132,-1,514
 71.783203125 339.72265625 71.783203125 339.72265625 71.783203125 339.440429688 c 132,-1,515
 71.783203125 339.234375 71.783203125 339.234375 70.271484375 337.643554688 c 132,-1,516
 68.759765625 336.052734375 68.759765625 336.052734375 68.759765625 334.303710938 c 4,517,518
 68.759765625 331.431640625 68.759765625 331.431640625 73.693359375 328.880859375 c 5,519,520
 70.408203125 325.453125 70.408203125 325.453125 70.408203125 323.323242188 c 132,-1,521
 70.408203125 321.002929688 70.408203125 321.002929688 73.4853515625 319.267578125 c 4,522,523
 74.474609375 318.709960938 74.474609375 318.709960938 74.603515625 318.442382812 c 4,524,525
 74.5087890625 318.193359375 74.5087890625 318.193359375 73.6865234375 317.611328125 c 4,526,527
 71.1298828125 315.80078125 71.1298828125 315.80078125 71.1298828125 313.708984375 c 4,528,529
 71.1298828125 311.258789062 71.1298828125 311.258789062 75.1875 308.350585938 c 5,530,531
 74.9658203125 308.043945312 74.9658203125 308.043945312 73.9375 307.043945312 c 4,532,533
 71.1279296875 304.315429688 71.1279296875 304.315429688 71.1279296875 303.318359375 c 132,-1,534
 71.1279296875 302.381835938 71.1279296875 302.381835938 73.2021484375 300.162109375 c 132,-1,535
 75.27734375 297.94140625 75.27734375 297.94140625 75.306640625 297.625 c 132,-1,536
 75.2998046875 297.459960938 75.2998046875 297.459960938 73.576171875 296.171875 c 132,-1,537
 71.8525390625 294.884765625 71.8525390625 294.884765625 71.4716796875 293.436523438 c 132,-1,538
 71.0908203125 291.989257812 71.0908203125 291.989257812 73.4970703125 288.813476562 c 6,539,-1
 75.130859375 287.125976562 l 5,540,541
 66.9189453125 282.877929688 66.9189453125 282.877929688 74.408203125 277.97265625 c 5,542,543
 68.556640625 273.393554688 68.556640625 273.393554688 73.67578125 268.290039062 c 5,544,-1
 72.5625 267.1796875 l 6,545,546
 68.97265625 264.807617188 68.97265625 264.807617188 68.97265625 262.711914062 c 4,547,548
 68.97265625 261.418945312 68.97265625 261.418945312 71.5341796875 258.72265625 c 4,549,550
 72.140625 258.084960938 72.140625 258.084960938 72.2529296875 257.915039062 c 4,551,552
 67.5361328125 254.59375 67.5361328125 254.59375 67.5361328125 252.715820312 c 4,553,554
 67.5361328125 251.506835938 67.5361328125 251.506835938 69.5830078125 249.506835938 c 6,555,-1
 70.490234375 247.66796875 l 5,556,557
 65.3935546875 244.47265625 65.3935546875 244.47265625 65.3935546875 241.893554688 c 4,558,559
 65.3935546875 240.4921875 65.3935546875 240.4921875 66.689453125 238.924804688 c 132,-1,560
 67.984375 237.357421875 67.984375 237.357421875 67.984375 237.142578125 c 132,-1,561
 67.984375 237.076171875 67.984375 237.076171875 66.0888671875 235.740234375 c 132,-1,562
 64.193359375 234.404296875 64.193359375 234.404296875 63.5244140625 232.85546875 c 132,-1,563
 62.8564453125 231.307617188 62.8564453125 231.307617188 64.9775390625 228.359375 c 4,564,565
 65.8701171875 227.409179688 65.8701171875 227.409179688 66.01953125 227.15234375 c 4,566,567
 65.5869140625 226.713867188 65.5869140625 226.713867188 64.1455078125 226.061523438 c 4,568,569
 60.5771484375 224.446289062 60.5771484375 224.446289062 60.5771484375 221.852539062 c 4,570,571
 60.5771484375 220.750976562 60.5771484375 220.750976562 62.7939453125 217.639648438 c 5,572,573
 57.7373046875 215.228515625 57.7373046875 215.228515625 57.7373046875 212.551757812 c 4,574,575
 57.7373046875 210.94140625 57.7373046875 210.94140625 58.9609375 209.518554688 c 4,576,577
 59.8203125 208.51953125 59.8203125 208.51953125 57.9140625 207.729492188 c 4,578,579
 53.53125 205.912109375 53.53125 205.912109375 56.6005859375 199.266601562 c 5,299,300
168.829101562 421.8671875 m 5,580,581
 281.2890625 421.8671875 281.2890625 421.8671875 281.315429688 420.935546875 c 4,582,583
 281.631835938 408.173828125 281.631835938 408.173828125 281.975585938 174.0234375 c 5,584,585
 174.876953125 174.0234375 174.876953125 174.0234375 167.784179688 174.514648438 c 5,586,587
 168.807617188 178.864257812 168.807617188 178.864257812 168.829101562 421.8671875 c 5,580,581
74.6142578125 268.168945312 m 5,588,-1
 74.6142578125 268.168945312 l 5,588,-1
61.0869140625 380.8671875 m 5,589,-1
 61.0869140625 380.8671875 l 5,589,-1
305.682617188 690.905273438 m 132,-1,591
 307.173828125 690.905273438 307.173828125 690.905273438 307.985351562 690.349609375 c 132,-1,592
 308.963867188 689.677734375 308.963867188 689.677734375 309.788085938 687.763671875 c 4,593,594
 311.057617188 684.814453125 311.057617188 684.814453125 314.348632812 671.307617188 c 6,595,-1
 318.61328125 653.799804688 l 5,596,-1
 318.61328125 607.162109375 l 6,597,598
 318.61328125 573.448242188 318.61328125 573.448242188 318.801757812 566.901367188 c 4,599,600
 318.923828125 562.665039062 318.923828125 562.665039062 319.200195312 561.272460938 c 4,601,602
 319.317382812 560.680664062 319.317382812 560.680664062 319.482421875 560.421875 c 4,603,604
 321.092773438 559.45703125 321.092773438 559.45703125 321.606445312 558.002929688 c 4,605,606
 322.236328125 556.216796875 322.236328125 556.216796875 322.506835938 551.513671875 c 4,607,608
 322.923828125 544.298828125 322.923828125 544.298828125 322.923828125 508.686523438 c 6,609,-1
 322.923828125 463.174804688 l 5,610,-1
 356.872070312 463.174804688 l 6,611,612
 381.5859375 463.173828125 381.5859375 463.173828125 386.7265625 462.973632812 c 4,613,614
 390.073242188 462.841796875 390.073242188 462.841796875 391.549804688 462.540039062 c 4,615,616
 392.69921875 462.303710938 392.69921875 462.303710938 393.704101562 461.692382812 c 4,617,618
 396.120117188 460.217773438 396.120117188 460.217773438 397.604492188 457.805664062 c 4,619,620
 398.219726562 456.806640625 398.219726562 456.806640625 398.455078125 455.795898438 c 4,621,622
 398.7578125 454.489257812 398.7578125 454.489257812 398.873046875 451.720703125 c 4,623,624
 399.046875 447.5 399.046875 447.5 398.909179688 427.255859375 c 4,625,626
 398.766601562 406.28125 398.766601562 406.28125 398.524414062 402.305664062 c 132,-1,627
 398.279296875 398.271484375 398.279296875 398.271484375 396.955078125 395.603515625 c 4,628,629
 396.229492188 394.140625 396.229492188 394.140625 395.216796875 392.865234375 c 132,-1,630
 394.17578125 391.557617188 394.17578125 391.557617188 393.424804688 391.215820312 c 132,-1,631
 392.797851562 390.930664062 392.797851562 390.930664062 392.587890625 390.782226562 c 4,632,633
 392.328125 390.201171875 392.328125 390.201171875 393.09375 388.594726562 c 4,634,635
 394.215820312 386.240234375 394.215820312 386.240234375 393.685546875 384.830078125 c 132,-1,636
 393.1640625 383.4453125 393.1640625 383.4453125 390.625 381.946289062 c 4,637,638
 388.993164062 380.984375 388.993164062 380.984375 388.7890625 380.623046875 c 6,639,-1
 388.779296875 380.381835938 l 6,640,641
 388.856445312 380.192382812 388.856445312 380.192382812 389.192382812 379.815429688 c 4,642,643
 391.01953125 377.771484375 391.01953125 377.771484375 390.607421875 375.662109375 c 132,-1,644
 390.193359375 373.548828125 390.193359375 373.548828125 387.737304688 372.384765625 c 4,645,646
 386.634765625 371.861328125 386.634765625 371.861328125 386.153320312 371.517578125 c 132,-1,647
 385.668945312 371.170898438 385.668945312 371.170898438 385.5703125 370.84765625 c 132,-1,648
 385.471679688 370.53125 385.471679688 370.53125 385.680664062 370.015625 c 132,-1,649
 385.891601562 369.49609375 385.891601562 369.49609375 386.52734375 368.52734375 c 4,650,651
 387.86328125 366.48828125 387.86328125 366.48828125 387.202148438 364.654296875 c 132,-1,652
 386.55078125 362.852539062 386.55078125 362.852539062 384.096679688 361.681640625 c 4,653,654
 383.043945312 361.178710938 383.043945312 361.178710938 382.6796875 360.962890625 c 4,655,-1
 382.213867188 360.239257812 l 6,656,657
 382.323242188 359.99609375 382.323242188 359.99609375 382.767578125 359.377929688 c 4,658,659
 384.888671875 356.424804688 384.888671875 356.424804688 384.987304688 355.482421875 c 4,660,661
 385.05859375 354.798828125 385.05859375 354.798828125 384.604492188 354.124023438 c 4,662,663
 384.303710938 353.677734375 384.303710938 353.677734375 383.376953125 352.749023438 c 132,-1,664
 382.52734375 351.900390625 382.52734375 351.900390625 381.6015625 351.181640625 c 132,-1,665
 380.649414062 350.442382812 380.649414062 350.442382812 380.15234375 350.267578125 c 6,666,-1
 379.828125 350.103515625 l 5,667,-1
 379.823242188 350.09765625 l 5,668,-1
 379.8203125 350.095703125 l 5,669,-1
 379.817382812 350.095703125 l 5,670,-1
 379.814453125 350.095703125 l 5,671,-1
 379.828125 350.049804688 l 6,672,673
 379.912109375 349.723632812 379.912109375 349.723632812 380.842773438 348.709960938 c 4,674,675
 382.815429688 346.560546875 382.815429688 346.560546875 382.544921875 344.499023438 c 132,-1,676
 382.2734375 342.4296875 382.2734375 342.4296875 379.8203125 340.981445312 c 6,677,-1
 377.653320312 339.703125 l 5,678,-1
 379.178710938 338.112304688 l 6,679,680
 379.970703125 337.28515625 379.970703125 337.28515625 380.534179688 336.229492188 c 132,-1,681
 381.116210938 335.13671875 381.116210938 335.13671875 381.116210938 334.418945312 c 4,682,683
 381.116210938 333.221679688 381.116210938 333.221679688 379.526367188 331.565429688 c 132,-1,684
 377.979492188 329.952148438 377.979492188 329.952148438 376.354492188 329.362304688 c 5,685,686
 376.701171875 328.490234375 376.701171875 328.490234375 377.607421875 327.522460938 c 4,687,688
 379.771484375 325.212890625 379.771484375 325.212890625 379.619140625 323.435546875 c 132,-1,689
 379.46484375 321.633789062 379.46484375 321.633789062 376.942382812 320.145507812 c 6,690,-1
 374.774414062 318.8671875 l 5,691,-1
 376.659179688 316.923828125 l 6,692,693
 377.584960938 315.967773438 377.584960938 315.967773438 378.25 315.009765625 c 4,694,695
 378.5703125 314.547851562 378.5703125 314.547851562 378.749023438 314.192382812 c 4,696,697
 378.9609375 313.223632812 378.9609375 313.223632812 378.708984375 312.786132812 c 132,-1,698
 378.49609375 312.418945312 378.49609375 312.418945312 378.122070312 311.9453125 c 4,699,700
 377.34375 310.9609375 377.34375 310.9609375 376.252929688 309.962890625 c 6,701,-1
 373.98828125 307.889648438 l 5,702,-1
 375.860351562 306.556640625 l 6,703,704
 378.194335938 304.89453125 378.194335938 304.89453125 378.168945312 303.07421875 c 132,-1,705
 378.142578125 301.276367188 378.142578125 301.276367188 375.786132812 299.303710938 c 6,706,-1
 373.78125 297.625976562 l 5,707,-1
 375.7734375 296.036132812 l 6,708,709
 378.211914062 294.08984375 378.211914062 294.08984375 378.211914062 292 c 132,-1,710
 378.211914062 289.9375 378.211914062 289.9375 375.807617188 287.443359375 c 6,711,-1
 373.744140625 285.303710938 l 5,712,-1
 376.133789062 283.377929688 l 6,713,714
 378.725585938 281.2890625 378.725585938 281.2890625 378.861328125 279.463867188 c 132,-1,715
 378.999023438 277.625976562 378.999023438 277.625976562 376.708007812 275.430664062 c 6,716,-1
 374.88671875 273.685546875 l 5,717,-1
 377.020507812 272.235351562 l 6,718,719
 379.423828125 270.6015625 379.423828125 270.6015625 379.618164062 268.766601562 c 132,-1,720
 379.8125 266.918945312 379.8125 266.918945312 377.770507812 264.999023438 c 4,721,722
 377.044921875 264.317382812 377.044921875 264.317382812 376.532226562 263.71484375 c 4,723,724
 376.290039062 263.428710938 376.290039062 263.428710938 376.174804688 263.254882812 c 4,725,-1
 376.197265625 263.123046875 l 6,726,727
 377.44140625 262.077148438 377.44140625 262.077148438 378.448242188 261.42578125 c 4,728,729
 380.716796875 259.955078125 380.716796875 259.955078125 380.984375 258.420898438 c 132,-1,730
 381.252929688 256.883789062 381.252929688 256.883789062 379.602539062 254.786132812 c 4,731,732
 378.849609375 253.828125 378.849609375 253.828125 378.591796875 253.358398438 c 4,733,734
 378.419921875 252.296875 378.419921875 252.296875 378.821289062 251.9609375 c 132,-1,735
 379.21875 251.629882812 379.21875 251.629882812 380.221679688 251.059570312 c 4,736,737
 382.345703125 249.850585938 382.345703125 249.850585938 382.5 248.052734375 c 132,-1,738
 382.65234375 246.283203125 382.65234375 246.283203125 380.842773438 244.313476562 c 4,739,740
 380.0859375 243.487304688 380.0859375 243.487304688 379.922851562 243.036132812 c 4,741,-1
 379.887695312 242.849609375 l 5,742,-1
 379.888671875 242.848632812 l 6,743,744
 381.456054688 242.284179688 381.456054688 242.284179688 383.056640625 240.698242188 c 4,745,746
 383.779296875 239.984375 383.779296875 239.984375 384.212890625 239.31640625 c 132,-1,747
 384.708007812 238.5546875 384.708007812 238.5546875 384.708007812 238.0078125 c 132,-1,748
 384.708007812 237.392578125 384.708007812 237.392578125 384.228515625 236.376953125 c 132,-1,749
 383.765625 235.395507812 383.765625 235.395507812 383.11328125 234.567382812 c 132,-1,750
 382.501953125 233.790039062 382.501953125 233.790039062 382.14453125 233.176757812 c 6,751,-1
 381.958007812 232.806640625 l 5,752,-1
 382.037109375 232.756835938 l 6,753,754
 382.280273438 232.614257812 382.280273438 232.614257812 382.600585938 232.440429688 c 4,755,756
 383.336914062 232.038085938 383.336914062 232.038085938 384.282226562 231.557617188 c 4,757,758
 386.724609375 230.315429688 386.724609375 230.315429688 387.204101562 228.58984375 c 132,-1,759
 387.689453125 226.848632812 387.689453125 226.848632812 386.149414062 224.764648438 c 4,760,761
 385.34375 223.674804688 385.34375 223.674804688 385.0703125 223.158203125 c 132,-1,762
 384.7890625 222.625976562 384.7890625 222.625976562 384.850585938 222.357421875 c 132,-1,763
 384.908203125 222.107421875 384.908203125 222.107421875 385.350585938 221.84765625 c 132,-1,764
 385.8046875 221.583007812 385.8046875 221.583007812 386.948242188 221.169921875 c 4,765,766
 389.359375 220.297851562 389.359375 220.297851562 389.994140625 218.68359375 c 132,-1,767
 390.637695312 217.045898438 390.637695312 217.045898438 389.32421875 215.04296875 c 4,768,769
 388.432617188 213.680664062 388.432617188 213.680664062 388.590820312 212.626953125 c 4,770,771
 388.654296875 212.201171875 388.654296875 212.201171875 388.903320312 211.974609375 c 132,-1,772
 389.162109375 211.741210938 389.162109375 211.741210938 389.603515625 211.741210938 c 4,773,774
 390.747070312 211.741210938 390.747070312 211.741210938 392.046875 210.272460938 c 132,-1,775
 393.329101562 208.822265625 393.329101562 208.822265625 393.329101562 207.578125 c 4,776,777
 393.329101562 207.03515625 393.329101562 207.03515625 392.944335938 205.868164062 c 132,-1,778
 392.572265625 204.732421875 392.572265625 204.732421875 392.047851562 203.635742188 c 4,779,780
 391.166015625 201.78515625 391.166015625 201.78515625 391.220703125 201.390625 c 4,781,782
 391.732421875 200.690429688 391.732421875 200.690429688 392.478515625 200.133789062 c 4,783,784
 394.225585938 198.827148438 394.225585938 198.827148438 396.111328125 197.381835938 c 4,785,786
 398.282226562 195.717773438 398.282226562 195.717773438 398.940429688 192.3515625 c 132,-1,787
 399.581054688 189.07421875 399.581054688 189.07421875 399.1796875 182.102539062 c 4,788,789
 398.852539062 176.399414062 398.852539062 176.399414062 398.479492188 174.873046875 c 132,-1,790
 398.091796875 173.284179688 398.091796875 173.284179688 396.62109375 171.811523438 c 6,791,-1
 394.526367188 169.716796875 l 5,792,-1
 376.614257812 169.541015625 l 5,793,-1
 359.204101562 169.372070312 l 5,794,-1
 358.846679688 82.255859375 l 6,795,796
 358.536132812 6.6201171875 358.536132812 6.6201171875 357.840820312 -2.1318359375 c 4,797,798
 357.245117188 -9.6083984375 357.245117188 -9.6083984375 355.55859375 -12.4287109375 c 4,799,800
 355.297851562 -12.865234375 355.297851562 -12.865234375 350.83984375 -17.384765625 c 4,801,802
 347.177734375 -21.0986328125 347.177734375 -21.0986328125 345.760742188 -22.064453125 c 4,803,804
 343.244140625 -23.779296875 343.244140625 -23.779296875 339.174804688 -24.4365234375 c 4,805,806
 333.65234375 -25.328125 333.65234375 -25.328125 302.06640625 -25.328125 c 6,807,-1
 266.892578125 -25.328125 l 5,808,-1
 266.892578125 -28.201171875 l 6,809,810
 266.892578125 -31.58203125 266.892578125 -31.58203125 265.190429688 -33.28515625 c 4,811,812
 264.1328125 -34.3427734375 264.1328125 -34.3427734375 263.918945312 -36.2919921875 c 132,-1,813
 263.694335938 -38.3525390625 263.694335938 -38.3525390625 263.6796875 -47.8212890625 c 4,814,815
 263.666015625 -56.6806640625 263.666015625 -56.6806640625 263.596679688 -57.6298828125 c 4,816,817
 263.334960938 -61.232421875 263.334960938 -61.232421875 261.836914062 -62.5439453125 c 132,-1,818
 260.357421875 -63.8388671875 260.357421875 -63.8388671875 256.283203125 -64.0673828125 c 4,819,820
 255.212890625 -64.1279296875 255.212890625 -64.1279296875 245.08203125 -64.1435546875 c 4,821,822
 236.163085938 -64.15625 236.163085938 -64.15625 232.952148438 -64.3701171875 c 132,-1,823
 229.83203125 -64.5771484375 229.83203125 -64.5771484375 229.077148438 -65.1494140625 c 132,-1,824
 228.37890625 -65.6767578125 228.37890625 -65.6767578125 226.811523438 -65.9814453125 c 132,-1,825
 225.291015625 -66.2763671875 225.291015625 -66.2763671875 223.4296875 -66.2763671875 c 132,-1,826
 221.568359375 -66.2763671875 221.568359375 -66.2763671875 220.047851562 -65.9814453125 c 132,-1,827
 218.48046875 -65.6767578125 218.48046875 -65.6767578125 217.782226562 -65.1494140625 c 132,-1,828
 217.020507812 -64.580078125 217.020507812 -64.580078125 213.856445312 -64.373046875 c 132,-1,829
 210.58203125 -64.16015625 210.58203125 -64.16015625 201.49609375 -64.1455078125 c 4,830,831
 192.125976562 -64.1318359375 192.125976562 -64.1318359375 188.934570312 -63.9140625 c 132,-1,832
 185.659179688 -63.69140625 185.659179688 -63.69140625 184.587890625 -62.9404296875 c 4,833,834
 183.862304688 -62.4326171875 183.862304688 -62.4326171875 183.577148438 -61.9287109375 c 132,-1,835
 183.208007812 -61.2783203125 183.208007812 -61.2783203125 183.056640625 -59.9140625 c 4,836,837
 182.837890625 -57.9345703125 182.837890625 -57.9345703125 182.837890625 -48.2021484375 c 132,-1,838
 182.837890625 -38.353515625 182.837890625 -38.353515625 182.607421875 -36.3671875 c 132,-1,839
 182.387695312 -34.4716796875 182.387695312 -34.4716796875 181.125976562 -32.9736328125 c 4,840,841
 179.24609375 -30.740234375 179.24609375 -30.740234375 179.24609375 -27.81640625 c 6,842,-1
 179.24609375 -25.380859375 l 5,843,-1
 145.298828125 -25.177734375 l 5,844,-1
 110.916992188 -24.9716796875 l 5,845,-1
 106.75390625 -23.01953125 l 6,846,847
 98.0107421875 -18.921875 98.0107421875 -18.921875 93.9130859375 -10.1787109375 c 6,848,-1
 91.9609375 -6.013671875 l 5,849,-1
 91.7734375 81.8876953125 l 5,850,-1
 91.5869140625 169.353515625 l 5,851,-1
 74.9990234375 169.353515625 l 6,852,853
 57.3408203125 169.353515625 57.3408203125 169.353515625 54.0419921875 171.329101562 c 4,854,855
 51.779296875 172.684570312 51.779296875 172.684570312 51.1171875 175.845703125 c 4,856,857
 50.654296875 178.057617188 50.654296875 178.057617188 50.654296875 184.080078125 c 4,858,859
 50.654296875 190.305664062 50.654296875 190.305664062 51.544921875 193.231445312 c 132,-1,860
 52.4599609375 196.237304688 52.4599609375 196.237304688 54.892578125 197.760742188 c 4,861,862
 55.6484375 198.234375 55.6484375 198.234375 56.4091796875 198.717773438 c 4,863,864
 56.794921875 198.962890625 56.794921875 198.962890625 57.037109375 199.122070312 c 6,865,-1
 56.9033203125 199.46875 l 6,866,867
 56.6328125 200.053710938 56.6328125 200.053710938 56.1376953125 200.811523438 c 4,868,869
 54.8076171875 202.838867188 54.8076171875 202.838867188 55.3349609375 204.661132812 c 132,-1,870
 55.8642578125 206.490234375 55.8642578125 206.490234375 58.05078125 207.397460938 c 4,871,872
 59.1748046875 207.86328125 59.1748046875 207.86328125 59.451171875 208.010742188 c 4,873,-1
 59.7119140625 208.8203125 l 6,874,875
 59.5673828125 209.098632812 59.5673828125 209.098632812 58.9140625 210.095703125 c 4,876,877
 57.6591796875 212.008789062 57.6591796875 212.008789062 58.310546875 213.7265625 c 132,-1,878
 58.947265625 215.407226562 58.947265625 215.407226562 61.3017578125 216.530273438 c 6,879,-1
 63.3349609375 217.5 l 5,880,-1
 62.0908203125 219.24609375 l 6,881,882
 61.123046875 220.604492188 61.123046875 220.604492188 60.9755859375 221.418945312 c 132,-1,883
 60.8212890625 222.262695312 60.8212890625 222.262695312 61.3564453125 223.439453125 c 4,884,885
 61.7080078125 224.2109375 61.7080078125 224.2109375 62.271484375 224.771484375 c 132,-1,886
 62.8916015625 225.387695312 62.8916015625 225.387695312 63.431640625 225.387695312 c 4,887,888
 63.751953125 225.387695312 63.751953125 225.387695312 64.373046875 225.657226562 c 132,-1,889
 65.0283203125 225.94140625 65.0283203125 225.94140625 65.5703125 226.337890625 c 132,-1,890
 66.126953125 226.744140625 66.126953125 226.744140625 66.287109375 226.912109375 c 4,891,-1
 66.1494140625 227.59375 l 6,892,893
 65.951171875 227.846679688 65.951171875 227.846679688 65.2392578125 228.60546875 c 4,894,895
 63.5927734375 230.358398438 63.5927734375 230.358398438 63.7451171875 232.243164062 c 132,-1,896
 63.8994140625 234.173828125 63.8994140625 234.173828125 65.8203125 235.126953125 c 4,897,898
 68.01171875 236.215820312 68.01171875 236.215820312 68.2880859375 236.881835938 c 4,899,900
 68.408203125 237.174804688 68.408203125 237.174804688 68.232421875 237.555664062 c 132,-1,901
 68.033203125 237.984375 68.033203125 237.984375 67.408203125 238.6484375 c 4,902,903
 66.3056640625 239.822265625 66.3056640625 239.822265625 65.943359375 240.829101562 c 132,-1,904
 65.5478515625 241.930664062 65.5478515625 241.930664062 65.962890625 242.990234375 c 4,905,906
 66.6982421875 244.866210938 66.6982421875 244.866210938 70.6806640625 247.36328125 c 4,907,908
 71.166015625 247.666992188 71.166015625 247.666992188 71.306640625 247.815429688 c 132,-1,909
 71.3388671875 248.125976562 71.3388671875 248.125976562 71.0283203125 248.474609375 c 132,-1,910
 70.7421875 248.795898438 70.7421875 248.795898438 69.9814453125 249.521484375 c 132,-1,911
 69.138671875 250.326171875 69.138671875 250.326171875 68.5361328125 251.220703125 c 132,-1,912
 67.8955078125 252.173828125 67.8955078125 252.173828125 67.8955078125 252.715820312 c 4,913,914
 67.8955078125 253.69140625 67.8955078125 253.69140625 69.154296875 255.067382812 c 132,-1,915
 70.35546875 256.3828125 70.35546875 256.3828125 72.0205078125 257.34375 c 4,916,917
 72.4853515625 257.612304688 72.4853515625 257.612304688 72.6171875 257.74609375 c 4,918,-1
 72.6767578125 257.879882812 l 6,919,920
 72.064453125 258.719726562 72.064453125 258.719726562 71.34375 259.439453125 c 132,-1,921
 70.529296875 260.254882812 70.529296875 260.254882812 69.9482421875 261.17578125 c 132,-1,922
 69.33203125 262.149414062 69.33203125 262.149414062 69.33203125 262.711914062 c 4,923,924
 69.33203125 263.712890625 69.33203125 263.712890625 70.5390625 265.065429688 c 132,-1,925
 71.685546875 266.350585938 71.685546875 266.350585938 73.51171875 267.513671875 c 4,926,927
 74.0302734375 267.842773438 74.0302734375 267.842773438 74.1796875 267.9921875 c 4,928,-1
 74.265625 268.083007812 l 5,929,-1
 74.2666015625 268.088867188 l 5,930,-1
 74.265625 268.091796875 l 5,931,-1
 73.9287109375 268.544921875 l 6,932,933
 73.654296875 268.818359375 73.654296875 268.818359375 72.8720703125 269.477539062 c 4,934,935
 70.787109375 271.237304688 70.787109375 271.237304688 70.8642578125 273.024414062 c 132,-1,936
 70.9404296875 274.803710938 70.9404296875 274.803710938 73.162109375 276.541992188 c 6,937,-1
 75.0234375 277.999023438 l 5,938,-1
 73.5458984375 278.966796875 l 6,939,940
 71.2890625 280.4453125 71.2890625 280.4453125 71.404296875 282.650390625 c 132,-1,941
 71.5185546875 284.852539062 71.5185546875 284.852539062 73.9189453125 286.094726562 c 6,942,-1
 75.7255859375 287.029296875 l 5,943,-1
 73.7548828125 289.063476562 l 6,944,945
 71.673828125 291.2109375 71.673828125 291.2109375 71.779296875 292.926757812 c 132,-1,946
 71.8857421875 294.6640625 71.8857421875 294.6640625 74.21875 296.193359375 c 4,947,948
 75.09375 296.765625 75.09375 296.765625 75.3974609375 297.084960938 c 132,-1,949
 75.6884765625 297.391601562 75.6884765625 297.391601562 75.6640625 297.658203125 c 132,-1,950
 75.6337890625 297.981445312 75.6337890625 297.981445312 75.197265625 298.536132812 c 132,-1,951
 74.794921875 299.047851562 74.794921875 299.047851562 73.748046875 300.094726562 c 132,-1,952
 72.8408203125 301.001953125 72.8408203125 301.001953125 72.1884765625 301.899414062 c 4,953,954
 71.875 302.331054688 71.875 302.331054688 71.69921875 302.6640625 c 4,955,956
 71.4873046875 303.579101562 71.4873046875 303.579101562 71.71875 303.983398438 c 132,-1,957
 71.9091796875 304.315429688 71.9091796875 304.315429688 72.2509765625 304.748046875 c 4,958,959
 72.9462890625 305.631835938 72.9462890625 305.631835938 73.9384765625 306.547851562 c 4,960,961
 75.4326171875 307.923828125 75.4326171875 307.923828125 75.5869140625 308.323242188 c 4,962,963
 75.4873046875 308.608398438 75.4873046875 308.608398438 75.115234375 308.821289062 c 4,964,965
 72.0966796875 310.54296875 72.0966796875 310.54296875 71.57421875 312.934570312 c 132,-1,966
 71.033203125 315.409179688 71.033203125 315.409179688 73.4462890625 316.990234375 c 4,967,968
 74.314453125 317.557617188 74.314453125 317.557617188 74.677734375 317.94140625 c 4,969,970
 74.9384765625 318.7109375 74.9384765625 318.7109375 74.5478515625 319.028320312 c 132,-1,971
 74.1103515625 319.3828125 74.1103515625 319.3828125 73.1171875 319.897460938 c 4,972,973
 70.8564453125 321.06640625 70.8564453125 321.06640625 70.7705078125 323.172851562 c 132,-1,974
 70.6865234375 325.224609375 70.6865234375 325.224609375 72.7431640625 327.370117188 c 6,975,-1
 74.28515625 328.979492188 l 5,976,-1
 72.4990234375 329.90234375 l 6,977,978
 69.55078125 331.427734375 69.55078125 331.427734375 69.16796875 333.71875 c 132,-1,979
 68.7802734375 336.037109375 68.7802734375 336.037109375 71.1767578125 338.025390625 c 4,980,981
 71.7724609375 338.517578125 71.7724609375 338.517578125 72.0048828125 338.958007812 c 132,-1,982
 72.201171875 339.330078125 72.201171875 339.330078125 72.11328125 339.65234375 c 4,983,984
 71.908203125 340.397460938 71.908203125 340.397460938 70.263671875 341.080078125 c 4,985,986
 67.9326171875 342.044921875 67.9326171875 342.044921875 67.44921875 343.962890625 c 132,-1,987
 66.9609375 345.8984375 66.9609375 345.8984375 68.623046875 347.666992188 c 4,988,989
 69.4130859375 348.505859375 69.4130859375 348.505859375 69.7099609375 349.022460938 c 132,-1,990
 69.990234375 349.513671875 69.990234375 349.513671875 69.916015625 349.866210938 c 132,-1,991
 69.837890625 350.234375 69.837890625 350.234375 69.337890625 350.673828125 c 132,-1,992
 68.8310546875 351.119140625 68.8310546875 351.119140625 67.712890625 351.780273438 c 4,993,994
 65.43359375 353.124023438 65.43359375 353.124023438 65.130859375 354.666015625 c 132,-1,995
 64.8203125 356.248046875 64.8203125 356.248046875 66.576171875 357.838867188 c 4,996,997
 67.2890625 358.483398438 67.2890625 358.483398438 67.58984375 359.002929688 c 132,-1,998
 67.859375 359.469726562 67.859375 359.469726562 67.796875 359.856445312 c 4,999,1000
 67.666015625 360.668945312 67.666015625 360.668945312 65.9560546875 361.552734375 c 4,1001,1002
 63.4140625 362.866210938 63.4140625 362.866210938 62.884765625 364.358398438 c 132,-1,1003
 62.3447265625 365.877929688 62.3447265625 365.877929688 63.677734375 368.0703125 c 4,1004,1005
 64.4345703125 369.314453125 64.4345703125 369.314453125 64.6708984375 369.834960938 c 132,-1,1006
 64.94140625 370.431640625 64.94140625 370.431640625 64.8828125 370.727539062 c 4,1007,1008
 64.0390625 371.53125 64.0390625 371.53125 62.9521484375 372.021484375 c 4,1009,1010
 60.287109375 373.22265625 60.287109375 373.22265625 59.646484375 374.662109375 c 132,-1,1011
 58.98828125 376.139648438 58.98828125 376.139648438 60.220703125 378.295898438 c 4,1012,1013
 61.3388671875 380.251953125 61.3388671875 380.251953125 61.365234375 380.908203125 c 4,1014,1015
 61.1220703125 381.278320312 61.1220703125 381.278320312 60.6787109375 381.278320312 c 132,-1,1016
 60.1201171875 381.278320312 60.1201171875 381.278320312 59.18359375 381.85546875 c 132,-1,1017
 58.2978515625 382.400390625 58.2978515625 382.400390625 57.53515625 383.163085938 c 4,1018,1019
 56.1845703125 384.512695312 56.1845703125 384.512695312 56.05859375 385.237304688 c 132,-1,1020
 55.9345703125 385.950195312 55.9345703125 385.950195312 56.716796875 387.82421875 c 4,1021,1022
 57.1435546875 388.848632812 57.1435546875 388.848632812 57.2470703125 389.23828125 c 132,-1,1023
 57.3779296875 389.734375 57.3779296875 389.734375 57.28515625 390.084960938 c 4,1024,1025
 57.130859375 390.6640625 57.130859375 390.6640625 55.4599609375 392.436523438 c 4,1026,1027
 52.064453125 396.03515625 52.064453125 396.03515625 51.3232421875 402.0625 c 132,-1,1028
 50.5947265625 407.987304688 50.5947265625 407.987304688 50.787109375 429.90234375 c 4,1029,1030
 50.9501953125 448.341796875 50.9501953125 448.341796875 51.189453125 452.232421875 c 4,1031,1032
 51.34765625 454.78125 51.34765625 454.78125 51.6708984375 455.948242188 c 4,1033,1034
 51.9267578125 456.870117188 51.9267578125 456.870117188 52.56640625 457.7265625 c 4,1035,1036
 54.078125 459.750976562 54.078125 459.750976562 56.1025390625 461.262695312 c 4,1037,1038
 56.970703125 461.911132812 56.970703125 461.911132812 57.9921875 462.166015625 c 4,1039,1040
 59.2978515625 462.493164062 59.2978515625 462.493164062 62.341796875 462.66015625 c 4,1041,1042
 66.9697265625 462.916015625 66.9697265625 462.916015625 89.6748046875 463.174804688 c 6,1043,-1
 120.698242188 463.530273438 l 5,1044,-1
 120.881835938 510.3515625 l 5,1045,-1
 121.067382812 557.692382812 l 5,1046,-1
 123.344726562 559.608398438 l 5,1047,-1
 125.366210938 561.309570312 l 5,1048,-1
 125.366210938 607.5625 l 5,1049,-1
 125.366210938 654.0234375 l 5,1050,-1
 129.307617188 670.561523438 l 6,1051,1052
 130.9375 677.396484375 130.9375 677.396484375 132.309570312 682.63671875 c 4,1053,1054
 132.944335938 685.063476562 132.944335938 685.063476562 133.397460938 686.641601562 c 4,1055,1056
 133.622070312 687.416992188 133.622070312 687.416992188 133.774414062 687.8828125 c 132,-1,1057
 133.940429688 688.396484375 133.940429688 688.396484375 134.030273438 688.563476562 c 4,1058,1059
 135.540039062 691.3828125 135.540039062 691.3828125 139.10546875 690.64453125 c 132,-1,1060
 142.626953125 689.916015625 142.626953125 689.916015625 143.459960938 686.668945312 c 4,1061,1062
 144.01171875 684.517578125 144.01171875 684.517578125 147.614257812 669.540039062 c 6,1063,-1
 151.228515625 654.514648438 l 5,1064,-1
 151.228515625 607.701171875 l 5,1065,-1
 151.228515625 561.103515625 l 5,1066,-1
 153.069335938 559.635742188 l 5,1067,-1
 155.178710938 557.954101562 l 5,1068,-1
 155.375 510.44921875 l 5,1069,-1
 155.568359375 463.360351562 l 5,1070,-1
 160.340820312 461.50390625 l 5,1071,-1
 165.276367188 459.583007812 l 5,1072,-1
 224.743164062 459.583007812 l 6,1073,1074
 255.63671875 459.583007812 255.63671875 459.583007812 270.561523438 459.772460938 c 4,1075,1076
 278.137695312 459.869140625 278.137695312 459.869140625 282.0234375 460.016601562 c 4,1077,1078
 283.979492188 460.090820312 283.979492188 460.090820312 285.100585938 460.1796875 c 132,-1,1079
 286.166992188 460.264648438 286.166992188 460.264648438 286.418945312 460.352539062 c 6,1080,-1
 288.44140625 461.056640625 l 5,1081,-1
 288.44140625 509.170898438 l 5,1082,-1
 288.44140625 557.713867188 l 5,1083,-1
 290.5546875 559.375 l 5,1084,-1
 292.392578125 560.821289062 l 5,1085,-1
 292.515625 607.817382812 l 5,1086,-1
 292.637695312 655.032226562 l 5,1087,-1
 296.971679688 671.93359375 l 6,1088,1089
 300.30078125 684.915039062 300.30078125 684.915039062 301.598632812 687.814453125 c 4,1090,1091
 302.435546875 689.685546875 302.435546875 689.685546875 303.407226562 690.34765625 c 132,-1,590
 304.22265625 690.905273438 304.22265625 690.905273438 305.682617188 690.905273438 c 132,-1,591
168.469726562 422.2265625 m 5,1092,-1
 168.458984375 299.561523438 l 6,1093,1094
 168.453125 244.272460938 168.453125 244.272460938 168.26953125 210.196289062 c 4,1095,1096
 168.180664062 193.727539062 168.180664062 193.727539062 168.05859375 184.801757812 c 4,1097,1098
 167.999023438 180.412109375 167.999023438 180.412109375 167.9296875 177.978515625 c 4,1099,1100
 167.896484375 176.798828125 167.896484375 176.798828125 167.859375 176.163085938 c 4,1101,-1
 167.80078125 175.495117188 l 6,1102,1103
 167.495117188 174.9296875 167.495117188 174.9296875 167.418945312 174.522460938 c 6,1104,-1
 167.42578125 174.184570312 l 6,1105,1106
 167.803710938 174.1484375 167.803710938 174.1484375 168.387695312 174.12109375 c 4,1107,1108
 169.528320312 174.067382812 169.528320312 174.067382812 171.815429688 174.014648438 c 4,1109,1110
 176.329101562 173.91015625 176.329101562 173.91015625 184.299804688 173.83203125 c 4,1111,1112
 201.34375 173.6640625 201.34375 173.6640625 225.084960938 173.6640625 c 6,1113,-1
 282.334960938 173.6640625 l 5,1114,-1
 282.154296875 297.047851562 l 6,1115,1116
 282.078125 348.850585938 282.078125 348.850585938 281.9296875 384.704101562 c 4,1117,1118
 281.858398438 401.973632812 281.858398438 401.973632812 281.783203125 411.573242188 c 4,1119,1120
 281.747070312 416.30859375 281.747070312 416.30859375 281.708984375 418.977539062 c 4,1121,1122
 281.69140625 420.274414062 281.69140625 420.274414062 281.673828125 420.946289062 c 4,1123,-1
 281.65625 421.483398438 l 5,1124,-1
 281.24609375 421.576171875 l 6,1125,1126
 280.603515625 421.682617188 280.603515625 421.682617188 279.235351562 421.768554688 c 4,1127,1128
 276.41796875 421.944335938 276.41796875 421.944335938 270.122070312 422.04296875 c 4,1129,1130
 258.430664062 422.2265625 258.430664062 422.2265625 224.885742188 422.2265625 c 6,1131,-1
 168.469726562 422.2265625 l 5,1092,-1
EndSplineSet
EndChar

StartChar: uni008C
Encoding: 140 140 103
Width: 450
GlyphClass: 2
Flags: W
LayerCount: 2
Fore
SplineSet
59.595703125 499.8359375 m 5,0,-1
 225 499.8359375 l 5,1,-1
 390.404296875 499.8359375 l 5,2,-1
 390.404296875 468.072265625 l 5,3,-1
 390.404296875 436.288085938 l 5,4,-1
 372 436.288085938 l 5,5,-1
 363.673828125 436.288085938 l 5,6,-1
 363.673828125 408.62890625 l 5,7,-1
 363.673828125 373.830078125 l 5,8,-1
 314.783203125 324.883789062 l 5,9,-1
 270.94921875 280.985351562 l 5,10,-1
 314.783203125 237.08984375 l 5,11,-1
 363.673828125 188.143554688 l 5,12,-1
 363.673828125 153.341796875 l 5,13,-1
 363.673828125 125.682617188 l 5,14,-1
 372 125.682617188 l 5,15,-1
 390.404296875 125.682617188 l 5,16,-1
 390.404296875 93.9013671875 l 5,17,-1
 390.404296875 62.1376953125 l 5,18,-1
 225 62.1376953125 l 5,19,-1
 59.595703125 62.1376953125 l 5,20,-1
 59.595703125 93.9013671875 l 5,21,-1
 59.595703125 125.682617188 l 5,22,-1
 78 125.682617188 l 5,23,-1
 86.326171875 125.682617188 l 5,24,-1
 86.326171875 153.341796875 l 5,25,-1
 86.326171875 188.143554688 l 5,26,-1
 135.216796875 237.08984375 l 5,27,-1
 179.05078125 280.985351562 l 5,28,-1
 135.216796875 324.883789062 l 5,29,-1
 86.326171875 373.830078125 l 5,30,-1
 86.326171875 408.62890625 l 5,31,-1
 86.326171875 436.288085938 l 5,32,-1
 78 436.288085938 l 5,33,-1
 59.595703125 436.288085938 l 5,34,-1
 59.595703125 468.072265625 l 5,35,-1
 59.595703125 499.8359375 l 5,0,-1
EndSplineSet
EndChar

StartChar: uni008D
Encoding: 141 141 104
Width: 450
GlyphClass: 2
Flags: W
LayerCount: 2
Fore
SplineSet
112.05078125 73.3544921875 m 4,0,1
 105.919921875 76.3759765625 105.919921875 76.3759765625 103.323242188 83.1875 c 132,-1,2
 100.7265625 90 100.7265625 90 103.49609375 95.7958984375 c 4,3,4
 105.27734375 99.5234375 105.27734375 99.5234375 145.563476562 144.016601562 c 6,5,-1
 185.850585938 188.510742188 l 5,6,-1
 149.48046875 189.060546875 l 6,7,8
 113.109375 189.609375 113.109375 189.609375 110.078125 191.875 c 4,9,10
 98.822265625 200.28515625 98.822265625 200.28515625 103.58203125 212.75 c 4,11,12
 105.489257812 217.744140625 105.489257812 217.744140625 109.96484375 220.706054688 c 6,13,-1
 114.440429688 223.666992188 l 5,14,-1
 172.198242188 223.666992188 l 6,15,16
 214.412109375 223.666992188 214.412109375 223.666992188 222.701171875 223.36328125 c 132,-1,17
 230.990234375 223.060546875 230.990234375 223.060546875 233.798828125 221.41015625 c 4,18,19
 242.622070312 216.2265625 242.622070312 216.2265625 242.552734375 206.201171875 c 4,20,21
 242.512695312 200.595703125 242.512695312 200.595703125 241.1796875 198.221679688 c 132,-1,22
 239.84375 195.844726562 239.84375 195.844726562 199.463867188 151.254882812 c 6,23,-1
 159.08203125 106.663085938 l 5,24,-1
 199.463867188 106.638671875 l 6,25,26
 239.844726562 106.614257812 239.844726562 106.614257812 244.34375 104.571289062 c 4,27,28
 254.002929688 100.184570312 254.002929688 100.184570312 254.022460938 89.31640625 c 132,-1,29
 254.041992188 78.4501953125 254.041992188 78.4501953125 244.400390625 73.7822265625 c 4,30,31
 240.9609375 72.1171875 240.9609375 72.1171875 232.013671875 71.814453125 c 132,-1,32
 223.06640625 71.513671875 223.06640625 71.513671875 177.700195312 71.53125 c 4,33,34
 115.698242188 71.556640625 115.698242188 71.556640625 112.05078125 73.3544921875 c 4,0,1
274.786132812 226.365234375 m 4,35,36
 263.720703125 233.111328125 263.720703125 233.111328125 266.874023438 245.631835938 c 4,37,38
 268.030273438 250.224609375 268.030273438 250.224609375 326.797851562 318.793945312 c 6,39,-1
 385.56640625 387.36328125 l 5,40,-1
 331.931640625 387.913085938 l 6,41,42
 292.381835938 388.318359375 292.381835938 388.318359375 284.833984375 388.705078125 c 132,-1,43
 277.287109375 389.091796875 277.287109375 389.091796875 274.452148438 390.857421875 c 4,44,45
 268.178710938 394.766601562 268.178710938 394.766601562 266.65625 401.866210938 c 132,-1,46
 265.1328125 408.96484375 265.1328125 408.96484375 269.237304688 415.166992188 c 4,47,48
 269.401367188 415.4140625 269.401367188 415.4140625 269.709960938 415.888671875 c 4,49,50
 273.271484375 421.350585938 273.271484375 421.350585938 283.1328125 422.221679688 c 132,-1,51
 292.993164062 423.09375 292.993164062 423.09375 348.594726562 422.858398438 c 4,52,53
 353.416992188 422.837890625 353.416992188 422.837890625 355.944335938 422.827148438 c 4,54,55
 411.053710938 422.599609375 411.053710938 422.599609375 421.077148438 422.26171875 c 132,-1,56
 431.099609375 421.924804688 431.099609375 421.924804688 433.3984375 420.221679688 c 4,57,58
 439.032226562 416.046875 439.032226562 416.046875 440.84765625 409.6953125 c 132,-1,59
 442.663085938 403.345703125 442.663085938 403.345703125 439.803710938 397.81640625 c 4,60,61
 438.165039062 394.645507812 438.165039062 394.645507812 380.337890625 327.283203125 c 6,62,-1
 322.51171875 259.921875 l 5,63,-1
 375.661132812 259.373046875 l 6,64,65
 428.809570312 258.823242188 428.809570312 258.823242188 432.651367188 256.56640625 c 4,66,67
 441.944335938 251.107421875 441.944335938 251.107421875 441.2109375 240.624023438 c 4,68,69
 440.461914062 229.904296875 440.461914062 229.904296875 432.236328125 226 c 4,70,71
 428.478515625 224.216796875 428.478515625 224.216796875 353.38671875 224.220703125 c 4,72,73
 299.017578125 224.223632812 299.017578125 224.223632812 288.172851562 224.51953125 c 132,-1,74
 277.328125 224.815429688 277.328125 224.815429688 274.786132812 226.365234375 c 4,35,36
19.5693359375 283.677734375 m 4,75,76
 12.8720703125 286.348632812 12.8720703125 286.348632812 9.921875 293.5625 c 132,-1,77
 6.970703125 300.776367188 6.970703125 300.776367188 9.923828125 307.2578125 c 4,78,79
 11.2666015625 310.203125 11.2666015625 310.203125 98.2333984375 401.517578125 c 6,80,-1
 185.200195312 492.83203125 l 5,81,-1
 102.46484375 493.381835938 l 6,82,83
 41.11328125 493.7890625 41.11328125 493.7890625 30.01953125 494.157226562 c 132,-1,84
 18.9267578125 494.525390625 18.9267578125 494.525390625 16.6279296875 496.229492188 c 4,85,86
 8.5380859375 502.224609375 8.5380859375 502.224609375 8.5380859375 510.959960938 c 132,-1,87
 8.5380859375 519.6953125 8.5380859375 519.6953125 16.6279296875 525.690429688 c 4,88,89
 18.9453125 527.407226562 18.9453125 527.407226562 32.63671875 527.734375 c 132,-1,90
 46.328125 528.061523438 46.328125 528.061523438 124.915039062 528.279296875 c 6,91,-1
 230.099609375 528.5703125 l 5,92,-1
 234.856445312 526.0546875 l 6,93,94
 244.1640625 521.1328125 244.1640625 521.1328125 243.424804688 509.760742188 c 4,95,96
 243.025390625 503.619140625 243.025390625 503.619140625 240.725585938 500.6953125 c 132,-1,97
 238.42578125 497.771484375 238.42578125 497.771484375 152.594726562 407.685546875 c 6,98,-1
 66.763671875 317.600585938 l 5,99,-1
 153.303710938 317.576171875 l 6,100,101
 239.845703125 317.551757812 239.845703125 317.551757812 244.34375 315.508789062 c 4,102,103
 254 311.123046875 254 311.123046875 254 300.022460938 c 132,-1,104
 254 288.920898438 254 288.920898438 244.34375 284.536132812 c 4,105,106
 239.845703125 282.4921875 239.845703125 282.4921875 131.080078125 282.538085938 c 132,-1,107
 22.3134765625 282.583007812 22.3134765625 282.583007812 19.5693359375 283.677734375 c 4,75,76
EndSplineSet
EndChar

StartChar: uni008E
Encoding: 142 142 105
Width: 450
GlyphClass: 2
Flags: W
LayerCount: 2
Fore
SplineSet
45 36.5 m 1,0,-1
 405 36.5 l 1,1,-1
 405 -31.5 l 1,2,-1
 45 -31.5 l 1,3,-1
 45 36.5 l 1,0,-1
19.7998046875 256.5 m 1,4,-1
 19 256.5 l 1,5,-1
 67 305.299804688 l 1,6,-1
 191 181.299804688 l 1,7,-1
 191 556.5 l 1,8,-1
 259 556.5 l 1,9,-1
 259 181.299804688 l 1,10,-1
 383 305.299804688 l 1,11,-1
 431 256.5 l 1,12,-1
 225.400390625 50.900390625 l 1,13,-1
 19.7998046875 256.5 l 1,4,-1
EndSplineSet
EndChar

StartChar: uni0097
Encoding: 151 151 106
Width: 450
GlyphClass: 2
Flags: W
LayerCount: 2
Fore
SplineSet
0 -200 m 1,0,-1
 0 200 l 5,1,-1
 450 200 l 5,2,-1
 450 -200 l 1,3,-1
 0 -200 l 1,0,-1
EndSplineSet
EndChar

StartChar: uni0098
Encoding: 152 152 107
Width: 450
GlyphClass: 2
Flags: W
LayerCount: 2
Fore
SplineSet
0 -200 m 1,0,-1
 0 400 l 5,1,-1
 450 400 l 5,2,-1
 450 -200 l 1,3,-1
 0 -200 l 1,0,-1
EndSplineSet
EndChar

StartChar: uni0099
Encoding: 153 153 108
Width: 450
GlyphClass: 2
Flags: W
LayerCount: 2
Fore
SplineSet
0 -200 m 1,0,-1
 0 600 l 5,1,-1
 450 600 l 5,2,-1
 450 -200 l 1,3,-1
 0 -200 l 1,0,-1
EndSplineSet
EndChar

StartChar: uni009A
Encoding: 154 154 109
Width: 450
GlyphClass: 2
Flags: W
LayerCount: 2
Fore
SplineSet
0 -200 m 1,0,-1
 0 800 l 1,1,-1
 450 800 l 1,2,-1
 450 -200 l 1,3,-1
 0 -200 l 1,0,-1
EndSplineSet
EndChar

StartChar: sterling
Encoding: 163 163 118
Width: 450
GlyphClass: 2
Flags: W
LayerCount: 2
Fore
SplineSet
247 709 m 1,0,-1
 247 709 l 1,1,2
 311 709 311 709 356.5 663.5 c 128,-1,3
 402 618 402 618 402 554 c 1,4,-1
 313 554 l 1,5,6
 313 581 313 581 294 600.5 c 128,-1,7
 275 620 275 620 247 620 c 128,-1,8
 219 620 219 620 200 600.5 c 128,-1,9
 181 581 181 581 181 554 c 2,10,-1
 181 399 l 1,11,-1
 291 399 l 1,12,-1
 291 310 l 1,13,-1
 181 310 l 1,14,-1
 181 133 l 2,15,16
 181 110 181 110 173 89 c 1,17,-1
 402 89 l 1,18,-1
 402 0 l 1,19,-1
 48 0 l 1,20,-1
 48 89 l 1,21,22
 66 89 66 89 79 102 c 128,-1,23
 92 115 92 115 92 133 c 2,24,-1
 92 310 l 1,25,-1
 48 310 l 1,26,-1
 48 399 l 1,27,-1
 92 399 l 1,28,-1
 92 554 l 2,29,30
 92 618 92 618 137.5 663.5 c 128,-1,31
 183 709 183 709 247 709 c 1,0,-1
EndSplineSet
EndChar

StartChar: section
Encoding: 167 167 122
Width: 812
GlyphClass: 2
Flags: W
LayerCount: 2
Fore
SplineSet
253 531 m 1,0,-1
 355 531 l 1,1,-1
 311 455 l 1,2,-1
 418 269 l 1,3,-1
 420 266 l 1,4,-1
 573 531 l 1,5,-1
 675 531 l 1,6,-1
 631 455 l 1,7,-1
 738 269 l 2,8,9
 764 227 764 227 764 177 c 0,10,11
 764 104 764 104 712 52 c 128,-1,12
 660 0 660 0 587 0 c 0,13,14
 535 0 535 0 492 27.5 c 128,-1,15
 449 55 449 55 427 101 c 1,16,-1
 421 91 l 2,17,18
 397 49 397 49 356 24.5 c 128,-1,19
 315 0 315 0 266 0 c 0,20,21
 214 0 214 0 171 27.5 c 128,-1,22
 128 55 128 55 106 101 c 1,23,-1
 48 0 l 1,24,-1
 48 177 l 1,25,-1
 253 531 l 1,0,-1
260 366 m 1,26,-1
 178 225 l 1,27,-1
 178 177 l 2,28,29
 178 140 178 140 204 114.5 c 128,-1,30
 230 89 230 89 266.5 89 c 128,-1,31
 303 89 303 89 329 114.5 c 128,-1,32
 355 140 355 140 355 177 c 0,33,34
 355 201 355 201 343 221 c 2,35,-1
 260 366 l 1,26,-1
580 366 m 1,36,-1
 498 225 l 1,37,-1
 498 177 l 2,38,39
 498 140 498 140 524 114.5 c 128,-1,40
 550 89 550 89 587 89 c 128,-1,41
 624 89 624 89 649.5 114.5 c 128,-1,42
 675 140 675 140 675 177 c 0,43,44
 675 201 675 201 664 221 c 1,45,-1
 664 221 l 1,46,-1
 580 366 l 1,36,-1
EndSplineSet
EndChar

StartChar: copyright
Encoding: 169 169 124
Width: 716
GlyphClass: 2
Flags: W
LayerCount: 2
Fore
SplineSet
358 707 m 128,-1,1
 486 707 486 707 577 616 c 128,-1,2
 668 525 668 525 668 397 c 2,3,-1
 668 310 l 2,4,5
 668 182 668 182 577 91 c 128,-1,6
 486 0 486 0 358 0 c 128,-1,7
 230 0 230 0 139 91 c 128,-1,8
 48 182 48 182 48 310 c 1,9,-1
 48 310 l 1,10,-1
 48 397 l 1,11,-1
 48 397 l 1,12,13
 48 525 48 525 139 616 c 128,-1,0
 230 707 230 707 358 707 c 128,-1,1
358 619 m 128,-1,15
 266 619 266 619 201.5 554 c 128,-1,16
 137 489 137 489 136 397 c 2,17,-1
 136 310 l 2,18,19
 137 218 137 218 201.5 153 c 128,-1,20
 266 88 266 88 358 88 c 128,-1,21
 450 88 450 88 514.5 153 c 128,-1,22
 579 218 579 218 579 310 c 2,23,-1
 579 397 l 2,24,25
 579 489 579 489 514.5 554 c 128,-1,14
 450 619 450 619 358 619 c 128,-1,15
358 554 m 0,26,27
 421 554 421 554 467 508 c 128,-1,28
 513 462 513 462 513 399 c 2,29,-1
 513 310 l 2,30,31
 513 247 513 247 467 201 c 128,-1,32
 421 155 421 155 358 155 c 1,33,-1
 358 155 l 1,34,35
 293 155 293 155 248 200.5 c 128,-1,36
 203 246 203 246 203 310 c 1,37,-1
 292 310 l 1,38,39
 292 282 292 282 311 263 c 128,-1,40
 330 244 330 244 358 244 c 128,-1,41
 386 244 386 244 405 263 c 128,-1,42
 424 282 424 282 424 310 c 2,43,-1
 424 399 l 2,44,45
 424 426 424 426 404.5 445.5 c 128,-1,46
 385 465 385 465 357.5 465 c 128,-1,47
 330 465 330 465 311 445.5 c 128,-1,48
 292 426 292 426 292 399 c 1,49,-1
 203 399 l 1,50,51
 203 463 203 463 248.5 508.5 c 128,-1,52
 294 554 294 554 358 554 c 0,26,27
EndSplineSet
EndChar

StartChar: guillemotleft
Encoding: 171 171 126
Width: 450
GlyphClass: 2
Flags: W
LayerCount: 2
Fore
SplineSet
224 377 m 2,0,1
 224 379 224 379 226 381 c 2,2,-1
 389 510 l 2,3,4
 391 512 391 512 393.5 510.5 c 128,-1,5
 396 509 396 509 396 506 c 2,6,-1
 396 429 l 2,7,8
 396 427 396 427 394 426 c 2,9,-1
 279 332 l 1,10,-1
 394 237 l 1,11,12
 394 237 394 237 396 233 c 2,13,-1
 396 156 l 2,14,15
 396 153 396 153 393.5 152 c 128,-1,16
 391 151 391 151 389 152 c 2,17,-1
 226 284 l 2,18,19
 224 285 224 285 224 287 c 2,20,-1
 224 377 l 2,0,1
54 377 m 2,21,22
 54 379 54 379 56 381 c 2,23,-1
 219 510 l 2,24,25
 221 512 221 512 223.5 510.5 c 128,-1,26
 226 509 226 509 226 506 c 2,27,-1
 226 429 l 2,28,29
 226 427 226 427 224 426 c 2,30,-1
 109 332 l 1,31,-1
 224 237 l 1,32,-1
 226 233 l 1,33,-1
 226 156 l 2,34,35
 226 153 226 153 223.5 152 c 128,-1,36
 221 151 221 151 219 152 c 2,37,-1
 56 284 l 2,38,39
 54 285 54 285 54 287 c 2,40,-1
 54 377 l 2,21,22
EndSplineSet
EndChar

StartChar: degree
Encoding: 176 176 131
Width: 260
GlyphClass: 2
Flags: W
LayerCount: 2
Fore
SplineSet
128 800 m 2,0,-1
 130 800 l 2,1,2
 162 800 162 800 184.5 777.5 c 128,-1,3
 207 755 207 755 207 722.5 c 128,-1,4
 207 690 207 690 184.5 667.5 c 128,-1,5
 162 645 162 645 130 645 c 128,-1,6
 98 645 98 645 75 667.5 c 128,-1,7
 52 690 52 690 52 723 c 0,8,9
 52 754 52 754 74.5 776.5 c 128,-1,10
 97 799 97 799 128 800 c 2,0,-1
130 754 m 128,-1,12
 117 754 117 754 108 744.5 c 128,-1,13
 99 735 99 735 99 722.5 c 128,-1,14
 99 710 99 710 108 701 c 128,-1,15
 117 692 117 692 130 692 c 128,-1,16
 143 692 143 692 152 701 c 128,-1,17
 161 710 161 710 161 722.5 c 128,-1,18
 161 735 161 735 152 744.5 c 128,-1,11
 143 754 143 754 130 754 c 128,-1,12
EndSplineSet
EndChar

StartChar: uni00B5
Encoding: 181 181 136
Width: 450
GlyphClass: 2
Flags: W
LayerCount: 2
Fore
SplineSet
48 532 m 1,0,-1
 136 532 l 1,1,-1
 136 331 l 1,2,-1
 136 222 l 1,3,-1
 136 177 l 2,4,5
 136 140 136 140 162 114.5 c 128,-1,6
 188 89 188 89 225 89 c 128,-1,7
 262 89 262 89 287.5 114.5 c 128,-1,8
 313 140 313 140 313 177 c 2,9,-1
 313 330 l 1,10,-1
 313 532 l 1,11,-1
 402 532 l 1,12,-1
 402 177 l 1,13,-1
 402 0 l 1,14,-1
 313 0 l 1,15,-1
 313 24 l 1,16,17
 272 0 272 0 224.5 0 c 128,-1,18
 177 0 177 0 136 24 c 1,19,-1
 136 -133 l 1,20,-1
 48 -133 l 1,21,-1
 48 177 l 1,22,-1
 48 222 l 1,23,-1
 48 532 l 1,0,-1
EndSplineSet
EndChar

StartChar: guillemotright
Encoding: 187 187 142
Width: 450
GlyphClass: 2
Flags: W
LayerCount: 2
Fore
SplineSet
226 285 m 2,0,1
 226 283 226 283 224 282 c 2,2,-1
 61 152 l 2,3,4
 59 151 59 151 56.5 152 c 128,-1,5
 54 153 54 153 54 156 c 2,6,-1
 54 233 l 2,7,8
 54 236 54 236 56 237 c 2,9,-1
 171 330 l 1,10,-1
 56 426 l 1,11,12
 56 426 56 426 54 429 c 2,13,-1
 54 506 l 2,14,15
 54 509 54 509 56.5 510.5 c 128,-1,16
 59 512 59 512 61 510 c 2,17,-1
 224 379 l 2,18,19
 226 377 226 377 226 375 c 2,20,-1
 226 285 l 2,0,1
396 285 m 2,21,22
 396 283 396 283 394 282 c 2,23,-1
 231 152 l 2,24,25
 229 151 229 151 226.5 152 c 128,-1,26
 224 153 224 153 224 156 c 2,27,-1
 224 233 l 2,28,29
 224 236 224 236 226 237 c 2,30,-1
 341 330 l 1,31,-1
 226 426 l 1,32,-1
 224 429 l 1,33,-1
 224 506 l 2,34,35
 224 509 224 509 226.5 510.5 c 128,-1,36
 229 512 229 512 231 510 c 2,37,-1
 394 379 l 2,38,39
 396 377 396 377 396 375 c 2,40,-1
 396 285 l 2,21,22
EndSplineSet
EndChar

StartChar: Agrave
Encoding: 192 192 147
Width: 450
GlyphClass: 2
Flags: W
LayerCount: 2
Fore
SplineSet
144 848 m 1,0,-1
 232 848 l 1,1,-1
 321 715 l 1,2,-1
 254 715 l 1,3,-1
 144 848 l 1,0,-1
399 6 m 1,4,5
 399 6 399 6 399 5 c 0,6,7
 399 0 399 0 394 0 c 2,8,-1
 317 0 l 2,9,10
 312 0 312 0 312 4 c 2,11,-1
 289 127 l 2,12,13
 288 131 288 131 284 131 c 2,14,-1
 167 131 l 2,15,16
 162 131 162 131 161 127 c 2,17,-1
 138 4 l 2,18,19
 138 0 138 0 133 0 c 2,20,-1
 56 0 l 1,21,22
 56 0 56 0 56 0 c 1,23,24
 50 1 50 1 51 6 c 2,25,-1
 181 695 l 2,26,27
 181 699 181 699 186 699 c 2,28,-1
 264 699 l 2,29,30
 269 699 269 699 270 695 c 2,31,-1
 399 6 l 1,4,5
265 219 m 2,32,33
 270 219 270 219 270 224 c 2,34,35
 270 224 270 224 270 225 c 2,36,-1
 230 439 l 2,37,38
 229 444 229 444 224 443 c 0,39,40
 221 442 221 442 220 439 c 2,41,-1
 180 225 l 2,42,43
 179 220 179 220 184 219 c 2,44,45
 184 219 184 219 185 219 c 2,46,-1
 265 219 l 2,32,33
EndSplineSet
EndChar

StartChar: Aacute
Encoding: 193 193 148
Width: 450
GlyphClass: 2
Flags: W
LayerCount: 2
Fore
SplineSet
234 848 m 1,0,-1
 322 848 l 1,1,-1
 211 715 l 1,2,-1
 145 715 l 1,3,-1
 234 848 l 1,0,-1
399 6 m 1,4,5
 399 6 399 6 399 5 c 0,6,7
 399 0 399 0 394 0 c 2,8,-1
 317 0 l 2,9,10
 312 0 312 0 312 4 c 2,11,-1
 289 127 l 2,12,13
 288 131 288 131 284 131 c 2,14,-1
 167 131 l 2,15,16
 162 131 162 131 161 127 c 2,17,-1
 138 4 l 2,18,19
 138 0 138 0 133 0 c 2,20,-1
 56 0 l 1,21,22
 56 0 56 0 56 0 c 1,23,24
 50 1 50 1 51 6 c 2,25,-1
 181 695 l 2,26,27
 181 699 181 699 186 699 c 2,28,-1
 264 699 l 2,29,30
 269 699 269 699 270 695 c 2,31,-1
 399 6 l 1,4,5
265 219 m 2,32,33
 270 219 270 219 270 224 c 2,34,35
 270 224 270 224 270 225 c 2,36,-1
 230 439 l 2,37,38
 229 444 229 444 224 443 c 0,39,40
 221 442 221 442 220 439 c 2,41,-1
 180 225 l 2,42,43
 179 220 179 220 184 219 c 2,44,45
 184 219 184 219 185 219 c 2,46,-1
 265 219 l 2,32,33
EndSplineSet
EndChar

StartChar: Acircumflex
Encoding: 194 194 149
Width: 450
GlyphClass: 2
Flags: W
LayerCount: 2
Fore
SplineSet
181 848 m 1,0,-1
 269 848 l 1,1,-1
 358 715 l 1,2,-1
 291 715 l 1,3,-1
 225 795 l 1,4,-1
 158 715 l 1,5,-1
 92 715 l 1,6,-1
 181 848 l 1,0,-1
399 6 m 1,7,8
 399 6 399 6 399 5 c 0,9,10
 399 0 399 0 394 0 c 2,11,-1
 317 0 l 2,12,13
 312 0 312 0 312 4 c 2,14,-1
 289 127 l 2,15,16
 288 131 288 131 284 131 c 2,17,-1
 167 131 l 2,18,19
 162 131 162 131 161 127 c 2,20,-1
 138 4 l 2,21,22
 138 0 138 0 133 0 c 2,23,-1
 56 0 l 1,24,25
 56 0 56 0 56 0 c 1,26,27
 50 1 50 1 51 6 c 2,28,-1
 181 695 l 2,29,30
 181 699 181 699 186 699 c 2,31,-1
 264 699 l 2,32,33
 269 699 269 699 270 695 c 2,34,-1
 399 6 l 1,7,8
265 219 m 2,35,36
 270 219 270 219 270 224 c 2,37,38
 270 224 270 224 270 225 c 2,39,-1
 230 439 l 2,40,41
 229 444 229 444 224 443 c 0,42,43
 221 442 221 442 220 439 c 2,44,-1
 180 225 l 2,45,46
 179 220 179 220 184 219 c 2,47,48
 184 219 184 219 185 219 c 2,49,-1
 265 219 l 2,35,36
EndSplineSet
EndChar

StartChar: Adieresis
Encoding: 196 196 151
Width: 450
GlyphClass: 2
Flags: W
LayerCount: 2
Fore
SplineSet
170 848 m 128,-1,1
 188 848 188 848 201 835 c 128,-1,2
 214 822 214 822 214 804 c 0,3,4
 214 799 214 799 213 795 c 0,5,6
 210 780 210 780 198 769.5 c 128,-1,7
 186 759 186 759 170 759 c 0,8,9
 152 759 152 759 139 772 c 128,-1,10
 126 785 126 785 126 803.5 c 128,-1,11
 126 822 126 822 139 835 c 128,-1,0
 152 848 152 848 170 848 c 128,-1,1
280.5 848 m 128,-1,13
 299 848 299 848 312 835 c 128,-1,14
 325 822 325 822 325 804 c 0,15,16
 325 799 325 799 324 795 c 0,17,18
 321 780 321 780 309 769.5 c 128,-1,19
 297 759 297 759 281 759 c 0,20,21
 262 759 262 759 249 772 c 128,-1,22
 236 785 236 785 236 803.5 c 128,-1,23
 236 822 236 822 249 835 c 128,-1,12
 262 848 262 848 280.5 848 c 128,-1,13
399 6 m 1,24,25
 399 6 399 6 399 5 c 0,26,27
 399 0 399 0 394 0 c 2,28,-1
 317 0 l 2,29,30
 312 0 312 0 312 4 c 2,31,-1
 289 127 l 2,32,33
 288 131 288 131 284 131 c 2,34,-1
 167 131 l 2,35,36
 162 131 162 131 161 127 c 2,37,-1
 138 4 l 2,38,39
 138 0 138 0 133 0 c 2,40,-1
 56 0 l 1,41,42
 56 0 56 0 56 0 c 1,43,44
 50 1 50 1 51 6 c 2,45,-1
 181 695 l 2,46,47
 181 699 181 699 186 699 c 2,48,-1
 264 699 l 2,49,50
 269 699 269 699 270 695 c 2,51,-1
 399 6 l 1,24,25
265 219 m 2,52,53
 270 219 270 219 270 224 c 2,54,55
 270 224 270 224 270 225 c 2,56,-1
 230 439 l 2,57,58
 229 444 229 444 224 443 c 0,59,60
 221 442 221 442 220 439 c 2,61,-1
 180 225 l 2,62,63
 179 220 179 220 184 219 c 2,64,65
 184 219 184 219 185 219 c 2,66,-1
 265 219 l 2,52,53
EndSplineSet
EndChar

StartChar: AE
Encoding: 198 198 153
Width: 450
GlyphClass: 2
Flags: W
LayerCount: 2
Fore
SplineSet
176 699 m 1,0,-1
 524 699 l 1,1,-1
 524 600 l 1,2,-1
 324 600 l 1,3,-1
 324 399 l 1,4,-1
 474 399 l 1,5,-1
 474 300 l 1,6,-1
 324 300 l 1,7,-1
 324 99 l 1,8,-1
 524 99 l 1,9,-1
 524 0 l 1,10,-1
 226 0 l 1,11,-1
 226 149 l 1,12,-1
 74 150 l 1,13,-1
 24 0 l 1,14,-1
 -74 0 l 1,15,-1
 176 699 l 1,0,-1
212 550 m 1,16,-1
 112 249 l 1,17,-1
 226 249 l 1,18,-1
 226 550 l 1,19,-1
 212 550 l 1,16,-1
EndSplineSet
EndChar

StartChar: Egrave
Encoding: 200 200 155
Width: 450
GlyphClass: 2
Flags: W
LayerCount: 2
Fore
SplineSet
144 848 m 1,0,-1
 232 848 l 1,1,-1
 321 715 l 1,2,-1
 254 715 l 1,3,-1
 144 848 l 1,0,-1
400 694 m 2,4,-1
 400 617 l 2,5,6
 400 612 400 612 395 612 c 2,7,-1
 143 612 l 2,8,9
 138 612 138 612 138 607 c 2,10,-1
 138 399 l 2,11,12
 138 393 138 393 143 393 c 2,13,-1
 307 393 l 2,14,15
 312 393 312 393 312 388 c 2,16,-1
 312 311 l 2,17,18
 312 306 312 306 307 306 c 2,19,-1
 143 306 l 2,20,21
 138 306 138 306 138 301 c 2,22,-1
 138 93 l 2,23,24
 138 87 138 87 143 87 c 2,25,-1
 395 87 l 2,26,27
 400 87 400 87 400 82 c 2,28,-1
 400 5 l 2,29,30
 400 0 400 0 395 0 c 2,31,-1
 55 0 l 2,32,33
 50 0 50 0 50 5 c 2,34,-1
 50 694 l 2,35,36
 50 699 50 699 55 699 c 2,37,-1
 395 699 l 2,38,39
 400 699 400 699 400 694 c 2,4,-1
EndSplineSet
EndChar

StartChar: Eacute
Encoding: 201 201 156
Width: 450
GlyphClass: 2
Flags: W
LayerCount: 2
Fore
SplineSet
234 848 m 1,0,-1
 322 848 l 1,1,-1
 211 715 l 1,2,-1
 145 715 l 1,3,-1
 234 848 l 1,0,-1
400 694 m 2,4,-1
 400 617 l 2,5,6
 400 612 400 612 395 612 c 2,7,-1
 143 612 l 2,8,9
 138 612 138 612 138 607 c 2,10,-1
 138 399 l 2,11,12
 138 393 138 393 143 393 c 2,13,-1
 307 393 l 2,14,15
 312 393 312 393 312 388 c 2,16,-1
 312 311 l 2,17,18
 312 306 312 306 307 306 c 2,19,-1
 143 306 l 2,20,21
 138 306 138 306 138 301 c 2,22,-1
 138 93 l 2,23,24
 138 87 138 87 143 87 c 2,25,-1
 395 87 l 2,26,27
 400 87 400 87 400 82 c 2,28,-1
 400 5 l 2,29,30
 400 0 400 0 395 0 c 2,31,-1
 55 0 l 2,32,33
 50 0 50 0 50 5 c 2,34,-1
 50 694 l 2,35,36
 50 699 50 699 55 699 c 2,37,-1
 395 699 l 2,38,39
 400 699 400 699 400 694 c 2,4,-1
EndSplineSet
EndChar

StartChar: Ecircumflex
Encoding: 202 202 157
Width: 450
GlyphClass: 2
Flags: W
LayerCount: 2
Fore
SplineSet
181 848 m 1,0,-1
 269 848 l 1,1,-1
 358 715 l 1,2,-1
 291 715 l 1,3,-1
 225 795 l 1,4,-1
 158 715 l 1,5,-1
 92 715 l 1,6,-1
 181 848 l 1,0,-1
400 694 m 2,7,-1
 400 617 l 2,8,9
 400 612 400 612 395 612 c 2,10,-1
 143 612 l 2,11,12
 138 612 138 612 138 607 c 2,13,-1
 138 399 l 2,14,15
 138 393 138 393 143 393 c 2,16,-1
 307 393 l 2,17,18
 312 393 312 393 312 388 c 2,19,-1
 312 311 l 2,20,21
 312 306 312 306 307 306 c 2,22,-1
 143 306 l 2,23,24
 138 306 138 306 138 301 c 2,25,-1
 138 93 l 2,26,27
 138 87 138 87 143 87 c 2,28,-1
 395 87 l 2,29,30
 400 87 400 87 400 82 c 2,31,-1
 400 5 l 2,32,33
 400 0 400 0 395 0 c 2,34,-1
 55 0 l 2,35,36
 50 0 50 0 50 5 c 2,37,-1
 50 694 l 2,38,39
 50 699 50 699 55 699 c 2,40,-1
 395 699 l 2,41,42
 400 699 400 699 400 694 c 2,7,-1
EndSplineSet
EndChar

StartChar: Edieresis
Encoding: 203 203 158
Width: 450
GlyphClass: 2
Flags: W
LayerCount: 2
Fore
SplineSet
170 848 m 128,-1,1
 188 848 188 848 201 835 c 128,-1,2
 214 822 214 822 214 804 c 0,3,4
 214 799 214 799 213 795 c 0,5,6
 210 780 210 780 198 769.5 c 128,-1,7
 186 759 186 759 170 759 c 0,8,9
 152 759 152 759 139 772 c 128,-1,10
 126 785 126 785 126 803.5 c 128,-1,11
 126 822 126 822 139 835 c 128,-1,0
 152 848 152 848 170 848 c 128,-1,1
280.5 848 m 128,-1,13
 299 848 299 848 312 835 c 128,-1,14
 325 822 325 822 325 804 c 0,15,16
 325 799 325 799 324 795 c 0,17,18
 321 780 321 780 309 769.5 c 128,-1,19
 297 759 297 759 281 759 c 0,20,21
 262 759 262 759 249 772 c 128,-1,22
 236 785 236 785 236 803.5 c 128,-1,23
 236 822 236 822 249 835 c 128,-1,12
 262 848 262 848 280.5 848 c 128,-1,13
400 694 m 2,24,-1
 400 617 l 2,25,26
 400 612 400 612 395 612 c 2,27,-1
 143 612 l 2,28,29
 138 612 138 612 138 607 c 2,30,-1
 138 399 l 2,31,32
 138 393 138 393 143 393 c 2,33,-1
 307 393 l 2,34,35
 312 393 312 393 312 388 c 2,36,-1
 312 311 l 2,37,38
 312 306 312 306 307 306 c 2,39,-1
 143 306 l 2,40,41
 138 306 138 306 138 301 c 2,42,-1
 138 93 l 2,43,44
 138 87 138 87 143 87 c 2,45,-1
 395 87 l 2,46,47
 400 87 400 87 400 82 c 2,48,-1
 400 5 l 2,49,50
 400 0 400 0 395 0 c 2,51,-1
 55 0 l 2,52,53
 50 0 50 0 50 5 c 2,54,-1
 50 694 l 2,55,56
 50 699 50 699 55 699 c 2,57,-1
 395 699 l 2,58,59
 400 699 400 699 400 694 c 2,24,-1
EndSplineSet
EndChar

StartChar: Igrave
Encoding: 204 204 159
Width: 450
GlyphClass: 2
Flags: W
LayerCount: 2
Fore
SplineSet
144 848 m 1,0,-1
 232 848 l 1,1,-1
 321 715 l 1,2,-1
 254 715 l 1,3,-1
 144 848 l 1,0,-1
180 694 m 2,4,5
 180 699 180 699 185 699 c 2,6,-1
 262 699 l 2,7,8
 267 699 267 699 267 694 c 2,9,-1
 267 5 l 2,10,11
 267 0 267 0 262 0 c 2,12,-1
 185 0 l 2,13,14
 180 0 180 0 180 5 c 2,15,-1
 180 694 l 2,4,5
EndSplineSet
EndChar

StartChar: Iacute
Encoding: 205 205 160
Width: 450
GlyphClass: 2
Flags: W
LayerCount: 2
Fore
SplineSet
234 848 m 1,0,-1
 322 848 l 1,1,-1
 211 715 l 1,2,-1
 145 715 l 1,3,-1
 234 848 l 1,0,-1
180 694 m 2,4,5
 180 699 180 699 185 699 c 2,6,-1
 262 699 l 2,7,8
 267 699 267 699 267 694 c 2,9,-1
 267 5 l 2,10,11
 267 0 267 0 262 0 c 2,12,-1
 185 0 l 2,13,14
 180 0 180 0 180 5 c 2,15,-1
 180 694 l 2,4,5
EndSplineSet
EndChar

StartChar: Icircumflex
Encoding: 206 206 161
Width: 450
GlyphClass: 2
Flags: W
LayerCount: 2
Fore
SplineSet
181 848 m 1,0,-1
 269 848 l 1,1,-1
 358 715 l 1,2,-1
 291 715 l 1,3,-1
 225 795 l 1,4,-1
 158 715 l 1,5,-1
 92 715 l 1,6,-1
 181 848 l 1,0,-1
180 694 m 2,7,8
 180 699 180 699 185 699 c 2,9,-1
 262 699 l 2,10,11
 267 699 267 699 267 694 c 2,12,-1
 267 5 l 2,13,14
 267 0 267 0 262 0 c 2,15,-1
 185 0 l 2,16,17
 180 0 180 0 180 5 c 2,18,-1
 180 694 l 2,7,8
EndSplineSet
EndChar

StartChar: Idieresis
Encoding: 207 207 162
Width: 450
GlyphClass: 2
Flags: W
LayerCount: 2
Fore
SplineSet
170 848 m 128,-1,1
 188 848 188 848 201 835 c 128,-1,2
 214 822 214 822 214 804 c 0,3,4
 214 799 214 799 213 795 c 0,5,6
 210 780 210 780 198 769.5 c 128,-1,7
 186 759 186 759 170 759 c 0,8,9
 152 759 152 759 139 772 c 128,-1,10
 126 785 126 785 126 803.5 c 128,-1,11
 126 822 126 822 139 835 c 128,-1,0
 152 848 152 848 170 848 c 128,-1,1
280.5 848 m 128,-1,13
 299 848 299 848 312 835 c 128,-1,14
 325 822 325 822 325 804 c 0,15,16
 325 799 325 799 324 795 c 0,17,18
 321 780 321 780 309 769.5 c 128,-1,19
 297 759 297 759 281 759 c 0,20,21
 262 759 262 759 249 772 c 128,-1,22
 236 785 236 785 236 803.5 c 128,-1,23
 236 822 236 822 249 835 c 128,-1,12
 262 848 262 848 280.5 848 c 128,-1,13
180 694 m 2,24,25
 180 699 180 699 185 699 c 2,26,-1
 262 699 l 2,27,28
 267 699 267 699 267 694 c 2,29,-1
 267 5 l 2,30,31
 267 0 267 0 262 0 c 2,32,-1
 185 0 l 2,33,34
 180 0 180 0 180 5 c 2,35,-1
 180 694 l 2,24,25
EndSplineSet
EndChar

StartChar: Ograve
Encoding: 210 210 165
Width: 450
GlyphClass: 2
Flags: W
LayerCount: 2
Fore
SplineSet
144 848 m 1,0,-1
 232 848 l 1,1,-1
 321 715 l 1,2,-1
 254 715 l 1,3,-1
 144 848 l 1,0,-1
225 699 m 128,-1,5
 297 699 297 699 348.5 648 c 128,-1,6
 400 597 400 597 400 525 c 2,7,-1
 400 175 l 2,8,9
 400 102 400 102 348.5 51 c 128,-1,10
 297 0 297 0 225 0 c 128,-1,11
 153 0 153 0 101.5 51 c 128,-1,12
 50 102 50 102 50 175 c 2,13,-1
 50 525 l 2,14,15
 50 597 50 597 101.5 648 c 128,-1,4
 153 699 153 699 225 699 c 128,-1,5
225 612 m 128,-1,17
 189 612 189 612 163.5 586.5 c 128,-1,18
 138 561 138 561 138 525 c 2,19,-1
 138 175 l 2,20,21
 138 139 138 139 163.5 113 c 128,-1,22
 189 87 189 87 225 87 c 128,-1,23
 261 87 261 87 286.5 113 c 128,-1,24
 312 139 312 139 312 175 c 2,25,-1
 312 525 l 2,26,27
 312 561 312 561 286.5 586.5 c 128,-1,16
 261 612 261 612 225 612 c 128,-1,17
EndSplineSet
EndChar

StartChar: Oacute
Encoding: 211 211 166
Width: 450
GlyphClass: 2
Flags: W
LayerCount: 2
Fore
SplineSet
234 848 m 1,0,-1
 322 848 l 1,1,-1
 211 715 l 1,2,-1
 145 715 l 1,3,-1
 234 848 l 1,0,-1
225 699 m 128,-1,5
 297 699 297 699 348.5 648 c 128,-1,6
 400 597 400 597 400 525 c 2,7,-1
 400 175 l 2,8,9
 400 102 400 102 348.5 51 c 128,-1,10
 297 0 297 0 225 0 c 128,-1,11
 153 0 153 0 101.5 51 c 128,-1,12
 50 102 50 102 50 175 c 2,13,-1
 50 525 l 2,14,15
 50 597 50 597 101.5 648 c 128,-1,4
 153 699 153 699 225 699 c 128,-1,5
225 612 m 128,-1,17
 189 612 189 612 163.5 586.5 c 128,-1,18
 138 561 138 561 138 525 c 2,19,-1
 138 175 l 2,20,21
 138 139 138 139 163.5 113 c 128,-1,22
 189 87 189 87 225 87 c 128,-1,23
 261 87 261 87 286.5 113 c 128,-1,24
 312 139 312 139 312 175 c 2,25,-1
 312 525 l 2,26,27
 312 561 312 561 286.5 586.5 c 128,-1,16
 261 612 261 612 225 612 c 128,-1,17
EndSplineSet
EndChar

StartChar: Ocircumflex
Encoding: 212 212 167
Width: 450
GlyphClass: 2
Flags: W
LayerCount: 2
Fore
SplineSet
181 848 m 1,0,-1
 269 848 l 1,1,-1
 358 715 l 1,2,-1
 291 715 l 1,3,-1
 225 795 l 1,4,-1
 158 715 l 1,5,-1
 92 715 l 1,6,-1
 181 848 l 1,0,-1
225 699 m 128,-1,8
 297 699 297 699 348.5 648 c 128,-1,9
 400 597 400 597 400 525 c 2,10,-1
 400 175 l 2,11,12
 400 102 400 102 348.5 51 c 128,-1,13
 297 0 297 0 225 0 c 128,-1,14
 153 0 153 0 101.5 51 c 128,-1,15
 50 102 50 102 50 175 c 2,16,-1
 50 525 l 2,17,18
 50 597 50 597 101.5 648 c 128,-1,7
 153 699 153 699 225 699 c 128,-1,8
225 612 m 128,-1,20
 189 612 189 612 163.5 586.5 c 128,-1,21
 138 561 138 561 138 525 c 2,22,-1
 138 175 l 2,23,24
 138 139 138 139 163.5 113 c 128,-1,25
 189 87 189 87 225 87 c 128,-1,26
 261 87 261 87 286.5 113 c 128,-1,27
 312 139 312 139 312 175 c 2,28,-1
 312 525 l 2,29,30
 312 561 312 561 286.5 586.5 c 128,-1,19
 261 612 261 612 225 612 c 128,-1,20
181 848 m 1,31,-1
 269 848 l 1,32,-1
 358 715 l 1,33,-1
 291 715 l 1,34,-1
 225 795 l 1,35,-1
 158 715 l 1,36,-1
 92 715 l 1,37,-1
 181 848 l 1,31,-1
EndSplineSet
EndChar

StartChar: Otilde
Encoding: 213 213 168
Width: 450
GlyphClass: 2
Flags: W
LayerCount: 2
Fore
SplineSet
225 699 m 128,-1,1
 297 699 297 699 348.5 648 c 128,-1,2
 400 597 400 597 400 525 c 2,3,-1
 400 175 l 2,4,5
 400 102 400 102 348.5 51 c 128,-1,6
 297 0 297 0 225 0 c 128,-1,7
 153 0 153 0 101.5 51 c 128,-1,8
 50 102 50 102 50 175 c 2,9,-1
 50 525 l 2,10,11
 50 597 50 597 101.5 648 c 128,-1,0
 153 699 153 699 225 699 c 128,-1,1
225 612 m 128,-1,13
 189 612 189 612 163.5 586.5 c 128,-1,14
 138 561 138 561 138 525 c 2,15,-1
 138 175 l 2,16,17
 138 139 138 139 163.5 113 c 128,-1,18
 189 87 189 87 225 87 c 128,-1,19
 261 87 261 87 286.5 113 c 128,-1,20
 312 139 312 139 312 175 c 2,21,-1
 312 525 l 2,22,23
 312 561 312 561 286.5 586.5 c 128,-1,12
 261 612 261 612 225 612 c 128,-1,13
EndSplineSet
EndChar

StartChar: Odieresis
Encoding: 214 214 169
Width: 450
GlyphClass: 2
Flags: W
LayerCount: 2
Fore
SplineSet
170 848 m 128,-1,1
 188 848 188 848 201 835 c 128,-1,2
 214 822 214 822 214 804 c 0,3,4
 214 799 214 799 213 795 c 0,5,6
 210 780 210 780 198 769.5 c 128,-1,7
 186 759 186 759 170 759 c 0,8,9
 152 759 152 759 139 772 c 128,-1,10
 126 785 126 785 126 803.5 c 128,-1,11
 126 822 126 822 139 835 c 128,-1,0
 152 848 152 848 170 848 c 128,-1,1
280.5 848 m 128,-1,13
 299 848 299 848 312 835 c 128,-1,14
 325 822 325 822 325 804 c 0,15,16
 325 799 325 799 324 795 c 0,17,18
 321 780 321 780 309 769.5 c 128,-1,19
 297 759 297 759 281 759 c 0,20,21
 262 759 262 759 249 772 c 128,-1,22
 236 785 236 785 236 803.5 c 128,-1,23
 236 822 236 822 249 835 c 128,-1,12
 262 848 262 848 280.5 848 c 128,-1,13
225 699 m 128,-1,25
 297 699 297 699 348.5 648 c 128,-1,26
 400 597 400 597 400 525 c 2,27,-1
 400 175 l 2,28,29
 400 102 400 102 348.5 51 c 128,-1,30
 297 0 297 0 225 0 c 128,-1,31
 153 0 153 0 101.5 51 c 128,-1,32
 50 102 50 102 50 175 c 2,33,-1
 50 525 l 2,34,35
 50 597 50 597 101.5 648 c 128,-1,24
 153 699 153 699 225 699 c 128,-1,25
225 612 m 128,-1,37
 189 612 189 612 163.5 586.5 c 128,-1,38
 138 561 138 561 138 525 c 2,39,-1
 138 175 l 2,40,41
 138 139 138 139 163.5 113 c 128,-1,42
 189 87 189 87 225 87 c 128,-1,43
 261 87 261 87 286.5 113 c 128,-1,44
 312 139 312 139 312 175 c 2,45,-1
 312 525 l 2,46,47
 312 561 312 561 286.5 586.5 c 128,-1,36
 261 612 261 612 225 612 c 128,-1,37
EndSplineSet
EndChar

StartChar: Ugrave
Encoding: 217 217 172
Width: 450
GlyphClass: 2
Flags: W
LayerCount: 2
Fore
SplineSet
144 848 m 1,0,-1
 232 848 l 1,1,-1
 321 715 l 1,2,-1
 254 715 l 1,3,-1
 144 848 l 1,0,-1
400 175 m 2,4,5
 400 102 400 102 348.5 51 c 128,-1,6
 297 0 297 0 225 0 c 128,-1,7
 153 0 153 0 101.5 51 c 128,-1,8
 50 102 50 102 50 175 c 2,9,-1
 50 694 l 2,10,11
 50 699 50 699 55 699 c 2,12,-1
 132 699 l 2,13,14
 138 699 138 699 138 694 c 2,15,-1
 138 175 l 2,16,17
 138 139 138 139 163.5 113 c 128,-1,18
 189 87 189 87 225 87 c 128,-1,19
 261 87 261 87 286.5 113 c 128,-1,20
 312 139 312 139 312 175 c 2,21,-1
 312 694 l 2,22,23
 312 699 312 699 318 699 c 2,24,-1
 395 699 l 2,25,26
 400 699 400 699 400 694 c 2,27,-1
 400 175 l 2,4,5
EndSplineSet
EndChar

StartChar: Uacute
Encoding: 218 218 173
Width: 450
GlyphClass: 2
Flags: W
LayerCount: 2
Fore
SplineSet
234 848 m 1,0,-1
 322 848 l 1,1,-1
 211 715 l 1,2,-1
 145 715 l 1,3,-1
 234 848 l 1,0,-1
400 175 m 2,4,5
 400 102 400 102 348.5 51 c 128,-1,6
 297 0 297 0 225 0 c 128,-1,7
 153 0 153 0 101.5 51 c 128,-1,8
 50 102 50 102 50 175 c 2,9,-1
 50 694 l 2,10,11
 50 699 50 699 55 699 c 2,12,-1
 132 699 l 2,13,14
 138 699 138 699 138 694 c 2,15,-1
 138 175 l 2,16,17
 138 139 138 139 163.5 113 c 128,-1,18
 189 87 189 87 225 87 c 128,-1,19
 261 87 261 87 286.5 113 c 128,-1,20
 312 139 312 139 312 175 c 2,21,-1
 312 694 l 2,22,23
 312 699 312 699 318 699 c 2,24,-1
 395 699 l 2,25,26
 400 699 400 699 400 694 c 2,27,-1
 400 175 l 2,4,5
EndSplineSet
EndChar

StartChar: Ucircumflex
Encoding: 219 219 174
Width: 450
GlyphClass: 2
Flags: W
LayerCount: 2
Fore
SplineSet
181 848 m 1,0,-1
 269 848 l 1,1,-1
 358 715 l 1,2,-1
 291 715 l 1,3,-1
 225 795 l 1,4,-1
 158 715 l 1,5,-1
 92 715 l 1,6,-1
 181 848 l 1,0,-1
400 175 m 2,7,8
 400 102 400 102 348.5 51 c 128,-1,9
 297 0 297 0 225 0 c 128,-1,10
 153 0 153 0 101.5 51 c 128,-1,11
 50 102 50 102 50 175 c 2,12,-1
 50 694 l 2,13,14
 50 699 50 699 55 699 c 2,15,-1
 132 699 l 2,16,17
 138 699 138 699 138 694 c 2,18,-1
 138 175 l 2,19,20
 138 139 138 139 163.5 113 c 128,-1,21
 189 87 189 87 225 87 c 128,-1,22
 261 87 261 87 286.5 113 c 128,-1,23
 312 139 312 139 312 175 c 2,24,-1
 312 694 l 2,25,26
 312 699 312 699 318 699 c 2,27,-1
 395 699 l 2,28,29
 400 699 400 699 400 694 c 2,30,-1
 400 175 l 2,7,8
EndSplineSet
EndChar

StartChar: Udieresis
Encoding: 220 220 175
Width: 450
GlyphClass: 2
Flags: W
LayerCount: 2
Fore
SplineSet
170 848 m 128,-1,1
 188 848 188 848 201 835 c 128,-1,2
 214 822 214 822 214 804 c 0,3,4
 214 799 214 799 213 795 c 0,5,6
 210 780 210 780 198 769.5 c 128,-1,7
 186 759 186 759 170 759 c 0,8,9
 152 759 152 759 139 772 c 128,-1,10
 126 785 126 785 126 803.5 c 128,-1,11
 126 822 126 822 139 835 c 128,-1,0
 152 848 152 848 170 848 c 128,-1,1
280.5 848 m 128,-1,13
 299 848 299 848 312 835 c 128,-1,14
 325 822 325 822 325 804 c 0,15,16
 325 799 325 799 324 795 c 0,17,18
 321 780 321 780 309 769.5 c 128,-1,19
 297 759 297 759 281 759 c 0,20,21
 262 759 262 759 249 772 c 128,-1,22
 236 785 236 785 236 803.5 c 128,-1,23
 236 822 236 822 249 835 c 128,-1,12
 262 848 262 848 280.5 848 c 128,-1,13
400 175 m 2,24,25
 400 102 400 102 348.5 51 c 128,-1,26
 297 0 297 0 225 0 c 128,-1,27
 153 0 153 0 101.5 51 c 128,-1,28
 50 102 50 102 50 175 c 2,29,-1
 50 694 l 2,30,31
 50 699 50 699 55 699 c 2,32,-1
 132 699 l 2,33,34
 138 699 138 699 138 694 c 2,35,-1
 138 175 l 2,36,37
 138 139 138 139 163.5 113 c 128,-1,38
 189 87 189 87 225 87 c 128,-1,39
 261 87 261 87 286.5 113 c 128,-1,40
 312 139 312 139 312 175 c 2,41,-1
 312 694 l 2,42,43
 312 699 312 699 318 699 c 2,44,-1
 395 699 l 2,45,46
 400 699 400 699 400 694 c 2,47,-1
 400 175 l 2,24,25
EndSplineSet
EndChar

StartChar: germandbls
Encoding: 223 223 178
Width: 450
GlyphClass: 2
Flags: W
LayerCount: 2
Fore
SplineSet
203.5 709 m 128,-1,1
 268 709 268 709 313.5 663.5 c 128,-1,2
 359 618 359 618 359 553 c 1,3,-1
 359 553 l 1,4,5
 359 499 359 499 324 456 c 1,6,7
 402 403 402 403 402 309 c 2,8,-1
 402 177 l 2,9,10
 402 104 402 104 350 52 c 128,-1,11
 298 0 298 0 225 0 c 2,12,-1
 181 0 l 1,13,-1
 181 89 l 1,14,-1
 225 89 l 2,15,16
 262 89 262 89 288 115 c 128,-1,17
 314 141 314 141 314 177 c 2,18,-1
 314 309 l 2,19,20
 314 346 314 346 288 372 c 128,-1,21
 262 398 262 398 225 398 c 2,22,-1
 181 398 l 1,23,-1
 181 486 l 1,24,-1
 203 486 l 2,25,26
 231 487 231 487 250.5 506.5 c 128,-1,27
 270 526 270 526 270 553 c 1,28,-1
 270 553 l 1,29,30
 270 581 270 581 250.5 600.5 c 128,-1,31
 231 620 231 620 203.5 620 c 128,-1,32
 176 620 176 620 156.5 600.5 c 128,-1,33
 137 581 137 581 137 553 c 2,34,-1
 137 0 l 1,35,-1
 48 0 l 1,36,-1
 48 553 l 2,37,38
 48 618 48 618 93.5 663.5 c 128,-1,0
 139 709 139 709 203.5 709 c 128,-1,1
EndSplineSet
EndChar

StartChar: agrave
Encoding: 224 224 179
Width: 492
GlyphClass: 2
Flags: W
LayerCount: 2
Fore
SplineSet
220 532 m 2,0,-1
 246 532 l 2,1,2
 310 531 310 531 355.5 486 c 128,-1,3
 401 441 401 441 401 376 c 2,4,-1
 401 354 l 1,5,6
 401 354 401 354 401 353 c 2,7,-1
 401 133 l 2,8,9
 401 115 401 115 414 102 c 128,-1,10
 427 89 427 89 445 89 c 1,11,-1
 445 0 l 1,12,13
 389 0 389 0 350 40 c 1,14,15
 306 0 306 0 246 0 c 2,16,-1
 202 0 l 2,17,18
 138 0 138 0 92.5 45.5 c 128,-1,19
 47 91 47 91 47 155 c 128,-1,20
 47 219 47 219 92.5 264.5 c 128,-1,21
 138 310 138 310 202 310 c 2,22,-1
 268 310 l 2,23,24
 286 310 286 310 299 323 c 128,-1,25
 312 336 312 336 312 354 c 2,26,-1
 312 376 l 2,27,28
 312 404 312 404 292.5 423.5 c 128,-1,29
 273 443 273 443 246 443 c 2,30,-1
 224 443 l 2,31,32
 196 443 196 443 176.5 423.5 c 128,-1,33
 157 404 157 404 157 377 c 2,34,-1
 157 354 l 1,35,-1
 69 354 l 1,36,-1
 69 377 l 2,37,38
 69 440 69 440 113 485 c 128,-1,39
 157 530 157 530 220 532 c 2,0,-1
312 229 m 1,40,41
 291 221 291 221 268 221 c 2,42,-1
 202 221 l 2,43,44
 174 221 174 221 154.5 201.5 c 128,-1,45
 135 182 135 182 135 154.5 c 128,-1,46
 135 127 135 127 154.5 108 c 128,-1,47
 174 89 174 89 202 89 c 2,48,-1
 246 89 l 2,49,50
 274 89 274 89 293 108 c 128,-1,51
 312 127 312 127 312 155 c 2,52,-1
 312 229 l 1,40,41
136 709 m 1,53,-1
 225 709 l 1,54,-1
 313 576 l 1,55,-1
 247 576 l 1,56,-1
 136 709 l 1,53,-1
EndSplineSet
EndChar

StartChar: aacute
Encoding: 225 225 180
Width: 492
GlyphClass: 2
Flags: W
LayerCount: 2
Fore
SplineSet
220 532 m 2,0,-1
 246 532 l 2,1,2
 310 531 310 531 355.5 486 c 128,-1,3
 401 441 401 441 401 376 c 2,4,-1
 401 354 l 1,5,6
 401 354 401 354 401 353 c 2,7,-1
 401 133 l 2,8,9
 401 115 401 115 414 102 c 128,-1,10
 427 89 427 89 445 89 c 1,11,-1
 445 0 l 1,12,13
 389 0 389 0 350 40 c 1,14,15
 306 0 306 0 246 0 c 2,16,-1
 202 0 l 2,17,18
 138 0 138 0 92.5 45.5 c 128,-1,19
 47 91 47 91 47 155 c 128,-1,20
 47 219 47 219 92.5 264.5 c 128,-1,21
 138 310 138 310 202 310 c 2,22,-1
 268 310 l 2,23,24
 286 310 286 310 299 323 c 128,-1,25
 312 336 312 336 312 354 c 2,26,-1
 312 376 l 2,27,28
 312 404 312 404 292.5 423.5 c 128,-1,29
 273 443 273 443 246 443 c 2,30,-1
 224 443 l 2,31,32
 196 443 196 443 176.5 423.5 c 128,-1,33
 157 404 157 404 157 377 c 2,34,-1
 157 354 l 1,35,-1
 69 354 l 1,36,-1
 69 377 l 2,37,38
 69 440 69 440 113 485 c 128,-1,39
 157 530 157 530 220 532 c 2,0,-1
312 229 m 1,40,41
 291 221 291 221 268 221 c 2,42,-1
 202 221 l 2,43,44
 174 221 174 221 154.5 201.5 c 128,-1,45
 135 182 135 182 135 154.5 c 128,-1,46
 135 127 135 127 154.5 108 c 128,-1,47
 174 89 174 89 202 89 c 2,48,-1
 246 89 l 2,49,50
 274 89 274 89 293 108 c 128,-1,51
 312 127 312 127 312 155 c 2,52,-1
 312 229 l 1,40,41
314 709 m 1,53,-1
 225 709 l 1,54,-1
 137 576 l 1,55,-1
 203 576 l 1,56,-1
 314 709 l 1,53,-1
EndSplineSet
EndChar

StartChar: acircumflex
Encoding: 226 226 181
Width: 492
GlyphClass: 2
Flags: W
LayerCount: 2
Fore
SplineSet
220 532 m 2,0,-1
 246 532 l 2,1,2
 310 531 310 531 355.5 486 c 128,-1,3
 401 441 401 441 401 376 c 2,4,-1
 401 354 l 1,5,6
 401 354 401 354 401 353 c 2,7,-1
 401 133 l 2,8,9
 401 115 401 115 414 102 c 128,-1,10
 427 89 427 89 445 89 c 1,11,-1
 445 0 l 1,12,13
 389 0 389 0 350 40 c 1,14,15
 306 0 306 0 246 0 c 2,16,-1
 202 0 l 2,17,18
 138 0 138 0 92.5 45.5 c 128,-1,19
 47 91 47 91 47 155 c 128,-1,20
 47 219 47 219 92.5 264.5 c 128,-1,21
 138 310 138 310 202 310 c 2,22,-1
 268 310 l 2,23,24
 286 310 286 310 299 323 c 128,-1,25
 312 336 312 336 312 354 c 2,26,-1
 312 376 l 2,27,28
 312 404 312 404 292.5 423.5 c 128,-1,29
 273 443 273 443 246 443 c 2,30,-1
 224 443 l 2,31,32
 196 443 196 443 176.5 423.5 c 128,-1,33
 157 404 157 404 157 377 c 2,34,-1
 157 354 l 1,35,-1
 69 354 l 1,36,-1
 69 377 l 2,37,38
 69 440 69 440 113 485 c 128,-1,39
 157 530 157 530 220 532 c 2,0,-1
312 229 m 1,40,41
 291 221 291 221 268 221 c 2,42,-1
 202 221 l 2,43,44
 174 221 174 221 154.5 201.5 c 128,-1,45
 135 182 135 182 135 154.5 c 128,-1,46
 135 127 135 127 154.5 108 c 128,-1,47
 174 89 174 89 202 89 c 2,48,-1
 246 89 l 2,49,50
 274 89 274 89 293 108 c 128,-1,51
 312 127 312 127 312 155 c 2,52,-1
 312 229 l 1,40,41
165 709 m 1,53,-1
 254 709 l 1,54,-1
 342 576 l 1,55,-1
 276 576 l 1,56,-1
 210 656 l 1,57,-1
 143 576 l 1,58,-1
 77 576 l 1,59,-1
 165 709 l 1,53,-1
EndSplineSet
EndChar

StartChar: adieresis
Encoding: 228 228 183
Width: 492
GlyphClass: 2
Flags: W
LayerCount: 2
Fore
SplineSet
220 532 m 2,0,-1
 246 532 l 2,1,2
 310 531 310 531 355.5 486 c 128,-1,3
 401 441 401 441 401 376 c 2,4,-1
 401 354 l 1,5,6
 401 354 401 354 401 353 c 2,7,-1
 401 133 l 2,8,9
 401 115 401 115 414 102 c 128,-1,10
 427 89 427 89 445 89 c 1,11,-1
 445 0 l 1,12,13
 389 0 389 0 350 40 c 1,14,15
 306 0 306 0 246 0 c 2,16,-1
 202 0 l 2,17,18
 138 0 138 0 92.5 45.5 c 128,-1,19
 47 91 47 91 47 155 c 128,-1,20
 47 219 47 219 92.5 264.5 c 128,-1,21
 138 310 138 310 202 310 c 2,22,-1
 268 310 l 2,23,24
 286 310 286 310 299 323 c 128,-1,25
 312 336 312 336 312 354 c 2,26,-1
 312 376 l 2,27,28
 312 404 312 404 292.5 423.5 c 128,-1,29
 273 443 273 443 246 443 c 2,30,-1
 224 443 l 2,31,32
 196 443 196 443 176.5 423.5 c 128,-1,33
 157 404 157 404 157 377 c 2,34,-1
 157 354 l 1,35,-1
 69 354 l 1,36,-1
 69 377 l 2,37,38
 69 440 69 440 113 485 c 128,-1,39
 157 530 157 530 220 532 c 2,0,-1
312 229 m 1,40,41
 291 221 291 221 268 221 c 2,42,-1
 202 221 l 2,43,44
 174 221 174 221 154.5 201.5 c 128,-1,45
 135 182 135 182 135 154.5 c 128,-1,46
 135 127 135 127 154.5 108 c 128,-1,47
 174 89 174 89 202 89 c 2,48,-1
 246 89 l 2,49,50
 274 89 274 89 293 108 c 128,-1,51
 312 127 312 127 312 155 c 2,52,-1
 312 229 l 1,40,41
167 682 m 128,-1,54
 185 682 185 682 198 669 c 128,-1,55
 211 656 211 656 211 638 c 0,56,57
 211 634 211 634 210 629 c 0,58,59
 207 614 207 614 195 604 c 128,-1,60
 183 594 183 594 167 594 c 0,61,62
 149 594 149 594 136 607 c 128,-1,63
 123 620 123 620 123 638 c 128,-1,64
 123 656 123 656 136 669 c 128,-1,53
 149 682 149 682 167 682 c 128,-1,54
277.5 682 m 128,-1,66
 296 682 296 682 309 669 c 128,-1,67
 322 656 322 656 322 638 c 0,68,69
 322 634 322 634 321 629 c 0,70,71
 318 614 318 614 306 604 c 128,-1,72
 294 594 294 594 278 594 c 0,73,74
 259 594 259 594 246 607 c 128,-1,75
 233 620 233 620 233 638 c 128,-1,76
 233 656 233 656 246 669 c 128,-1,65
 259 682 259 682 277.5 682 c 128,-1,66
EndSplineSet
EndChar

